SplineFontDB: 3.2
FontName: Geist-Regular
FullName: Geist Regular
FamilyName: Geist
Weight: Book
Copyright: Copyright 2024 The Geist Project Authors (https://github.com/vercel/geist-font.git)
Version: 1.401; ttfautohint (v1.8.4.7-5d5b)
ItalicAngle: 0
UnderlinePosition: -125
UnderlineWidth: 50
Ascent: 800
Descent: 200
InvalidEm: 0
sfntRevision: 0x000166a8
LayerCount: 2
Layer: 0 1 "Back" 1
Layer: 1 1 "Fore" 0
XUID: [1021 242 -508030597 10377370]
StyleMap: 0x0040
FSType: 0
OS2Version: 4
OS2_WeightWidthSlopeOnly: 0
OS2_UseTypoMetrics: 1
CreationTime: 1728311655
ModificationTime: 1733698220
PfmFamily: 81
TTFWeight: 400
TTFWidth: 5
LineGap: 0
VLineGap: 0
Panose: 0 0 0 0 0 0 0 0 0 0
OS2TypoAscent: 1005
OS2TypoAOffset: 0
OS2TypoDescent: -295
OS2TypoDOffset: 0
OS2TypoLinegap: 0
OS2WinAscent: 1012
OS2WinAOffset: 0
OS2WinDescent: 262
OS2WinDOffset: 0
HheadAscent: 1005
HheadAOffset: 0
HheadDescent: -295
HheadDOffset: 0
OS2SubXSize: 650
OS2SubYSize: 600
OS2SubXOff: 0
OS2SubYOff: 75
OS2SupXSize: 650
OS2SupYSize: 600
OS2SupXOff: 0
OS2SupYOff: 350
OS2StrikeYSize: 50
OS2StrikeYPos: 318
OS2CapHeight: 710
OS2XHeight: 530
OS2Vendor: 'VRCL'
OS2CodePages: 20000097.00000000
OS2UnicodeRanges: a10002ff.5001e5fb.00000000.00000000
Lookup: 1 0 0 "'aalt' Access All Alternates in Latin lookup 0" { "'aalt' Access All Alternates in Latin lookup 0 subtable"  } ['aalt' ('DFLT' <'dflt' > 'latn' <'AZE ' 'CAT ' 'CRT ' 'KAZ ' 'MAH ' 'MOL ' 'NLD ' 'ROM ' 'TAT ' 'TRK ' 'dflt' > ) ]
Lookup: 3 0 0 "'aalt' Access All Alternates in Latin lookup 1" { "'aalt' Access All Alternates in Latin lookup 1 subtable"  } ['aalt' ('DFLT' <'dflt' > 'latn' <'AZE ' 'CAT ' 'CRT ' 'KAZ ' 'MAH ' 'MOL ' 'NLD ' 'ROM ' 'TAT ' 'TRK ' 'dflt' > ) ]

StartChar: A
Encoding: 65 65 0
Width: 668
GlyphClass: 2
Flags: W
AnchorPoint: "Anchor-3" 334 710 basechar 0
AnchorPoint: "Anchor-2" 648 0 basechar 0
AnchorPoint: "Anchor-0" 334 0 basechar 0
LayerCount: 2
Fore
SplineSet
20 0 m 1,0,-1
 276 710 l 1,1,-1
 392 710 l 1,2,-1
 648 0 l 1,3,-1
 554 0 l 1,4,-1
 483 202 l 1,5,-1
 185 202 l 1,6,-1
 114 0 l 1,7,-1
 20 0 l 1,0,-1
214 286 m 1,8,-1
 454 286 l 1,9,-1
 334 635 l 1,10,-1
 214 286 l 1,8,-1
EndSplineSet
Substitution2: "Single Substitution lookup 27 subtable" ordfeminine
Substitution2: "'aalt' Access All Alternates in Latin lookup 0 subtable" ordfeminine
EndChar

StartChar: B
Encoding: 66 66 1
Width: 680
GlyphClass: 2
Flags: W
AnchorPoint: "Anchor-3" 340 710 basechar 0
AnchorPoint: "Anchor-0" 340 0 basechar 0
LayerCount: 2
Fore
SplineSet
92 0 m 1,0,-1
 92 710 l 1,1,-1
 336 710 l 2,2,3
 462 710 462 710 525 664 c 128,-1,4
 588 618 588 618 588 519 c 0,5,6
 588 459 588 459 554.5 418.5 c 128,-1,7
 521 378 521 378 462 367 c 1,8,9
 535 357 535 357 576.5 310.5 c 128,-1,10
 618 264 618 264 618 195 c 0,11,12
 618 98 618 98 555 49 c 128,-1,13
 492 0 492 0 376 0 c 2,14,-1
 92 0 l 1,0,-1
178 403 m 1,15,-1
 336 403 l 2,16,17
 414 403 414 403 456 432.5 c 128,-1,18
 498 462 498 462 498 515 c 0,19,20
 498 626 498 626 336 626 c 2,21,-1
 178 626 l 1,22,-1
 178 403 l 1,15,-1
178 84 m 1,23,-1
 376 84 l 2,24,25
 449 84 449 84 488.5 114 c 128,-1,26
 528 144 528 144 528 200 c 256,27,28
 528 256 528 256 488.5 287.5 c 128,-1,29
 449 319 449 319 376 319 c 2,30,-1
 178 319 l 1,31,-1
 178 84 l 1,23,-1
EndSplineSet
EndChar

StartChar: C
Encoding: 67 67 2
Width: 703
GlyphClass: 2
Flags: W
AnchorPoint: "Anchor-3" 362 710 basechar 0
AnchorPoint: "Anchor-0" 366 0 basechar 0
LayerCount: 2
Fore
SplineSet
364 -16 m 0,0,1
 269 -16 269 -16 197 28.5 c 128,-1,2
 125 73 125 73 85 156 c 128,-1,3
 45 239 45 239 45 354 c 256,4,5
 45 469 45 469 85 552.5 c 128,-1,6
 125 636 125 636 197 681 c 128,-1,7
 269 726 269 726 364 726 c 0,8,9
 493 726 493 726 564 661 c 128,-1,10
 635 596 635 596 657 484 c 1,11,-1
 566 478 l 1,12,13
 551 554 551 554 502 598 c 128,-1,14
 453 642 453 642 364 642 c 0,15,16
 296 642 296 642 244.5 607.5 c 128,-1,17
 193 573 193 573 164 508.5 c 128,-1,18
 135 444 135 444 135 354 c 256,19,20
 135 264 135 264 164 200 c 128,-1,21
 193 136 193 136 244.5 102 c 128,-1,22
 296 68 296 68 364 68 c 0,23,24
 457 68 457 68 508 116.5 c 128,-1,25
 559 165 559 165 572 248 c 1,26,-1
 663 242 l 1,27,28
 650 165 650 165 612 107 c 128,-1,29
 574 49 574 49 511.5 16.5 c 128,-1,30
 449 -16 449 -16 364 -16 c 0,0,1
EndSplineSet
EndChar

StartChar: D
Encoding: 68 68 3
Width: 698
GlyphClass: 2
Flags: W
AnchorPoint: "Anchor-3" 323 710 basechar 0
AnchorPoint: "Anchor-1" 200 355 basechar 0
AnchorPoint: "Anchor-0" 323 0 basechar 0
LayerCount: 2
Fore
SplineSet
92 0 m 1,0,-1
 92 710 l 1,1,-1
 312 710 l 2,2,3
 476 710 476 710 564.5 617.5 c 128,-1,4
 653 525 653 525 653 354 c 0,5,6
 653 184 653 184 566 92 c 128,-1,7
 479 0 479 0 318 0 c 2,8,-1
 92 0 l 1,0,-1
178 84 m 1,9,-1
 312 84 l 2,10,11
 563 84 563 84 563 354 c 0,12,13
 563 626 563 626 312 626 c 2,14,-1
 178 626 l 1,15,-1
 178 84 l 1,9,-1
EndSplineSet
EndChar

StartChar: E
Encoding: 69 69 4
Width: 603
GlyphClass: 2
Flags: W
AnchorPoint: "Anchor-3" 317 710 basechar 0
AnchorPoint: "Anchor-2" 546 0 basechar 0
AnchorPoint: "Anchor-0" 319 0 basechar 0
LayerCount: 2
Fore
SplineSet
92 0 m 1,0,-1
 92 710 l 1,1,-1
 538 710 l 1,2,-1
 538 626 l 1,3,-1
 178 626 l 1,4,-1
 178 397 l 1,5,-1
 526 397 l 1,6,-1
 526 315 l 1,7,-1
 178 315 l 1,8,-1
 178 84 l 1,9,-1
 546 84 l 1,10,-1
 546 0 l 1,11,-1
 92 0 l 1,0,-1
EndSplineSet
EndChar

StartChar: F
Encoding: 70 70 5
Width: 590
GlyphClass: 1
Flags: W
LayerCount: 2
Fore
SplineSet
92 0 m 1,0,-1
 92 710 l 1,1,-1
 538 710 l 1,2,-1
 538 626 l 1,3,-1
 178 626 l 1,4,-1
 178 388 l 1,5,-1
 520 388 l 1,6,-1
 520 306 l 1,7,-1
 178 306 l 1,8,-1
 178 0 l 1,9,-1
 92 0 l 1,0,-1
EndSplineSet
EndChar

StartChar: G
Encoding: 71 71 6
Width: 700
GlyphClass: 2
Flags: W
AnchorPoint: "Anchor-3" 364 710 basechar 0
AnchorPoint: "Anchor-0" 366 0 basechar 0
LayerCount: 2
Fore
SplineSet
362 -16 m 0,0,1
 262 -16 262 -16 191 32 c 128,-1,2
 120 80 120 80 82.5 163.5 c 128,-1,3
 45 247 45 247 45 354 c 256,4,5
 45 461 45 461 83 545 c 128,-1,6
 121 629 121 629 192.5 677.5 c 128,-1,7
 264 726 264 726 364 726 c 0,8,9
 449 726 449 726 507.5 695 c 128,-1,10
 566 664 566 664 600.5 611 c 128,-1,11
 635 558 635 558 648 492 c 1,12,-1
 558 486 l 1,13,14
 545 555 545 555 500 598.5 c 128,-1,15
 455 642 455 642 364 642 c 0,16,17
 283 642 283 642 232.5 602 c 128,-1,18
 182 562 182 562 158.5 496.5 c 128,-1,19
 135 431 135 431 135 354 c 0,20,21
 135 273 135 273 159 208.5 c 128,-1,22
 183 144 183 144 234 106 c 128,-1,23
 285 68 285 68 364 68 c 0,24,25
 427 68 427 68 473 96.5 c 128,-1,26
 519 125 519 125 544 173 c 128,-1,27
 569 221 569 221 570 277 c 1,28,-1
 366 277 l 1,29,-1
 366 359 l 1,30,-1
 650 359 l 1,31,-1
 650 0 l 1,32,-1
 586 0 l 1,33,-1
 582 119 l 1,34,35
 555 59 555 59 495 21.5 c 128,-1,36
 435 -16 435 -16 362 -16 c 0,0,1
EndSplineSet
Substitution2: "'ss06' Style Set 6 in Latin lookup 39 subtable" G.ss06
Substitution2: "'aalt' Access All Alternates in Latin lookup 0 subtable" G.ss06
EndChar

StartChar: H
Encoding: 72 72 7
Width: 713
GlyphClass: 2
Flags: W
AnchorPoint: "Anchor-3" 357 710 basechar 0
AnchorPoint: "Anchor-1" 357 568 basechar 0
AnchorPoint: "Anchor-0" 357 0 basechar 0
LayerCount: 2
Fore
SplineSet
92 0 m 1,0,-1
 92 710 l 1,1,-1
 178 710 l 1,2,-1
 178 399 l 1,3,-1
 535 399 l 1,4,-1
 535 710 l 1,5,-1
 621 710 l 1,6,-1
 621 0 l 1,7,-1
 535 0 l 1,8,-1
 535 315 l 1,9,-1
 178 315 l 1,10,-1
 178 0 l 1,11,-1
 92 0 l 1,0,-1
EndSplineSet
EndChar

StartChar: I
Encoding: 73 73 8
Width: 270
GlyphClass: 2
Flags: W
AnchorPoint: "Anchor-3" 135 710 basechar 0
AnchorPoint: "Anchor-2" 178 0 basechar 0
AnchorPoint: "Anchor-0" 135 0 basechar 0
LayerCount: 2
Fore
SplineSet
92 0 m 1,0,-1
 92 710 l 1,1,-1
 178 710 l 1,2,-1
 178 0 l 1,3,-1
 92 0 l 1,0,-1
EndSplineSet
Substitution2: "'ss05' Style Set 5 in Latin lookup 38 subtable" I.ss05
Substitution2: "'aalt' Access All Alternates in Latin lookup 0 subtable" I.ss05
EndChar

StartChar: J
Encoding: 74 74 9
Width: 597
GlyphClass: 2
Flags: W
AnchorPoint: "Anchor-3" 478 710 basechar 0
LayerCount: 2
Fore
SplineSet
293 -16 m 0,0,1
 227 -16 227 -16 176 15.5 c 128,-1,2
 125 47 125 47 96.5 103 c 128,-1,3
 68 159 68 159 67 232 c 1,4,-1
 155 238 l 1,5,6
 156 156 156 156 192 112 c 128,-1,7
 228 68 228 68 293 68 c 0,8,9
 361 68 361 68 397.5 115 c 128,-1,10
 434 162 434 162 434 248 c 2,11,-1
 434 710 l 1,12,-1
 520 710 l 1,13,-1
 520 248 l 2,14,15
 520 167 520 167 492 107.5 c 128,-1,16
 464 48 464 48 413.5 16 c 128,-1,17
 363 -16 363 -16 293 -16 c 0,0,1
EndSplineSet
Substitution2: "Single Substitution lookup 16 subtable" uni004A0301
Substitution2: "'aalt' Access All Alternates in Latin lookup 0 subtable" uni004A0301
EndChar

StartChar: K
Encoding: 75 75 10
Width: 640
GlyphClass: 2
Flags: W
AnchorPoint: "Anchor-3" 328 710 basechar 0
AnchorPoint: "Anchor-0" 347 0 basechar 0
LayerCount: 2
Fore
SplineSet
92 0 m 1,0,-1
 92 710 l 1,1,-1
 178 710 l 1,2,-1
 178 357 l 1,3,-1
 497 710 l 1,4,-1
 606 710 l 1,5,-1
 328 402 l 1,6,-1
 625 0 l 1,7,-1
 520 0 l 1,8,-1
 270 338 l 1,9,-1
 178 237 l 1,10,-1
 178 0 l 1,11,-1
 92 0 l 1,0,-1
EndSplineSet
EndChar

StartChar: L
Encoding: 76 76 11
Width: 580
GlyphClass: 2
Flags: W
AnchorPoint: "Anchor-4" 380 530 basechar 0
AnchorPoint: "Anchor-3" 135 710 basechar 0
AnchorPoint: "Anchor-1" 174 380 basechar 0
AnchorPoint: "Anchor-0" 313 0 basechar 0
LayerCount: 2
Fore
SplineSet
92 0 m 1,0,-1
 92 710 l 1,1,-1
 178 710 l 1,2,-1
 178 84 l 1,3,-1
 533 84 l 1,4,-1
 533 0 l 1,5,-1
 92 0 l 1,0,-1
EndSplineSet
EndChar

StartChar: M
Encoding: 77 77 12
Width: 877
GlyphClass: 2
Flags: W
AnchorPoint: "Anchor-3" 439 710 basechar 0
AnchorPoint: "Anchor-0" 439 0 basechar 0
LayerCount: 2
Fore
SplineSet
92 0 m 1,0,-1
 92 710 l 1,1,-1
 212 710 l 1,2,-1
 439 94 l 1,3,-1
 665 710 l 1,4,-1
 785 710 l 1,5,-1
 785 0 l 1,6,-1
 699 0 l 1,7,-1
 699 550 l 1,8,-1
 496 0 l 1,9,-1
 381 0 l 1,10,-1
 178 550 l 1,11,-1
 178 0 l 1,12,-1
 92 0 l 1,0,-1
EndSplineSet
EndChar

StartChar: N
Encoding: 78 78 13
Width: 743
GlyphClass: 2
Flags: W
AnchorPoint: "Anchor-3" 386 710 basechar 0
AnchorPoint: "Anchor-0" 373 0 basechar 0
LayerCount: 2
Fore
SplineSet
92 0 m 1,0,-1
 92 710 l 1,1,-1
 214 710 l 1,2,-1
 565 86 l 1,3,-1
 565 710 l 1,4,-1
 651 710 l 1,5,-1
 651 0 l 1,6,-1
 523 0 l 1,7,-1
 178 612 l 1,8,-1
 178 0 l 1,9,-1
 92 0 l 1,0,-1
EndSplineSet
EndChar

StartChar: O
Encoding: 79 79 14
Width: 739
GlyphClass: 2
Flags: W
AnchorPoint: "Anchor-3" 369 710 basechar 0
AnchorPoint: "Anchor-1" 370 355 basechar 0
AnchorPoint: "Anchor-0" 369 0 basechar 0
LayerCount: 2
Fore
SplineSet
369 -16 m 0,0,1
 268 -16 268 -16 195.5 28.5 c 128,-1,2
 123 73 123 73 84 156 c 128,-1,3
 45 239 45 239 45 354 c 256,4,5
 45 469 45 469 84 552.5 c 128,-1,6
 123 636 123 636 195.5 681 c 128,-1,7
 268 726 268 726 369 726 c 0,8,9
 471 726 471 726 543.5 681 c 128,-1,10
 616 636 616 636 655 552.5 c 128,-1,11
 694 469 694 469 694 354 c 256,12,13
 694 239 694 239 655 156 c 128,-1,14
 616 73 616 73 543.5 28.5 c 128,-1,15
 471 -16 471 -16 369 -16 c 0,0,1
369 68 m 0,16,17
 479 68 479 68 541.5 143.5 c 128,-1,18
 604 219 604 219 604 354 c 256,19,20
 604 489 604 489 541.5 565.5 c 128,-1,21
 479 642 479 642 369 642 c 0,22,23
 260 642 260 642 197.5 565.5 c 128,-1,24
 135 489 135 489 135 354 c 256,25,26
 135 219 135 219 197.5 143.5 c 128,-1,27
 260 68 260 68 369 68 c 0,16,17
EndSplineSet
Substitution2: "Single Substitution lookup 27 subtable" ordmasculine
Substitution2: "'aalt' Access All Alternates in Latin lookup 0 subtable" ordmasculine
EndChar

StartChar: P
Encoding: 80 80 15
Width: 650
GlyphClass: 2
Flags: W
AnchorPoint: "Anchor-3" 325 710 basechar 0
AnchorPoint: "Anchor-0" 325 0 basechar 0
LayerCount: 2
Fore
SplineSet
92 0 m 1,0,-1
 92 710 l 1,1,-1
 347 710 l 2,2,3
 466 710 466 710 532 653 c 128,-1,4
 598 596 598 596 598 495 c 0,5,6
 598 392 598 392 532 334 c 128,-1,7
 466 276 466 276 347 276 c 2,8,-1
 178 276 l 1,9,-1
 178 0 l 1,10,-1
 92 0 l 1,0,-1
178 360 m 1,11,-1
 347 360 l 2,12,13
 508 360 508 360 508 495 c 0,14,15
 508 626 508 626 347 626 c 2,16,-1
 178 626 l 1,17,-1
 178 360 l 1,11,-1
EndSplineSet
EndChar

StartChar: Q
Encoding: 81 81 16
Width: 733
GlyphClass: 2
Flags: W
AnchorPoint: "Anchor-3" 366 710 basechar 0
AnchorPoint: "Anchor-0" 366 0 basechar 0
LayerCount: 2
Fore
SplineSet
548 -69 m 1,0,-1
 489 7 l 1,1,2
 465 -3 465 -3 433 -9.5 c 128,-1,3
 401 -16 401 -16 366 -16 c 0,4,5
 264 -16 264 -16 192.5 33.5 c 128,-1,6
 121 83 121 83 83 167 c 128,-1,7
 45 251 45 251 45 354 c 0,8,9
 45 458 45 458 82.5 542 c 128,-1,10
 120 626 120 626 192 676 c 128,-1,11
 264 726 264 726 366 726 c 0,12,13
 470 726 470 726 542 676 c 128,-1,14
 614 626 614 626 651 542 c 128,-1,15
 688 458 688 458 688 354 c 0,16,17
 688 256 688 256 653 174 c 128,-1,18
 618 92 618 92 552 42 c 1,19,-1
 640 -69 l 1,20,-1
 548 -69 l 1,0,-1
366 68 m 0,21,22
 388 68 388 68 405 70.5 c 128,-1,23
 422 73 422 73 435 79 c 1,24,-1
 332 208 l 1,25,-1
 424 208 l 1,26,-1
 500 108 l 1,27,28
 598 186 598 186 598 354 c 0,29,30
 598 433 598 433 572.5 498 c 128,-1,31
 547 563 547 563 495.5 602.5 c 128,-1,32
 444 642 444 642 366 642 c 256,33,34
 288 642 288 642 237 602.5 c 128,-1,35
 186 563 186 563 160.5 498 c 128,-1,36
 135 433 135 433 135 354 c 0,37,38
 135 276 135 276 160.5 211 c 128,-1,39
 186 146 186 146 237.5 107 c 128,-1,40
 289 68 289 68 366 68 c 0,21,22
EndSplineSet
EndChar

StartChar: R
Encoding: 82 82 17
Width: 672
GlyphClass: 2
Flags: W
AnchorPoint: "Anchor-3" 337 710 basechar 0
AnchorPoint: "Anchor-0" 350 0 basechar 0
LayerCount: 2
Fore
SplineSet
92 0 m 1,0,-1
 92 710 l 1,1,-1
 361 710 l 2,2,3
 473 710 473 710 538 652 c 128,-1,4
 603 594 603 594 603 495 c 0,5,6
 603 454 603 454 586 420.5 c 128,-1,7
 569 387 569 387 542 364 c 128,-1,8
 515 341 515 341 483 332 c 1,9,10
 530 324 530 324 557.5 294 c 128,-1,11
 585 264 585 264 590 209 c 2,12,-1
 610 0 l 1,13,-1
 523 0 l 1,14,-1
 505 200 l 2,15,16
 501 244 501 244 473.5 265 c 128,-1,17
 446 286 446 286 384 286 c 2,18,-1
 178 286 l 1,19,-1
 178 0 l 1,20,-1
 92 0 l 1,0,-1
178 370 m 1,21,-1
 372 370 l 2,22,23
 437 370 437 370 475 403 c 128,-1,24
 513 436 513 436 513 497 c 0,25,26
 513 559 513 559 474 592.5 c 128,-1,27
 435 626 435 626 361 626 c 2,28,-1
 178 626 l 1,29,-1
 178 370 l 1,21,-1
EndSplineSet
Substitution2: "'ss04' Style Set 4 in Latin lookup 37 subtable" R.ss04
Substitution2: "'aalt' Access All Alternates in Latin lookup 0 subtable" R.ss04
EndChar

StartChar: S
Encoding: 83 83 18
Width: 640
GlyphClass: 2
Flags: W
AnchorPoint: "Anchor-3" 306 710 basechar 0
AnchorPoint: "Anchor-0" 327 0 basechar 0
LayerCount: 2
Fore
SplineSet
336 -16 m 0,0,1
 254 -16 254 -16 193 15 c 128,-1,2
 132 46 132 46 96.5 100.5 c 128,-1,3
 61 155 61 155 55 227 c 1,4,-1
 145 233 l 1,5,6
 156 154 156 154 204.5 111 c 128,-1,7
 253 68 253 68 338 68 c 0,8,9
 412 68 412 68 453.5 96.5 c 128,-1,10
 495 125 495 125 495 180 c 0,11,12
 495 213 495 213 479.5 238.5 c 128,-1,13
 464 264 464 264 420.5 285.5 c 128,-1,14
 377 307 377 307 292 328 c 0,15,16
 210 349 210 349 161.5 374 c 128,-1,17
 113 399 113 399 91.5 435 c 128,-1,18
 70 471 70 471 70 524 c 0,19,20
 70 584 70 584 98.5 629.5 c 128,-1,21
 127 675 127 675 180 700.5 c 128,-1,22
 233 726 233 726 306 726 c 0,23,24
 384 726 384 726 440 696.5 c 128,-1,25
 496 667 496 667 529 616 c 128,-1,26
 562 565 562 565 570 500 c 1,27,-1
 480 494 l 1,28,29
 471 559 471 559 427.5 600.5 c 128,-1,30
 384 642 384 642 304 642 c 0,31,32
 238 642 238 642 199 610.5 c 128,-1,33
 160 579 160 579 160 528 c 0,34,35
 160 495 160 495 175.5 473.5 c 128,-1,36
 191 452 191 452 231 435.5 c 128,-1,37
 271 419 271 419 346 400 c 0,38,39
 435 378 435 378 487.5 347.5 c 128,-1,40
 540 317 540 317 562.5 277 c 128,-1,41
 585 237 585 237 585 186 c 0,42,43
 585 124 585 124 553 78.5 c 128,-1,44
 521 33 521 33 465 8.5 c 128,-1,45
 409 -16 409 -16 336 -16 c 0,0,1
EndSplineSet
EndChar

StartChar: T
Encoding: 84 84 19
Width: 552
GlyphClass: 2
Flags: W
AnchorPoint: "Anchor-3" 276 710 basechar 0
AnchorPoint: "Anchor-1" 276 348 basechar 0
AnchorPoint: "Anchor-0" 276 0 basechar 0
LayerCount: 2
Fore
SplineSet
233 0 m 1,0,-1
 233 626 l 1,1,-1
 12 626 l 1,2,-1
 12 710 l 1,3,-1
 540 710 l 1,4,-1
 540 626 l 1,5,-1
 319 626 l 1,6,-1
 319 0 l 1,7,-1
 233 0 l 1,0,-1
EndSplineSet
EndChar

StartChar: U
Encoding: 85 85 20
Width: 689
GlyphClass: 2
Flags: W
AnchorPoint: "Anchor-3" 345 710 basechar 0
AnchorPoint: "Anchor-2" 457 3 basechar 0
AnchorPoint: "Anchor-0" 345 0 basechar 0
LayerCount: 2
Fore
SplineSet
345 -16 m 256,0,1
 263 -16 263 -16 202.5 16 c 128,-1,2
 142 48 142 48 109.5 107.5 c 128,-1,3
 77 167 77 167 77 248 c 2,4,-1
 77 711 l 1,5,-1
 163 711 l 1,6,-1
 163 248 l 2,7,8
 163 162 163 162 210.5 115 c 128,-1,9
 258 68 258 68 345 68 c 0,10,11
 431 68 431 68 478.5 115 c 128,-1,12
 526 162 526 162 526 248 c 2,13,-1
 526 711 l 1,14,-1
 612 711 l 1,15,-1
 612 248 l 2,16,17
 612 167 612 167 579.5 107.5 c 128,-1,18
 547 48 547 48 487 16 c 128,-1,19
 427 -16 427 -16 345 -16 c 256,0,1
EndSplineSet
EndChar

StartChar: V
Encoding: 86 86 21
Width: 667
GlyphClass: 2
Flags: W
AnchorPoint: "Anchor-3" 334 710 basechar 0
AnchorPoint: "Anchor-0" 334 0 basechar 0
LayerCount: 2
Fore
SplineSet
277 0 m 1,0,-1
 20 710 l 1,1,-1
 114 710 l 1,2,-1
 334 94 l 1,3,-1
 553 710 l 1,4,-1
 647 710 l 1,5,-1
 390 0 l 1,6,-1
 277 0 l 1,0,-1
EndSplineSet
EndChar

StartChar: W
Encoding: 87 87 22
Width: 945
GlyphClass: 2
Flags: W
AnchorPoint: "Anchor-3" 472 710 basechar 0
AnchorPoint: "Anchor-0" 472 0 basechar 0
LayerCount: 2
Fore
SplineSet
225 0 m 1,0,-1
 38 710 l 1,1,-1
 132 710 l 1,2,-1
 278 118 l 1,3,-1
 423 710 l 1,4,-1
 521 710 l 1,5,-1
 667 118 l 1,6,-1
 812 710 l 1,7,-1
 907 710 l 1,8,-1
 720 0 l 1,9,-1
 612 0 l 1,10,-1
 472 550 l 1,11,-1
 332 0 l 1,12,-1
 225 0 l 1,0,-1
EndSplineSet
EndChar

StartChar: X
Encoding: 88 88 23
Width: 606
GlyphClass: 2
Flags: W
AnchorPoint: "Anchor-3" 303 710 basechar 0
AnchorPoint: "Anchor-0" 303 0 basechar 0
LayerCount: 2
Fore
SplineSet
15 0 m 1,0,-1
 248 356 l 1,1,-1
 17 710 l 1,2,-1
 119 710 l 1,3,-1
 304 424 l 1,4,-1
 487 710 l 1,5,-1
 587 710 l 1,6,-1
 356 358 l 1,7,-1
 591 0 l 1,8,-1
 489 0 l 1,9,-1
 302 290 l 1,10,-1
 115 0 l 1,11,-1
 15 0 l 1,0,-1
EndSplineSet
EndChar

StartChar: Y
Encoding: 89 89 24
Width: 576
GlyphClass: 2
Flags: W
AnchorPoint: "Anchor-3" 288 710 basechar 0
AnchorPoint: "Anchor-0" 288 0 basechar 0
LayerCount: 2
Fore
SplineSet
245 0 m 1,0,-1
 245 290 l 1,1,-1
 -6 710 l 1,2,-1
 96 710 l 1,3,-1
 288 378 l 1,4,-1
 480 710 l 1,5,-1
 582 710 l 1,6,-1
 331 290 l 1,7,-1
 331 0 l 1,8,-1
 245 0 l 1,0,-1
EndSplineSet
EndChar

StartChar: Z
Encoding: 90 90 25
Width: 544
GlyphClass: 2
Flags: W
AnchorPoint: "Anchor-3" 280 710 basechar 0
AnchorPoint: "Anchor-0" 280 0 basechar 0
LayerCount: 2
Fore
SplineSet
28 0 m 1,0,-1
 28 88 l 1,1,-1
 408 626 l 1,2,-1
 41 626 l 1,3,-1
 41 710 l 1,4,-1
 506 710 l 1,5,-1
 506 622 l 1,6,-1
 126 84 l 1,7,-1
 516 84 l 1,8,-1
 516 0 l 1,9,-1
 28 0 l 1,0,-1
EndSplineSet
EndChar

StartChar: uniA78B
Encoding: 42891 42891 26
Width: 176
GlyphClass: 1
Flags: W
LayerCount: 2
Fore
SplineSet
57 350 m 1,0,-1
 45 590 l 1,1,-1
 45 710 l 1,2,-1
 131 710 l 1,3,-1
 131 590 l 1,4,-1
 119 350 l 1,5,-1
 57 350 l 1,0,-1
EndSplineSet
EndChar

StartChar: a
Encoding: 97 97 27
Width: 551
GlyphClass: 2
Flags: W
AnchorPoint: "Anchor-3" 278 530 basechar 0
AnchorPoint: "Anchor-2" 532 0 basechar 0
AnchorPoint: "Anchor-0" 267 0 basechar 0
LayerCount: 2
Fore
SplineSet
223 -12 m 0,0,1
 141 -12 141 -12 92.5 26 c 128,-1,2
 44 64 44 64 44 132 c 256,3,4
 44 200 44 200 84 239 c 128,-1,5
 124 278 124 278 211 294 c 2,6,-1
 399 329 l 1,7,8
 399 462 399 462 273 462 c 0,9,10
 218 462 218 462 186 437.5 c 128,-1,11
 154 413 154 413 142 367 c 1,12,-1
 53 374 l 1,13,14
 68 449 68 449 125.5 495.5 c 128,-1,15
 183 542 183 542 273 542 c 0,16,17
 375 542 375 542 429 484.5 c 128,-1,18
 483 427 483 427 483 326 c 2,19,-1
 483 107 l 2,20,21
 483 74 483 74 511 74 c 2,22,-1
 532 74 l 1,23,-1
 532 0 l 1,24,25
 520 -2 520 -2 500 -2 c 0,26,27
 452 -2 452 -2 428.5 17.5 c 128,-1,28
 405 37 405 37 400 82 c 1,29,30
 380 41 380 41 331 14.5 c 128,-1,31
 282 -12 282 -12 223 -12 c 0,0,1
231 62 m 0,32,33
 311 62 311 62 355 107 c 128,-1,34
 399 152 399 152 399 218 c 2,35,-1
 399 256 l 1,36,-1
 227 224 l 2,37,38
 173 214 173 214 152.5 193.5 c 128,-1,39
 132 173 132 173 132 140 c 0,40,41
 132 103 132 103 158.5 82.5 c 128,-1,42
 185 62 185 62 231 62 c 0,32,33
EndSplineSet
Substitution2: "'ss02' Style Set 2 in Latin lookup 35 subtable" a.ss02
Substitution2: "'ss01' Style Set 1 in Latin lookup 34 subtable" a.ss01
Substitution2: "Single Substitution lookup 27 subtable" ordfeminine
AlternateSubs2: "'aalt' Access All Alternates in Latin lookup 1 subtable" ordfeminine a.ss01 a.ss02
EndChar

StartChar: abreve
Encoding: 259 259 28
Width: 551
GlyphClass: 2
Flags: W
AnchorPoint: "Anchor-3" 278 530 basechar 0
AnchorPoint: "Anchor-2" 532 0 basechar 0
AnchorPoint: "Anchor-0" 267 0 basechar 0
LayerCount: 2
Fore
SplineSet
278 603 m 0
 217 603 217 603 179 638 c 0
 141 673 141 673 138 731 c 1
 196 731 l 1
 201 697 201 697 222.5 681 c 0
 244 665 244 665 278 665 c 0
 313 665 313 665 334 681 c 0
 355 697 355 697 359 731 c 1
 417 731 l 1
 414 673 414 673 377 638 c 0
 340 603 340 603 278 603 c 0
EndSplineSet
Refer: 27 97 N 1 0 0 1 0 0 3
Substitution2: "'ss02' Style Set 2 in Latin lookup 35 subtable" abreve.ss02
Substitution2: "'ss01' Style Set 1 in Latin lookup 34 subtable" abreve.ss01
AlternateSubs2: "'aalt' Access All Alternates in Latin lookup 1 subtable" abreve.ss01 abreve.ss02
EndChar

StartChar: agrave
Encoding: 224 224 29
Width: 551
GlyphClass: 2
Flags: W
AnchorPoint: "Anchor-3" 278 530 basechar 0
AnchorPoint: "Anchor-2" 532 0 basechar 0
AnchorPoint: "Anchor-0" 267 0 basechar 0
LayerCount: 2
Fore
SplineSet
247 603 m 1
 157 731 l 1
 251 731 l 1
 317 603 l 1
 247 603 l 1
EndSplineSet
Refer: 27 97 N 1 0 0 1 0 0 3
Substitution2: "'ss02' Style Set 2 in Latin lookup 35 subtable" agrave.ss02
Substitution2: "'ss01' Style Set 1 in Latin lookup 34 subtable" agrave.ss01
AlternateSubs2: "'aalt' Access All Alternates in Latin lookup 1 subtable" agrave.ss01 agrave.ss02
EndChar

StartChar: b
Encoding: 98 98 30
Width: 595
GlyphClass: 2
Flags: W
AnchorPoint: "Anchor-3" 299 530 basechar 0
AnchorPoint: "Anchor-1" 150 265 basechar 0
AnchorPoint: "Anchor-0" 299 0 basechar 0
LayerCount: 2
Fore
SplineSet
323 -12 m 0,0,1
 268 -12 268 -12 225 12.5 c 128,-1,2
 182 37 182 37 159 80 c 1,3,-1
 156 0 l 1,4,-1
 80 0 l 1,5,-1
 80 710 l 1,6,-1
 164 710 l 1,7,-1
 164 456 l 1,8,9
 184 489 184 489 226 515.5 c 128,-1,10
 268 542 268 542 323 542 c 0,11,12
 393 542 393 542 444 508 c 128,-1,13
 495 474 495 474 523 412 c 128,-1,14
 551 350 551 350 551 265 c 256,15,16
 551 180 551 180 523 118 c 128,-1,17
 495 56 495 56 444 22 c 128,-1,18
 393 -12 393 -12 323 -12 c 0,0,1
318 68 m 0,19,20
 385 68 385 68 424 121 c 128,-1,21
 463 174 463 174 463 265 c 0,22,23
 463 357 463 357 424 409.5 c 128,-1,24
 385 462 385 462 320 462 c 0,25,26
 247 462 247 462 205.5 409.5 c 128,-1,27
 164 357 164 357 164 265 c 0,28,29
 164 174 164 174 205 121 c 128,-1,30
 246 68 246 68 318 68 c 0,19,20
EndSplineSet
EndChar

StartChar: c
Encoding: 99 99 31
Width: 546
GlyphClass: 2
Flags: W
AnchorPoint: "Anchor-3" 287 530 basechar 0
AnchorPoint: "Anchor-0" 287 0 basechar 0
LayerCount: 2
Fore
SplineSet
287 -12 m 0,0,1
 213 -12 213 -12 158.5 22 c 128,-1,2
 104 56 104 56 74 118.5 c 128,-1,3
 44 181 44 181 44 265 c 256,4,5
 44 349 44 349 74 411 c 128,-1,6
 104 473 104 473 158.5 507.5 c 128,-1,7
 213 542 213 542 287 542 c 0,8,9
 379 542 379 542 439 494.5 c 128,-1,10
 499 447 499 447 512 358 c 1,11,-1
 424 352 l 1,12,13
 415 405 415 405 378 433.5 c 128,-1,14
 341 462 341 462 287 462 c 0,15,16
 214 462 214 462 173 409.5 c 128,-1,17
 132 357 132 357 132 265 c 256,18,19
 132 173 132 173 173 120.5 c 128,-1,20
 214 68 214 68 287 68 c 0,21,22
 341 68 341 68 378 98 c 128,-1,23
 415 128 415 128 424 188 c 1,24,-1
 512 182 l 1,25,26
 499 94 499 94 439 41 c 128,-1,27
 379 -12 379 -12 287 -12 c 0,0,1
EndSplineSet
EndChar

StartChar: cacute
Encoding: 263 263 32
Width: 546
GlyphClass: 2
Flags: W
AnchorPoint: "Anchor-3" 287 530 basechar 0
AnchorPoint: "Anchor-0" 287 0 basechar 0
LayerCount: 2
Fore
SplineSet
250 598 m 1
 316 726 l 1
 410 726 l 1
 320 598 l 1
 250 598 l 1
EndSplineSet
Refer: 31 99 N 1 0 0 1 0 0 3
EndChar

StartChar: ccedilla
Encoding: 231 231 33
Width: 546
GlyphClass: 2
Flags: W
AnchorPoint: "Anchor-3" 287 530 basechar 0
AnchorPoint: "Anchor-0" 287 0 basechar 0
LayerCount: 2
Fore
SplineSet
277 -220 m 0
 229 -220 229 -220 200 -197.5 c 0
 171 -175 171 -175 160 -142 c 1
 211 -122 l 1
 228 -164 228 -164 275 -164 c 0
 329 -164 329 -164 329 -124 c 0
 329 -105 329 -105 315 -92.5 c 0
 301 -80 301 -80 253 -80 c 1
 225 -50 l 1
 263 10 l 1
 327 10 l 1
 293 -36 l 1
 342 -38 342 -38 365.5 -62.5 c 0
 389 -87 389 -87 389 -126 c 0
 389 -168 389 -168 357.5 -194 c 0
 326 -220 326 -220 277 -220 c 0
EndSplineSet
Refer: 31 99 N 1 0 0 1 0 0 3
EndChar

StartChar: cdotaccent
Encoding: 267 267 34
Width: 546
GlyphClass: 2
Flags: W
AnchorPoint: "Anchor-3" 287 530 basechar 0
AnchorPoint: "Anchor-0" 287 0 basechar 0
LayerCount: 2
Fore
SplineSet
243 613 m 1
 243 711 l 1
 331 711 l 1
 331 613 l 1
 243 613 l 1
EndSplineSet
Refer: 31 99 N 1 0 0 1 0 0 3
Substitution2: "'ss08' Style Set 8 in Latin lookup 41 subtable" cdotaccent.ss08
Substitution2: "'aalt' Access All Alternates in Latin lookup 0 subtable" cdotaccent.ss08
EndChar

StartChar: d
Encoding: 100 100 35
Width: 595
GlyphClass: 2
Flags: W
AnchorPoint: "Anchor-4" 545 530 basechar 0
AnchorPoint: "Anchor-3" 296 530 basechar 0
AnchorPoint: "Anchor-1" 431 616 basechar 0
AnchorPoint: "Anchor-0" 296 0 basechar 0
LayerCount: 2
Fore
SplineSet
268 -12 m 0,0,1
 199 -12 199 -12 148.5 22 c 128,-1,2
 98 56 98 56 71 118 c 128,-1,3
 44 180 44 180 44 265 c 256,4,5
 44 350 44 350 71 412 c 128,-1,6
 98 474 98 474 148.5 508 c 128,-1,7
 199 542 199 542 268 542 c 0,8,9
 321 542 321 542 365 519.5 c 128,-1,10
 409 497 409 497 431 456 c 1,11,-1
 431 710 l 1,12,-1
 515 710 l 1,13,-1
 515 0 l 1,14,-1
 439 0 l 1,15,-1
 436 80 l 1,16,17
 414 37 414 37 369 12.5 c 128,-1,18
 324 -12 324 -12 268 -12 c 0,0,1
285 68 m 0,19,20
 356 68 356 68 393.5 121 c 128,-1,21
 431 174 431 174 431 265 c 0,22,23
 431 357 431 357 393.5 409.5 c 128,-1,24
 356 462 356 462 285 462 c 0,25,26
 215 462 215 462 173.5 409.5 c 128,-1,27
 132 357 132 357 132 265 c 0,28,29
 132 174 132 174 173.5 121 c 128,-1,30
 215 68 215 68 285 68 c 0,19,20
EndSplineSet
EndChar

StartChar: dcaron
Encoding: 271 271 36
Width: 662
GlyphClass: 2
Flags: W
AnchorPoint: "Anchor-4" 545 530 basechar 0
AnchorPoint: "Anchor-3" 296 530 basechar 0
AnchorPoint: "Anchor-1" 431 616 basechar 0
AnchorPoint: "Anchor-0" 296 0 basechar 0
LayerCount: 2
Fore
SplineSet
568 455 m 1
 598 710 l 1
 682 710 l 1
 630 455 l 1
 568 455 l 1
EndSplineSet
Refer: 35 100 N 1 0 0 1 0 0 2
EndChar

StartChar: dcroat
Encoding: 273 273 37
Width: 595
GlyphClass: 2
Flags: W
AnchorPoint: "Anchor-4" 545 530 basechar 0
AnchorPoint: "Anchor-3" 296 530 basechar 0
AnchorPoint: "Anchor-1" 431 616 basechar 0
AnchorPoint: "Anchor-0" 296 0 basechar 0
LayerCount: 2
Fore
SplineSet
281 582 m 1
 281 650 l 1
 581 650 l 1
 581 582 l 1
 281 582 l 1
EndSplineSet
Refer: 35 100 N 1 0 0 1 0 0 3
EndChar

StartChar: e
Encoding: 101 101 38
Width: 561
GlyphClass: 2
Flags: W
AnchorPoint: "Anchor-3" 287 528 basechar 0
AnchorPoint: "Anchor-2" 416 24 basechar 0
AnchorPoint: "Anchor-0" 287 0 basechar 0
LayerCount: 2
Fore
SplineSet
287 -12 m 0,0,1
 212 -12 212 -12 157.5 22 c 128,-1,2
 103 56 103 56 73.5 118.5 c 128,-1,3
 44 181 44 181 44 265 c 256,4,5
 44 349 44 349 73.5 411 c 128,-1,6
 103 473 103 473 156.5 507.5 c 128,-1,7
 210 542 210 542 283 542 c 0,8,9
 352 542 352 542 405 509.5 c 128,-1,10
 458 477 458 477 487.5 415 c 128,-1,11
 517 353 517 353 517 264 c 2,12,-1
 517 239 l 1,13,-1
 132 239 l 1,14,15
 137 154 137 154 177.5 111 c 128,-1,16
 218 68 218 68 287 68 c 0,17,18
 339 68 339 68 372.5 92.5 c 128,-1,19
 406 117 406 117 419 157 c 1,20,-1
 509 150 l 1,21,22
 488 79 488 79 429.5 33.5 c 128,-1,23
 371 -12 371 -12 287 -12 c 0,0,1
132 313 m 1,24,-1
 425 313 l 1,25,26
 419 390 419 390 380.5 426 c 128,-1,27
 342 462 342 462 283 462 c 0,28,29
 222 462 222 462 182.5 424.5 c 128,-1,30
 143 387 143 387 132 313 c 1,24,-1
EndSplineSet
EndChar

StartChar: f
Encoding: 102 102 39
Width: 395
GlyphClass: 2
Flags: W
AnchorPoint: "Anchor-3" 199 710 basechar 0
AnchorPoint: "Anchor-0" 199 0 basechar 0
LayerCount: 2
Fore
SplineSet
132 0 m 1,0,-1
 132 456 l 1,1,-1
 60 456 l 1,2,-1
 60 530 l 1,3,-1
 132 530 l 1,4,-1
 132 578 l 2,5,6
 132 637 132 637 166 673.5 c 128,-1,7
 200 710 200 710 272 710 c 2,8,-1
 356 710 l 1,9,-1
 356 636 l 1,10,-1
 278 636 l 2,11,12
 247 636 247 636 231.5 619 c 128,-1,13
 216 602 216 602 216 572 c 2,14,-1
 216 530 l 1,15,-1
 349 530 l 1,16,-1
 349 456 l 1,17,-1
 216 456 l 1,18,-1
 216 0 l 1,19,-1
 132 0 l 1,0,-1
EndSplineSet
EndChar

StartChar: g
Encoding: 103 103 40
Width: 594
GlyphClass: 2
Flags: W
AnchorPoint: "Anchor-3" 283 530 basechar 0
AnchorPoint: "Anchor-0" 281 -150 basechar 0
LayerCount: 2
Fore
SplineSet
281 -162 m 0,0,1
 196 -162 196 -162 136 -120 c 128,-1,2
 76 -78 76 -78 59 -8 c 1,3,-1
 147 -2 l 1,4,5
 159 -39 159 -39 189.5 -60.5 c 128,-1,6
 220 -82 220 -82 281 -82 c 0,7,8
 353 -82 353 -82 391.5 -53 c 128,-1,9
 430 -24 430 -24 430 34 c 2,10,-1
 430 120 l 1,11,12
 411 78 411 78 369 53 c 128,-1,13
 327 28 327 28 275 28 c 0,14,15
 208 28 208 28 155.5 61 c 128,-1,16
 103 94 103 94 73.5 152 c 128,-1,17
 44 210 44 210 44 285 c 0,18,19
 44 361 44 361 73 418.5 c 128,-1,20
 102 476 102 476 153.5 509 c 128,-1,21
 205 542 205 542 271 542 c 0,22,23
 327 542 327 542 371.5 516 c 128,-1,24
 416 490 416 490 434 446 c 1,25,-1
 434 530 l 1,26,-1
 514 530 l 1,27,-1
 514 36 l 2,28,29
 514 -57 514 -57 452.5 -109.5 c 128,-1,30
 391 -162 391 -162 281 -162 c 0,0,1
279 108 m 256,31,32
 347 108 347 108 388 155.5 c 128,-1,33
 429 203 429 203 430 285 c 0,34,35
 432 367 432 367 390 414.5 c 128,-1,36
 348 462 348 462 279 462 c 0,37,38
 209 462 209 462 170.5 414.5 c 128,-1,39
 132 367 132 367 132 285 c 256,40,41
 132 203 132 203 171.5 155.5 c 128,-1,42
 211 108 211 108 279 108 c 256,31,32
EndSplineSet
EndChar

StartChar: h
Encoding: 104 104 41
Width: 581
GlyphClass: 2
Flags: W
AnchorPoint: "Anchor-3" 122 690 basechar 0
AnchorPoint: "Anchor-1" 160 616 basechar 0
AnchorPoint: "Anchor-0" 291 0 basechar 0
LayerCount: 2
Fore
SplineSet
80 0 m 1,0,-1
 80 710 l 1,1,-1
 164 710 l 1,2,-1
 164 447 l 1,3,4
 185 496 185 496 227 519 c 128,-1,5
 269 542 269 542 324 542 c 0,6,7
 410 542 410 542 455.5 486 c 128,-1,8
 501 430 501 430 501 341 c 2,9,-1
 501 0 l 1,10,-1
 417 0 l 1,11,-1
 417 317 l 2,12,13
 417 468 417 468 306 468 c 0,14,15
 242 468 242 468 203 429 c 128,-1,16
 164 390 164 390 164 316 c 2,17,-1
 164 0 l 1,18,-1
 80 0 l 1,0,-1
EndSplineSet
EndChar

StartChar: hbar
Encoding: 295 295 42
Width: 581
GlyphClass: 2
Flags: W
AnchorPoint: "Anchor-3" 122 690 basechar 0
AnchorPoint: "Anchor-1" 160 616 basechar 0
AnchorPoint: "Anchor-0" 291 0 basechar 0
LayerCount: 2
Fore
SplineSet
10 582 m 1
 10 650 l 1
 310 650 l 1
 310 582 l 1
 10 582 l 1
EndSplineSet
Refer: 41 104 N 1 0 0 1 0 0 3
EndChar

StartChar: hcircumflex
Encoding: 293 293 43
Width: 581
GlyphClass: 2
Flags: W
AnchorPoint: "Anchor-3" 122 690 basechar 0
AnchorPoint: "Anchor-1" 160 616 basechar 0
AnchorPoint: "Anchor-0" 291 0 basechar 0
LayerCount: 2
Fore
SplineSet
-15 758 m 1
 75 891 l 1
 169 891 l 1
 259 758 l 1
 189 758 l 1
 122 847 l 1
 55 758 l 1
 -15 758 l 1
EndSplineSet
Refer: 41 104 N 1 0 0 1 0 0 3
EndChar

StartChar: i
Encoding: 105 105 44
Width: 244
GlyphClass: 2
Flags: W
AnchorPoint: "Anchor-3" 122 530 basechar 0
AnchorPoint: "Anchor-2" 164 0 basechar 0
AnchorPoint: "Anchor-0" 122 0 basechar 0
LayerCount: 2
Fore
SplineSet
78 613 m 1
 78 711 l 1
 166 711 l 1
 166 613 l 1
 78 613 l 1
EndSplineSet
Refer: -1 305 N 1 0 0 1 0 0 3
Substitution2: "'ss08' Style Set 8 in Latin lookup 41 subtable" i.ss08
Substitution2: "'locl' Localized Forms in Latin lookup 9 subtable" i.loclTRK
Substitution2: "Single Substitution lookup 3 subtable" dotlessi
AlternateSubs2: "'aalt' Access All Alternates in Latin lookup 1 subtable" i.loclTRK i.ss08
EndChar

StartChar: iacute
Encoding: 237 237 45
Width: 244
GlyphClass: 2
Flags: W
AnchorPoint: "Anchor-3" 122 530 basechar 0
AnchorPoint: "Anchor-2" 164 0 basechar 0
AnchorPoint: "Anchor-0" 122 0 basechar 0
LayerCount: 2
Fore
SplineSet
85 598 m 1
 151 726 l 1
 245 726 l 1
 155 598 l 1
 85 598 l 1
EndSplineSet
Refer: -1 305 N 1 0 0 1 0 0 3
EndChar

StartChar: icircumflex
Encoding: 238 238 46
Width: 244
GlyphClass: 2
Flags: W
AnchorPoint: "Anchor-3" 122 530 basechar 0
AnchorPoint: "Anchor-2" 164 0 basechar 0
AnchorPoint: "Anchor-0" 122 0 basechar 0
LayerCount: 2
Fore
SplineSet
-15 598 m 1
 75 731 l 1
 169 731 l 1
 259 598 l 1
 189 598 l 1
 122 687 l 1
 55 598 l 1
 -15 598 l 1
EndSplineSet
Refer: -1 305 N 1 0 0 1 0 0 3
EndChar

StartChar: igrave
Encoding: 236 236 47
Width: 244
GlyphClass: 2
Flags: W
AnchorPoint: "Anchor-3" 122 530 basechar 0
AnchorPoint: "Anchor-2" 164 0 basechar 0
AnchorPoint: "Anchor-0" 122 0 basechar 0
LayerCount: 2
Fore
SplineSet
91 603 m 1
 1 731 l 1
 95 731 l 1
 161 603 l 1
 91 603 l 1
EndSplineSet
Refer: -1 305 N 1 0 0 1 0 0 3
EndChar

StartChar: j
Encoding: 106 106 48
Width: 260
GlyphClass: 2
Flags: W
AnchorPoint: "Anchor-3" 138 530 basechar 0
AnchorPoint: "Anchor-0" 130 -150 basechar 0
LayerCount: 2
Fore
SplineSet
94 613 m 1
 94 711 l 1
 182 711 l 1
 182 613 l 1
 94 613 l 1
-5 -150 m 1
 -5 -76 l 1
 38 -76 l 2
 64 -76 64 -76 80 -63.5 c 0
 96 -51 96 -51 96 -18 c 2
 96 530 l 1
 180 530 l 1
 180 -22 l 2
 180 -92 180 -92 149 -121 c 0
 118 -150 118 -150 46 -150 c 2
 -5 -150 l 1
EndSplineSet
Substitution2: "'ss08' Style Set 8 in Latin lookup 41 subtable" j.ss08
Substitution2: "Single Substitution lookup 16 subtable" uni006A0301
Substitution2: "Single Substitution lookup 3 subtable" uni0237
AlternateSubs2: "'aalt' Access All Alternates in Latin lookup 1 subtable" uni006A0301 j.ss08
EndChar

StartChar: k
Encoding: 107 107 49
Width: 590
GlyphClass: 2
Flags: W
AnchorPoint: "Anchor-3" 122 670 basechar 0
AnchorPoint: "Anchor-0" 295 0 basechar 0
LayerCount: 2
Fore
SplineSet
80 0 m 1,0,-1
 80 710 l 1,1,-1
 164 710 l 1,2,-1
 164 245 l 1,3,-1
 422 530 l 1,4,-1
 534 530 l 1,5,-1
 325 305 l 1,6,-1
 543 0 l 1,7,-1
 441 0 l 1,8,-1
 268 248 l 1,9,-1
 164 138 l 1,10,-1
 164 0 l 1,11,-1
 80 0 l 1,0,-1
EndSplineSet
EndChar

StartChar: l
Encoding: 108 108 50
Width: 267
GlyphClass: 2
Flags: W
AnchorPoint: "Anchor-4" 194 530 basechar 0
AnchorPoint: "Anchor-3" 122 670 basechar 0
AnchorPoint: "Anchor-1" 121 405 basechar 0
AnchorPoint: "Anchor-0" 165 0 basechar 0
LayerCount: 2
Fore
SplineSet
184 0 m 2,0,1
 138 0 138 0 109 24 c 128,-1,2
 80 48 80 48 80 100 c 2,3,-1
 80 710 l 1,4,-1
 164 710 l 1,5,-1
 164 107 l 2,6,7
 164 74 164 74 197 74 c 2,8,-1
 243 74 l 1,9,-1
 243 0 l 1,10,-1
 184 0 l 2,0,1
EndSplineSet
Substitution2: "'ss03' Style Set 3 in Latin lookup 36 subtable" l.ss03
Substitution2: "'aalt' Access All Alternates in Latin lookup 0 subtable" l.ss03
EndChar

StartChar: m
Encoding: 109 109 51
Width: 877
GlyphClass: 2
Flags: W
AnchorPoint: "Anchor-3" 438 530 basechar 0
AnchorPoint: "Anchor-0" 438 0 basechar 0
LayerCount: 2
Fore
SplineSet
80 0 m 1,0,-1
 80 530 l 1,1,-1
 157 530 l 1,2,-1
 159 437 l 1,3,4
 179 486 179 486 218 514 c 128,-1,5
 257 542 257 542 308 542 c 0,6,7
 368 542 368 542 409 513 c 128,-1,8
 450 484 450 484 467 431 c 1,9,10
 484 484 484 484 524 513 c 128,-1,11
 564 542 564 542 622 542 c 0,12,13
 707 542 707 542 752 489.5 c 128,-1,14
 797 437 797 437 797 341 c 2,15,-1
 797 0 l 1,16,-1
 713 0 l 1,17,-1
 713 323 l 2,18,19
 713 468 713 468 602 468 c 0,20,21
 547 468 547 468 513.5 428 c 128,-1,22
 480 388 480 388 480 317 c 2,23,-1
 480 0 l 1,24,-1
 396 0 l 1,25,-1
 396 317 l 2,26,27
 396 388 396 388 371 428 c 128,-1,28
 346 468 346 468 287 468 c 0,29,30
 232 468 232 468 198 428 c 128,-1,31
 164 388 164 388 164 317 c 2,32,-1
 164 0 l 1,33,-1
 80 0 l 1,0,-1
EndSplineSet
EndChar

StartChar: n
Encoding: 110 110 52
Width: 581
GlyphClass: 2
Flags: W
AnchorPoint: "Anchor-3" 291 530 basechar 0
AnchorPoint: "Anchor-0" 291 0 basechar 0
LayerCount: 2
Fore
SplineSet
80 0 m 1,0,-1
 80 530 l 1,1,-1
 157 530 l 1,2,-1
 159 435 l 1,3,4
 180 490 180 490 223.5 516 c 128,-1,5
 267 542 267 542 322 542 c 0,6,7
 383 542 383 542 422.5 515 c 128,-1,8
 462 488 462 488 481.5 442.5 c 128,-1,9
 501 397 501 397 501 341 c 2,10,-1
 501 0 l 1,11,-1
 417 0 l 1,12,-1
 417 317 l 2,13,14
 417 391 417 391 390.5 429.5 c 128,-1,15
 364 468 364 468 304 468 c 0,16,17
 243 468 243 468 203.5 429.5 c 128,-1,18
 164 391 164 391 164 317 c 2,19,-1
 164 0 l 1,20,-1
 80 0 l 1,0,-1
EndSplineSet
EndChar

StartChar: nacute
Encoding: 324 324 53
Width: 581
GlyphClass: 2
Flags: W
AnchorPoint: "Anchor-3" 291 530 basechar 0
AnchorPoint: "Anchor-0" 291 0 basechar 0
LayerCount: 2
Fore
SplineSet
254 598 m 1
 320 726 l 1
 414 726 l 1
 324 598 l 1
 254 598 l 1
EndSplineSet
Refer: 52 110 N 1 0 0 1 0 0 3
EndChar

StartChar: o
Encoding: 111 111 54
Width: 573
GlyphClass: 2
Flags: W
AnchorPoint: "Anchor-3" 287 530 basechar 0
AnchorPoint: "Anchor-1" 287 265 basechar 0
AnchorPoint: "Anchor-0" 287 0 basechar 0
LayerCount: 2
Fore
SplineSet
287 -12 m 256,0,1
 214 -12 214 -12 159 22 c 128,-1,2
 104 56 104 56 74 118.5 c 128,-1,3
 44 181 44 181 44 265 c 0,4,5
 44 350 44 350 74 412 c 128,-1,6
 104 474 104 474 159 508 c 128,-1,7
 214 542 214 542 287 542 c 256,8,9
 360 542 360 542 414.5 508 c 128,-1,10
 469 474 469 474 499 412 c 128,-1,11
 529 350 529 350 529 265 c 0,12,13
 529 181 529 181 499 118.5 c 128,-1,14
 469 56 469 56 414.5 22 c 128,-1,15
 360 -12 360 -12 287 -12 c 256,0,1
287 68 m 256,16,17
 360 68 360 68 400.5 120.5 c 128,-1,18
 441 173 441 173 441 265 c 256,19,20
 441 357 441 357 400.5 409.5 c 128,-1,21
 360 462 360 462 287 462 c 256,22,23
 214 462 214 462 173 409.5 c 128,-1,24
 132 357 132 357 132 265 c 256,25,26
 132 173 132 173 173 120.5 c 128,-1,27
 214 68 214 68 287 68 c 256,16,17
EndSplineSet
Substitution2: "Single Substitution lookup 27 subtable" ordmasculine
Substitution2: "'aalt' Access All Alternates in Latin lookup 0 subtable" ordmasculine
EndChar

StartChar: p
Encoding: 112 112 55
Width: 595
GlyphClass: 2
Flags: W
AnchorPoint: "Anchor-3" 299 530 basechar 0
AnchorPoint: "Anchor-0" 299 0 basechar 0
LayerCount: 2
Fore
SplineSet
80 -150 m 1,0,-1
 80 530 l 1,1,-1
 158 530 l 1,2,-1
 159 449 l 1,3,4
 183 495 183 495 225.5 518.5 c 128,-1,5
 268 542 268 542 322 542 c 0,6,7
 401 542 401 542 451.5 503 c 128,-1,8
 502 464 502 464 526.5 401 c 128,-1,9
 551 338 551 338 551 265 c 256,10,11
 551 192 551 192 526.5 129 c 128,-1,12
 502 66 502 66 451.5 27 c 128,-1,13
 401 -12 401 -12 322 -12 c 0,14,15
 270 -12 270 -12 227.5 10 c 128,-1,16
 185 32 185 32 164 70 c 1,17,-1
 164 -150 l 1,18,-1
 80 -150 l 1,0,-1
314 68 m 0,19,20
 383 68 383 68 423 120 c 128,-1,21
 463 172 463 172 463 265 c 256,22,23
 463 358 463 358 423 410 c 128,-1,24
 383 462 383 462 314 462 c 256,25,26
 245 462 245 462 204.5 412.5 c 128,-1,27
 164 363 164 363 164 265 c 0,28,29
 164 168 164 168 204 118 c 128,-1,30
 244 68 244 68 314 68 c 0,19,20
EndSplineSet
EndChar

StartChar: q
Encoding: 113 113 56
Width: 595
GlyphClass: 2
Flags: W
AnchorPoint: "Anchor-3" 282 530 basechar 0
AnchorPoint: "Anchor-0" 282 0 basechar 0
LayerCount: 2
Fore
SplineSet
515 -150 m 1,0,-1
 431 -150 l 1,1,-1
 431 70 l 1,2,3
 410 32 410 32 367.5 10 c 128,-1,4
 325 -12 325 -12 273 -12 c 0,5,6
 194 -12 194 -12 143.5 27 c 128,-1,7
 93 66 93 66 68.5 129 c 128,-1,8
 44 192 44 192 44 265 c 256,9,10
 44 338 44 338 68.5 401 c 128,-1,11
 93 464 93 464 143.5 503 c 128,-1,12
 194 542 194 542 273 542 c 0,13,14
 327 542 327 542 369.5 518.5 c 128,-1,15
 412 495 412 495 436 449 c 1,16,-1
 437 530 l 1,17,-1
 515 530 l 1,18,-1
 515 -150 l 1,0,-1
281 68 m 0,19,20
 351 68 351 68 391 118 c 128,-1,21
 431 168 431 168 431 265 c 0,22,23
 431 363 431 363 390.5 412.5 c 128,-1,24
 350 462 350 462 281 462 c 256,25,26
 212 462 212 462 172 410 c 128,-1,27
 132 358 132 358 132 265 c 256,28,29
 132 172 132 172 172 120 c 128,-1,30
 212 68 212 68 281 68 c 0,19,20
EndSplineSet
EndChar

StartChar: r
Encoding: 114 114 57
Width: 379
GlyphClass: 2
Flags: W
AnchorPoint: "Anchor-3" 196 530 basechar 0
AnchorPoint: "Anchor-0" 122 0 basechar 0
LayerCount: 2
Fore
SplineSet
80 0 m 1,0,-1
 80 530 l 1,1,-1
 154 530 l 1,2,-1
 157 432 l 1,3,4
 184 530 184 530 283 530 c 2,5,-1
 335 530 l 1,6,-1
 335 450 l 1,7,-1
 284 450 l 2,8,9
 164 450 164 450 164 320 c 2,10,-1
 164 0 l 1,11,-1
 80 0 l 1,0,-1
EndSplineSet
EndChar

StartChar: s
Encoding: 115 115 58
Width: 524
GlyphClass: 2
Flags: W
AnchorPoint: "Anchor-3" 257 530 basechar 0
AnchorPoint: "Anchor-0" 265 0 basechar 0
LayerCount: 2
Fore
SplineSet
273 -12 m 0,0,1
 167 -12 167 -12 108.5 38.5 c 128,-1,2
 50 89 50 89 44 167 c 1,3,-1
 132 173 l 1,4,5
 140 125 140 125 173 96.5 c 128,-1,6
 206 68 206 68 273 68 c 0,7,8
 327 68 327 68 359.5 85.5 c 128,-1,9
 392 103 392 103 392 142 c 0,10,11
 392 163 392 163 382 177 c 128,-1,12
 372 191 372 191 343 201.5 c 128,-1,13
 314 212 314 212 257 222 c 0,14,15
 181 236 181 236 137.5 256.5 c 128,-1,16
 94 277 94 277 75.5 307.5 c 128,-1,17
 57 338 57 338 57 380 c 0,18,19
 57 451 57 451 109 496.5 c 128,-1,20
 161 542 161 542 257 542 c 0,21,22
 322 542 322 542 366.5 518.5 c 128,-1,23
 411 495 411 495 436.5 456.5 c 128,-1,24
 462 418 462 418 470 372 c 1,25,-1
 382 366 l 1,26,27
 373 408 373 408 341.5 435 c 128,-1,28
 310 462 310 462 256 462 c 0,29,30
 199 462 199 462 172 440 c 128,-1,31
 145 418 145 418 145 384 c 0,32,33
 145 345 145 345 174 326.5 c 128,-1,34
 203 308 203 308 273 296 c 0,35,36
 354 282 354 282 399 262 c 128,-1,37
 444 242 444 242 462 213 c 128,-1,38
 480 184 480 184 480 142 c 0,39,40
 480 93 480 93 452.5 58.5 c 128,-1,41
 425 24 425 24 378.5 6 c 128,-1,42
 332 -12 332 -12 273 -12 c 0,0,1
EndSplineSet
EndChar

StartChar: t
Encoding: 116 116 59
Width: 392
GlyphClass: 2
Flags: W
AnchorPoint: "Anchor-4" 358 530 basechar 0
AnchorPoint: "Anchor-3" 198 530 basechar 0
AnchorPoint: "Anchor-1" 203 290 basechar 0
AnchorPoint: "Anchor-0" 234 0 basechar 0
LayerCount: 2
Fore
SplineSet
274 0 m 2,0,1
 202 0 202 0 167.5 33 c 128,-1,2
 133 66 133 66 133 136 c 2,3,-1
 133 456 l 1,4,-1
 55 456 l 1,5,-1
 55 530 l 1,6,-1
 133 530 l 1,7,-1
 133 654 l 1,8,-1
 217 654 l 1,9,-1
 217 530 l 1,10,-1
 358 530 l 1,11,-1
 358 456 l 1,12,-1
 217 456 l 1,13,-1
 217 138 l 2,14,15
 217 102 217 102 233 88 c 128,-1,16
 249 74 249 74 282 74 c 2,17,-1
 358 74 l 1,18,-1
 358 0 l 1,19,-1
 274 0 l 2,0,1
EndSplineSet
EndChar

StartChar: u
Encoding: 117 117 60
Width: 575
GlyphClass: 2
Flags: W
AnchorPoint: "Anchor-3" 284 530 basechar 0
AnchorPoint: "Anchor-2" 495 0 basechar 0
AnchorPoint: "Anchor-0" 284 0 basechar 0
LayerCount: 2
Fore
SplineSet
254 -12 m 0,0,1
 175 -12 175 -12 127.5 41.5 c 128,-1,2
 80 95 80 95 80 189 c 2,3,-1
 80 530 l 1,4,-1
 164 530 l 1,5,-1
 164 212 l 2,6,7
 164 135 164 135 191.5 98.5 c 128,-1,8
 219 62 219 62 276 62 c 0,9,10
 339 62 339 62 375 102.5 c 128,-1,11
 411 143 411 143 411 214 c 2,12,-1
 411 530 l 1,13,-1
 495 530 l 1,14,-1
 495 0 l 1,15,-1
 415 0 l 1,16,-1
 415 86 l 1,17,18
 371 -12 371 -12 254 -12 c 0,0,1
EndSplineSet
EndChar

StartChar: v
Encoding: 118 118 61
Width: 536
GlyphClass: 2
Flags: W
AnchorPoint: "Anchor-3" 268 530 basechar 0
AnchorPoint: "Anchor-0" 268 0 basechar 0
LayerCount: 2
Fore
SplineSet
215 0 m 1,0,-1
 22 530 l 1,1,-1
 114 530 l 1,2,-1
 268 86 l 1,3,-1
 422 530 l 1,4,-1
 514 530 l 1,5,-1
 321 0 l 1,6,-1
 215 0 l 1,0,-1
EndSplineSet
EndChar

StartChar: w
Encoding: 119 119 62
Width: 819
GlyphClass: 2
Flags: W
AnchorPoint: "Anchor-3" 410 530 basechar 0
AnchorPoint: "Anchor-0" 410 0 basechar 0
LayerCount: 2
Fore
SplineSet
186 0 m 1,0,-1
 22 530 l 1,1,-1
 114 530 l 1,2,-1
 238 88 l 1,3,-1
 364 530 l 1,4,-1
 454 530 l 1,5,-1
 580 88 l 1,6,-1
 705 530 l 1,7,-1
 797 530 l 1,8,-1
 633 0 l 1,9,-1
 527 0 l 1,10,-1
 409 403 l 1,11,-1
 291 0 l 1,12,-1
 186 0 l 1,0,-1
EndSplineSet
EndChar

StartChar: x
Encoding: 120 120 63
Width: 585
GlyphClass: 2
Flags: W
AnchorPoint: "Anchor-3" 293 530 basechar 0
AnchorPoint: "Anchor-0" 293 0 basechar 0
LayerCount: 2
Fore
SplineSet
47 0 m 1,0,-1
 242 272 l 1,1,-1
 57 530 l 1,2,-1
 155 530 l 1,3,-1
 294 330 l 1,4,-1
 429 530 l 1,5,-1
 529 530 l 1,6,-1
 346 270 l 1,7,-1
 538 0 l 1,8,-1
 440 0 l 1,9,-1
 294 214 l 1,10,-1
 147 0 l 1,11,-1
 47 0 l 1,0,-1
EndSplineSet
EndChar

StartChar: y
Encoding: 121 121 64
Width: 537
GlyphClass: 2
Flags: W
AnchorPoint: "Anchor-3" 269 530 basechar 0
AnchorPoint: "Anchor-0" 172 -150 basechar 0
LayerCount: 2
Fore
SplineSet
103 -150 m 1,0,-1
 103 -76 l 1,1,-1
 164 -76 l 2,2,3
 192 -76 192 -76 205.5 -67.5 c 128,-1,4
 219 -59 219 -59 226 -40 c 2,5,-1
 245 10 l 1,6,-1
 216 10 l 1,7,-1
 22 530 l 1,8,-1
 114 530 l 1,9,-1
 272 88 l 1,10,-1
 423 530 l 1,11,-1
 515 530 l 1,12,-1
 300 -67 l 2,13,14
 285 -110 285 -110 255 -130 c 128,-1,15
 225 -150 225 -150 172 -150 c 2,16,-1
 103 -150 l 1,0,-1
EndSplineSet
EndChar

StartChar: z
Encoding: 122 122 65
Width: 549
GlyphClass: 2
Flags: W
AnchorPoint: "Anchor-3" 276 530 basechar 0
AnchorPoint: "Anchor-0" 276 0 basechar 0
LayerCount: 2
Fore
SplineSet
57 0 m 1,0,-1
 57 84 l 1,1,-1
 392 456 l 1,2,-1
 67 456 l 1,3,-1
 67 530 l 1,4,-1
 484 530 l 1,5,-1
 484 446 l 1,6,-1
 149 74 l 1,7,-1
 492 74 l 1,8,-1
 492 0 l 1,9,-1
 57 0 l 1,0,-1
EndSplineSet
EndChar

StartChar: uniA78C
Encoding: 42892 42892 66
Width: 242
GlyphClass: 1
Flags: W
LayerCount: 2
Fore
SplineSet
92 370 m 1,0,-1
 80 630 l 1,1,-1
 80 710 l 1,2,-1
 162 710 l 1,3,-1
 162 630 l 1,4,-1
 150 370 l 1,5,-1
 92 370 l 1,0,-1
EndSplineSet
EndChar

StartChar: a.ss01
Encoding: 65580 -1 67
Width: 558
GlyphClass: 2
Flags: W
AnchorPoint: "Anchor-3" 265 530 basechar 0
AnchorPoint: "Anchor-2" 478 0 basechar 0
AnchorPoint: "Anchor-0" 263 0 basechar 0
LayerCount: 2
Fore
SplineSet
218 -12 m 0,0,1
 136 -12 136 -12 87.5 26 c 128,-1,2
 39 64 39 64 39 132 c 256,3,4
 39 200 39 200 79 239 c 128,-1,5
 119 278 119 278 206 294 c 2,6,-1
 394 329 l 1,7,8
 394 462 394 462 268 462 c 0,9,10
 213 462 213 462 181 437.5 c 128,-1,11
 149 413 149 413 137 367 c 1,12,-1
 48 374 l 1,13,14
 63 449 63 449 120.5 495.5 c 128,-1,15
 178 542 178 542 268 542 c 0,16,17
 370 542 370 542 424 484.5 c 128,-1,18
 478 427 478 427 478 326 c 2,19,-1
 478 0 l 1,20,-1
 402 0 l 1,21,-1
 400 85 l 1,22,23
 380 42 380 42 328.5 15 c 128,-1,24
 277 -12 277 -12 218 -12 c 0,0,1
226 62 m 0,25,26
 306 62 306 62 350 107 c 128,-1,27
 394 152 394 152 394 218 c 2,28,-1
 394 256 l 1,29,-1
 222 224 l 2,30,31
 168 214 168 214 147.5 193.5 c 128,-1,32
 127 173 127 173 127 140 c 0,33,34
 127 103 127 103 153.5 82.5 c 128,-1,35
 180 62 180 62 226 62 c 0,25,26
EndSplineSet
EndChar

StartChar: aacute.ss01
Encoding: 65581 -1 68
Width: 558
GlyphClass: 2
Flags: W
AnchorPoint: "Anchor-3" 265 530 basechar 0
AnchorPoint: "Anchor-2" 478 0 basechar 0
AnchorPoint: "Anchor-0" 263 0 basechar 0
LayerCount: 2
Fore
SplineSet
228 598 m 1
 294 726 l 1
 388 726 l 1
 298 598 l 1
 228 598 l 1
EndSplineSet
Refer: 67 -1 N 1 0 0 1 0 0 3
EndChar

StartChar: a.ss02
Encoding: 65591 -1 69
Width: 595
GlyphClass: 2
Flags: W
AnchorPoint: "Anchor-3" 285 530 basechar 0
AnchorPoint: "Anchor-2" 515 0 basechar 0
AnchorPoint: "Anchor-0" 282 0 basechar 0
LayerCount: 2
Fore
SplineSet
268 -12 m 0,0,1
 192 -12 192 -12 142.5 26 c 128,-1,2
 93 64 93 64 68.5 127 c 128,-1,3
 44 190 44 190 44 265 c 0,4,5
 44 339 44 339 68 402 c 128,-1,6
 92 465 92 465 141.5 503.5 c 128,-1,7
 191 542 191 542 267 542 c 0,8,9
 326 542 326 542 367.5 519 c 128,-1,10
 409 496 409 496 431 456 c 1,11,-1
 431 530 l 1,12,-1
 515 530 l 1,13,-1
 515 0 l 1,14,-1
 439 0 l 1,15,-1
 436 83 l 1,16,17
 415 39 415 39 372 13.5 c 128,-1,18
 329 -12 329 -12 268 -12 c 0,0,1
285 68 m 0,19,20
 340 68 340 68 371.5 96.5 c 128,-1,21
 403 125 403 125 417 170.5 c 128,-1,22
 431 216 431 216 431 265 c 0,23,24
 431 317 431 317 417 361.5 c 128,-1,25
 403 406 403 406 371.5 434 c 128,-1,26
 340 462 340 462 285 462 c 0,27,28
 232 462 232 462 198 434.5 c 128,-1,29
 164 407 164 407 148 362.5 c 128,-1,30
 132 318 132 318 132 265 c 0,31,32
 132 215 132 215 147.5 169.5 c 128,-1,33
 163 124 163 124 197 96 c 128,-1,34
 231 68 231 68 285 68 c 0,19,20
EndSplineSet
EndChar

StartChar: aacute.ss02
Encoding: 65592 -1 70
Width: 595
GlyphClass: 2
Flags: W
AnchorPoint: "Anchor-3" 285 530 basechar 0
AnchorPoint: "Anchor-2" 515 0 basechar 0
AnchorPoint: "Anchor-0" 282 0 basechar 0
LayerCount: 2
Fore
SplineSet
248 598 m 1
 314 726 l 1
 408 726 l 1
 318 598 l 1
 248 598 l 1
EndSplineSet
Refer: 69 -1 N 1 0 0 1 0 0 3
EndChar

StartChar: agrave.ss02
Encoding: 65597 -1 71
Width: 595
GlyphClass: 2
Flags: W
AnchorPoint: "Anchor-3" 285 530 basechar 0
AnchorPoint: "Anchor-2" 515 0 basechar 0
AnchorPoint: "Anchor-0" 282 0 basechar 0
LayerCount: 2
Fore
SplineSet
254 603 m 1
 164 731 l 1
 258 731 l 1
 324 603 l 1
 254 603 l 1
EndSplineSet
Refer: 69 -1 N 1 0 0 1 0 0 3
EndChar

StartChar: cdotaccent.ss08
Encoding: 65608 -1 72
Width: 546
GlyphClass: 2
Flags: W
AnchorPoint: "Anchor-3" 287 530 basechar 0
AnchorPoint: "Anchor-0" 287 0 basechar 0
LayerCount: 2
Fore
SplineSet
288 610 m 256
 267 610 267 610 253.5 623.5 c 0
 240 637 240 637 240 660 c 0
 240 682 240 682 253.5 696 c 0
 267 710 267 710 288 710 c 256
 309 710 309 710 322.5 696 c 0
 336 682 336 682 336 660 c 0
 336 637 336 637 322.5 623.5 c 0
 309 610 309 610 288 610 c 256
EndSplineSet
Refer: 31 99 N 1 0 0 1 0 0 3
EndChar

StartChar: gdotaccent.ss08
Encoding: 65611 -1 73
Width: 594
GlyphClass: 2
Flags: W
AnchorPoint: "Anchor-3" 283 530 basechar 0
AnchorPoint: "Anchor-0" 281 -150 basechar 0
LayerCount: 2
Fore
SplineSet
284 610 m 256
 263 610 263 610 249.5 623.5 c 0
 236 637 236 637 236 660 c 0
 236 682 236 682 249.5 696 c 0
 263 710 263 710 284 710 c 256
 305 710 305 710 318.5 696 c 0
 332 682 332 682 332 660 c 0
 332 637 332 637 318.5 623.5 c 0
 305 610 305 610 284 610 c 256
EndSplineSet
Refer: 40 103 N 1 0 0 1 0 0 3
EndChar

StartChar: j.ss08
Encoding: 65617 -1 74
Width: 260
GlyphClass: 2
Flags: W
AnchorPoint: "Anchor-3" 138 530 basechar 0
AnchorPoint: "Anchor-0" 130 -150 basechar 0
LayerCount: 2
Fore
SplineSet
139 610 m 256
 118 610 118 610 104.5 623.5 c 0
 91 637 91 637 91 660 c 0
 91 682 91 682 104.5 696 c 0
 118 710 118 710 139 710 c 256
 160 710 160 710 173.5 696 c 0
 187 682 187 682 187 660 c 0
 187 637 187 637 173.5 623.5 c 0
 160 610 160 610 139 610 c 256
-5 -150 m 1
 -5 -76 l 1
 38 -76 l 2
 64 -76 64 -76 80 -63.5 c 0
 96 -51 96 -51 96 -18 c 2
 96 530 l 1
 180 530 l 1
 180 -22 l 2
 180 -92 180 -92 149 -121 c 0
 118 -150 118 -150 46 -150 c 2
 -5 -150 l 1
EndSplineSet
EndChar

StartChar: zdotaccent.ss08
Encoding: 65622 -1 75
Width: 549
GlyphClass: 2
Flags: W
AnchorPoint: "Anchor-3" 276 530 basechar 0
AnchorPoint: "Anchor-0" 276 0 basechar 0
LayerCount: 2
Fore
SplineSet
277 610 m 256
 256 610 256 610 242.5 623.5 c 0
 229 637 229 637 229 660 c 0
 229 682 229 682 242.5 696 c 0
 256 710 256 710 277 710 c 256
 298 710 298 710 311.5 696 c 0
 325 682 325 682 325 660 c 0
 325 637 325 637 311.5 623.5 c 0
 298 610 298 610 277 610 c 256
EndSplineSet
Refer: 65 122 N 1 0 0 1 0 0 3
EndChar

StartChar: fi
Encoding: 64257 64257 76
Width: 623
GlyphClass: 3
LigCaretCntFixed: 1
Flags: W
AnchorPoint: "Anchor-8" 199 710 baselig 0
AnchorPoint: "Anchor-5" 199 0 baselig 0
AnchorPoint: "Anchor-7" 543 0 baselig 1
AnchorPoint: "Anchor-5" 501 0 baselig 1
AnchorPoint: "Anchor-8" 501 530 baselig 1
LayerCount: 2
Fore
SplineSet
457 613 m 1
 457 711 l 1
 545 711 l 1
 545 613 l 1
 457 613 l 1
EndSplineSet
Refer: 39 102 N 1 0 0 1 0 0 2
Refer: -1 305 N 1 0 0 1 379 0 2
Ligature2: "'liga' Standard Ligatures in Latin lookup 33 subtable" f i
MultipleSubs2: "'ccmp' Glyph Composition/Decomposition in Latin lookup 8 subtable" f i
LCarets2: 1 311
EndChar

StartChar: uni0432
Encoding: 1074 1074 79
Width: 592
GlyphClass: 2
Flags: W
AnchorPoint: "Anchor-3" 296 530 basechar 0
LayerCount: 2
Fore
SplineSet
80 0 m 1,0,-1
 80 530 l 1,1,-1
 300 530 l 2,2,3
 392 530 392 530 446 490.5 c 128,-1,4
 500 451 500 451 500 383 c 0,5,6
 500 339 500 339 470 310 c 128,-1,7
 440 281 440 281 387 274 c 1,8,9
 450 267 450 267 486 234 c 128,-1,10
 522 201 522 201 522 150 c 0,11,12
 522 81 522 81 470 40.5 c 128,-1,13
 418 0 418 0 329 0 c 2,14,-1
 80 0 l 1,0,-1
164 306 m 1,15,-1
 300 306 l 2,16,17
 350 306 350 306 380 327 c 128,-1,18
 410 348 410 348 410 383 c 0,19,20
 410 417 410 417 380 436.5 c 128,-1,21
 350 456 350 456 300 456 c 2,22,-1
 164 456 l 1,23,-1
 164 306 l 1,15,-1
164 74 m 1,24,-1
 329 74 l 2,25,26
 376 74 376 74 404 95 c 128,-1,27
 432 116 432 116 432 150 c 0,28,29
 432 188 432 188 404 210 c 128,-1,30
 376 232 376 232 329 232 c 2,31,-1
 164 232 l 1,32,-1
 164 74 l 1,24,-1
EndSplineSet
EndChar

StartChar: uni0437
Encoding: 1079 1079 81
Width: 535
GlyphClass: 1
Flags: W
LayerCount: 2
Fore
SplineSet
268 -12 m 0,0,1
 171 -12 171 -12 112.5 31.5 c 128,-1,2
 54 75 54 75 50 148 c 1,3,-1
 138 152 l 1,4,5
 141 114 141 114 176 91 c 128,-1,6
 211 68 211 68 268 68 c 0,7,8
 327 68 327 68 362 90 c 128,-1,9
 397 112 397 112 397 149 c 0,10,11
 397 193 397 193 364.5 217.5 c 128,-1,12
 332 242 332 242 278 241 c 2,13,-1
 223 240 l 1,14,-1
 223 320 l 1,15,-1
 278 319 l 2,16,17
 324 318 324 318 351.5 338.5 c 128,-1,18
 379 359 379 359 379 393 c 0,19,20
 379 425 379 425 349 443.5 c 128,-1,21
 319 462 319 462 268 462 c 0,22,23
 222 462 222 462 193 445 c 128,-1,24
 164 428 164 428 160 399 c 1,25,-1
 69 404 l 1,26,27
 77 468 77 468 130.5 505 c 128,-1,28
 184 542 184 542 268 542 c 0,29,30
 360 542 360 542 413.5 502 c 128,-1,31
 467 462 467 462 467 393 c 0,32,33
 467 356 467 356 438.5 327 c 128,-1,34
 410 298 410 298 361 285 c 1,35,36
 419 268 419 268 452 231 c 128,-1,37
 485 194 485 194 485 144 c 0,38,39
 485 72 485 72 426.5 30 c 128,-1,40
 368 -12 368 -12 268 -12 c 0,0,1
EndSplineSet
EndChar

StartChar: uni043A
Encoding: 1082 1082 82
Width: 592
GlyphClass: 2
Flags: W
AnchorPoint: "Anchor-3" 290 530 basechar 0
AnchorPoint: "Anchor-0" 296 0 basechar 0
LayerCount: 2
Fore
SplineSet
80 0 m 1,0,-1
 80 530 l 1,1,-1
 166 530 l 1,2,-1
 166 272 l 1,3,-1
 415 530 l 1,4,-1
 533 530 l 1,5,-1
 272 265 l 1,6,-1
 545 0 l 1,7,-1
 425 0 l 1,8,-1
 166 258 l 1,9,-1
 166 0 l 1,10,-1
 80 0 l 1,0,-1
EndSplineSet
EndChar

StartChar: uni043C
Encoding: 1084 1084 83
Width: 718
GlyphClass: 1
Flags: W
LayerCount: 2
Fore
SplineSet
80 0 m 1,0,-1
 80 530 l 1,1,-1
 196 530 l 1,2,-1
 360 88 l 1,3,-1
 523 530 l 1,4,-1
 638 530 l 1,5,-1
 638 0 l 1,6,-1
 554 0 l 1,7,-1
 554 374 l 1,8,-1
 412 0 l 1,9,-1
 307 0 l 1,10,-1
 164 374 l 1,11,-1
 164 0 l 1,12,-1
 80 0 l 1,0,-1
EndSplineSet
EndChar

StartChar: uni043D
Encoding: 1085 1085 84
Width: 578
GlyphClass: 2
Flags: W
LayerCount: 2
Fore
SplineSet
80 0 m 1,0,-1
 80 530 l 1,1,-1
 164 530 l 1,2,-1
 164 301 l 1,3,-1
 414 301 l 1,4,-1
 414 530 l 1,5,-1
 498 530 l 1,6,-1
 498 0 l 1,7,-1
 414 0 l 1,8,-1
 414 227 l 1,9,-1
 164 227 l 1,10,-1
 164 0 l 1,11,-1
 80 0 l 1,0,-1
EndSplineSet
EndChar

StartChar: uni0442
Encoding: 1090 1090 88
Width: 558
GlyphClass: 2
Flags: W
AnchorPoint: "Anchor-3" 281 530 basechar 0
AnchorPoint: "Anchor-0" 281 0 basechar 0
LayerCount: 2
Fore
SplineSet
238 0 m 1,0,-1
 238 456 l 1,1,-1
 47 456 l 1,2,-1
 47 530 l 1,3,-1
 514 530 l 1,4,-1
 514 456 l 1,5,-1
 323 456 l 1,6,-1
 323 0 l 1,7,-1
 238 0 l 1,0,-1
EndSplineSet
EndChar

StartChar: uni0447
Encoding: 1095 1095 91
Width: 601
GlyphClass: 2
Flags: W
AnchorPoint: "Anchor-3" 301 530 basechar 0
LayerCount: 2
Fore
SplineSet
437 0 m 1,0,-1
 437 257 l 1,1,2
 419 213 419 213 377 185.5 c 128,-1,3
 335 158 335 158 281 158 c 0,4,5
 189 158 189 158 134.5 220 c 128,-1,6
 80 282 80 282 80 388 c 2,7,-1
 80 530 l 1,8,-1
 164 530 l 1,9,-1
 164 388 l 2,10,11
 164 319 164 319 196 278.5 c 128,-1,12
 228 238 228 238 281 238 c 0,13,14
 353 238 353 238 395 278.5 c 128,-1,15
 437 319 437 319 437 389 c 2,16,-1
 437 530 l 1,17,-1
 521 530 l 1,18,-1
 521 0 l 1,19,-1
 437 0 l 1,0,-1
EndSplineSet
EndChar

StartChar: uni0454
Encoding: 1108 1108 93
Width: 565
GlyphClass: 2
Flags: W
AnchorPoint: "Anchor-3" 279 530 basechar 0
LayerCount: 2
Fore
SplineSet
287 -12 m 0,0,1
 214 -12 214 -12 159 22 c 128,-1,2
 104 56 104 56 74 118.5 c 128,-1,3
 44 181 44 181 44 265 c 0,4,5
 44 350 44 350 74 412 c 128,-1,6
 104 474 104 474 159 508 c 128,-1,7
 214 542 214 542 287 542 c 0,8,9
 378 542 378 542 440 489.5 c 128,-1,10
 502 437 502 437 521 345 c 1,11,-1
 431 345 l 1,12,13
 416 401 416 401 379 431.5 c 128,-1,14
 342 462 342 462 287 462 c 0,15,16
 221 462 221 462 181.5 420 c 128,-1,17
 142 378 142 378 134 302 c 1,18,-1
 311 302 l 1,19,-1
 311 228 l 1,20,-1
 134 228 l 1,21,22
 142 152 142 152 181.5 110 c 128,-1,23
 221 68 221 68 287 68 c 0,24,25
 341 68 341 68 378 98 c 128,-1,26
 415 128 415 128 430 182 c 1,27,-1
 520 182 l 1,28,29
 501 91 501 91 439 39.5 c 128,-1,30
 377 -12 377 -12 287 -12 c 0,0,1
EndSplineSet
EndChar

StartChar: uni0456
Encoding: 1110 1110 94
Width: 244
GlyphClass: 2
Flags: W
AnchorPoint: "Anchor-3" 122 530 basechar 0
AnchorPoint: "Anchor-2" 164 0 basechar 0
AnchorPoint: "Anchor-0" 122 0 basechar 0
LayerCount: 2
Fore
SplineSet
78 613 m 1
 78 711 l 1
 166 711 l 1
 166 613 l 1
 78 613 l 1
EndSplineSet
Refer: -1 305 N 1 0 0 1 0 0 3
Substitution2: "'ss08' Style Set 8 in Latin lookup 41 subtable" uni0456.ss08
Substitution2: "'aalt' Access All Alternates in Latin lookup 0 subtable" uni0456.ss08
EndChar

StartChar: uni0458
Encoding: 1112 1112 95
Width: 260
GlyphClass: 2
Flags: W
AnchorPoint: "Anchor-3" 138 530 basechar 0
AnchorPoint: "Anchor-0" 130 -150 basechar 0
LayerCount: 2
Fore
SplineSet
94 613 m 1
 94 711 l 1
 182 711 l 1
 182 613 l 1
 94 613 l 1
-5 -150 m 1
 -5 -76 l 1
 38 -76 l 2
 64 -76 64 -76 80 -63.5 c 0
 96 -51 96 -51 96 -18 c 2
 96 530 l 1
 180 530 l 1
 180 -22 l 2
 180 -92 180 -92 149 -121 c 0
 118 -150 118 -150 46 -150 c 2
 -5 -150 l 1
EndSplineSet
EndChar

StartChar: uni045B
Encoding: 1115 1115 96
Width: 581
GlyphClass: 2
Flags: W
AnchorPoint: "Anchor-3" 122 690 basechar 0
AnchorPoint: "Anchor-1" 160 616 basechar 0
AnchorPoint: "Anchor-0" 291 0 basechar 0
LayerCount: 2
Fore
SplineSet
10 582 m 1
 10 650 l 1
 310 650 l 1
 310 582 l 1
 10 582 l 1
EndSplineSet
Refer: 41 104 N 1 0 0 1 0 0 3
EndChar

StartChar: uni0452
Encoding: 1106 1106 97
Width: 616
GlyphClass: 2
Flags: W
AnchorPoint: "Anchor-3" 157 710 basechar 0
LayerCount: 2
Fore
SplineSet
115 0 m 1,0,-1
 115 584 l 1,1,-1
 60 584 l 1,2,-1
 60 658 l 1,3,-1
 115 658 l 1,4,-1
 115 710 l 1,5,-1
 199 710 l 1,6,-1
 199 658 l 1,7,-1
 314 658 l 1,8,-1
 314 584 l 1,9,-1
 199 584 l 1,10,-1
 199 458 l 1,11,12
 222 501 222 501 265 521.5 c 128,-1,13
 308 542 308 542 357 542 c 0,14,15
 440 542 440 542 488 487.5 c 128,-1,16
 536 433 536 433 536 341 c 2,17,-1
 536 -3 l 2,18,19
 536 -70 536 -70 502.5 -110 c 128,-1,20
 469 -150 469 -150 402 -150 c 2,21,-1
 351 -150 l 1,22,-1
 351 -76 l 1,23,-1
 392 -76 l 2,24,25
 420 -76 420 -76 436 -56.5 c 128,-1,26
 452 -37 452 -37 452 -3 c 2,27,-1
 452 311 l 2,28,29
 452 462 452 462 339 462 c 0,30,31
 276 462 276 462 237.5 423.5 c 128,-1,32
 199 385 199 385 199 311 c 2,33,-1
 199 0 l 1,34,-1
 115 0 l 1,0,-1
EndSplineSet
EndChar

StartChar: uni0473
Encoding: 1139 1139 98
Width: 573
GlyphClass: 2
Flags: W
AnchorPoint: "Anchor-3" 287 530 basechar 0
AnchorPoint: "Anchor-1" 287 265 basechar 0
AnchorPoint: "Anchor-0" 287 0 basechar 0
LayerCount: 2
Fore
SplineSet
287 -12 m 256,0,1
 214 -12 214 -12 159 22 c 128,-1,2
 104 56 104 56 74 118.5 c 128,-1,3
 44 181 44 181 44 265 c 0,4,5
 44 350 44 350 74 412 c 128,-1,6
 104 474 104 474 159 508 c 128,-1,7
 214 542 214 542 287 542 c 256,8,9
 360 542 360 542 414.5 508 c 128,-1,10
 469 474 469 474 499 412 c 128,-1,11
 529 350 529 350 529 265 c 0,12,13
 529 181 529 181 499 118.5 c 128,-1,14
 469 56 469 56 414.5 22 c 128,-1,15
 360 -12 360 -12 287 -12 c 256,0,1
275 308 m 0,16,17
 325 285 325 285 350.5 275.5 c 128,-1,18
 376 266 376 266 391 264.5 c 128,-1,19
 406 263 406 263 425 263 c 0,20,21
 433 263 433 263 441 265 c 1,22,-1
 441 265 l 1,23,24
 441 357 441 357 400.5 409.5 c 128,-1,25
 360 462 360 462 287 462 c 0,26,27
 227 462 227 462 188.5 426.5 c 128,-1,28
 150 391 150 391 137 327 c 1,29,30
 146 328 146 328 156 329 c 0,31,32
 182 331 182 331 215 326 c 128,-1,33
 248 321 248 321 275 308 c 0,16,17
287 68 m 0,34,35
 343 68 343 68 380.5 99.5 c 128,-1,36
 418 131 418 131 432 189 c 1,37,38
 415 189 415 189 398.5 191 c 128,-1,39
 382 193 382 193 356 202 c 128,-1,40
 330 211 330 211 281 233 c 0,41,42
 252 247 252 247 220 252 c 128,-1,43
 188 257 188 257 164 256 c 0,44,45
 148 256 148 256 132 250 c 1,46,47
 136 164 136 164 176.5 116 c 128,-1,48
 217 68 217 68 287 68 c 0,34,35
EndSplineSet
EndChar

StartChar: uni0475
Encoding: 1141 1141 99
Width: 587
GlyphClass: 2
Flags: W
AnchorPoint: "Anchor-3" 268 530 basechar 0
LayerCount: 2
Fore
SplineSet
215 0 m 1,0,-1
 22 530 l 1,1,-1
 112 530 l 1,2,-1
 268 88 l 1,3,-1
 381 410 l 2,4,5
 401 468 401 468 443 499 c 128,-1,6
 485 530 485 530 542 530 c 2,7,-1
 565 530 l 1,8,-1
 565 456 l 1,9,-1
 555 456 l 2,10,11
 487 456 487 456 460 382 c 2,12,-1
 321 0 l 1,13,-1
 215 0 l 1,0,-1
EndSplineSet
EndChar

StartChar: uni0456.ss08
Encoding: 65636 -1 101
Width: 244
GlyphClass: 2
Flags: W
AnchorPoint: "Anchor-3" 122 530 basechar 0
AnchorPoint: "Anchor-2" 164 0 basechar 0
AnchorPoint: "Anchor-0" 122 0 basechar 0
LayerCount: 2
Fore
SplineSet
123 610 m 256
 102 610 102 610 88.5 623.5 c 0
 75 637 75 637 75 660 c 0
 75 682 75 682 88.5 696 c 0
 102 710 102 710 123 710 c 256
 144 710 144 710 157.5 696 c 0
 171 682 171 682 171 660 c 0
 171 637 171 637 157.5 623.5 c 0
 144 610 144 610 123 610 c 256
EndSplineSet
Refer: -1 305 N 1 0 0 1 0 0 3
EndChar

StartChar: zero
Encoding: 48 48 102
Width: 663
GlyphClass: 1
Flags: W
LayerCount: 2
Fore
SplineSet
331 -16 m 0,0,1
 245 -16 245 -16 182 29 c 128,-1,2
 119 74 119 74 84.5 157 c 128,-1,3
 50 240 50 240 50 354 c 256,4,5
 50 468 50 468 84.5 551.5 c 128,-1,6
 119 635 119 635 182 680.5 c 128,-1,7
 245 726 245 726 331 726 c 0,8,9
 418 726 418 726 481 680.5 c 128,-1,10
 544 635 544 635 578.5 552 c 128,-1,11
 613 469 613 469 613 354 c 0,12,13
 613 240 613 240 578.5 157 c 128,-1,14
 544 74 544 74 481 29 c 128,-1,15
 418 -16 418 -16 331 -16 c 0,0,1
331 68 m 0,16,17
 423 68 423 68 473 142.5 c 128,-1,18
 523 217 523 217 523 354 c 0,19,20
 523 492 523 492 473 567 c 128,-1,21
 423 642 423 642 331 642 c 0,22,23
 240 642 240 642 190 567 c 128,-1,24
 140 492 140 492 140 354 c 0,25,26
 140 217 140 217 190 142.5 c 128,-1,27
 240 68 240 68 331 68 c 0,16,17
EndSplineSet
Substitution2: "'ss09' Style Set 9 in Latin lookup 42 subtable" zero.ss09
Substitution2: "'tnum' Tabular Numbers in Latin lookup 30 subtable" zero.tf
Substitution2: "'frac' Diagonal Fractions in Latin lookup 23 subtable" zero.numr
Substitution2: "'dnom' Denominators in Latin lookup 21 subtable" zero.dnom
Substitution2: "'numr' Numerators in Latin lookup 20 subtable" zero.numr
Substitution2: "'sups' Superscript in Latin lookup 19 subtable" uni2070
Substitution2: "'sinf' Scientific Inferiors in Latin lookup 18 subtable" uni2080
Substitution2: "'subs' Subscript in Latin lookup 17 subtable" uni2080
AlternateSubs2: "'aalt' Access All Alternates in Latin lookup 1 subtable" uni2080 uni2070 zero.numr zero.dnom zero.tf zero.ss09
EndChar

StartChar: one
Encoding: 49 49 103
Width: 384
GlyphClass: 1
Flags: W
LayerCount: 2
Fore
SplineSet
188 0 m 1,0,-1
 188 526 l 1,1,-1
 40 526 l 1,2,-1
 40 600 l 1,3,-1
 100 600 l 2,4,5
 159 600 159 600 182.5 623.5 c 128,-1,6
 206 647 206 647 206 710 c 1,7,-1
 274 710 l 1,8,-1
 274 0 l 1,9,-1
 188 0 l 1,0,-1
EndSplineSet
Substitution2: "'ss09' Style Set 9 in Latin lookup 42 subtable" one.ss09
Substitution2: "'tnum' Tabular Numbers in Latin lookup 30 subtable" one.tf
Substitution2: "'frac' Diagonal Fractions in Latin lookup 23 subtable" one.numr
Substitution2: "'dnom' Denominators in Latin lookup 21 subtable" one.dnom
Substitution2: "'numr' Numerators in Latin lookup 20 subtable" one.numr
Substitution2: "'sups' Superscript in Latin lookup 19 subtable" uni00B9
Substitution2: "'sinf' Scientific Inferiors in Latin lookup 18 subtable" uni2081
Substitution2: "'subs' Subscript in Latin lookup 17 subtable" uni2081
AlternateSubs2: "'aalt' Access All Alternates in Latin lookup 1 subtable" uni2081 uni00B9 one.numr one.dnom one.tf one.ss09
EndChar

StartChar: two
Encoding: 50 50 104
Width: 619
GlyphClass: 1
Flags: W
LayerCount: 2
Fore
SplineSet
60 0 m 1,0,1
 60 75 60 75 83.5 135.5 c 128,-1,2
 107 196 107 196 166.5 251 c 128,-1,3
 226 306 226 306 332 362 c 0,4,5
 381 388 381 388 411 410 c 128,-1,6
 441 432 441 432 455 457 c 128,-1,7
 469 482 469 482 469 518 c 0,8,9
 469 573 469 573 433.5 607.5 c 128,-1,10
 398 642 398 642 327 642 c 0,11,12
 252 642 252 642 208.5 603 c 128,-1,13
 165 564 165 564 154 492 c 1,14,-1
 64 498 l 1,15,16
 76 602 76 602 144 664 c 128,-1,17
 212 726 212 726 327 726 c 0,18,19
 437 726 437 726 498 669 c 128,-1,20
 559 612 559 612 559 520 c 0,21,22
 559 466 559 466 541 426.5 c 128,-1,23
 523 387 523 387 480.5 353 c 128,-1,24
 438 319 438 319 364 280 c 0,25,26
 268 229 268 229 218.5 177 c 128,-1,27
 169 125 169 125 166 84 c 1,28,-1
 559 84 l 1,29,-1
 559 0 l 1,30,-1
 60 0 l 1,0,1
EndSplineSet
Substitution2: "'tnum' Tabular Numbers in Latin lookup 30 subtable" two.tf
Substitution2: "'frac' Diagonal Fractions in Latin lookup 23 subtable" two.numr
Substitution2: "'dnom' Denominators in Latin lookup 21 subtable" two.dnom
Substitution2: "'numr' Numerators in Latin lookup 20 subtable" two.numr
Substitution2: "'sups' Superscript in Latin lookup 19 subtable" uni00B2
Substitution2: "'sinf' Scientific Inferiors in Latin lookup 18 subtable" uni2082
Substitution2: "'subs' Subscript in Latin lookup 17 subtable" uni2082
AlternateSubs2: "'aalt' Access All Alternates in Latin lookup 1 subtable" uni2082 uni00B2 two.numr two.dnom two.tf
EndChar

StartChar: three
Encoding: 51 51 105
Width: 613
GlyphClass: 1
Flags: W
LayerCount: 2
Fore
SplineSet
301 -16 m 0,0,1
 183 -16 183 -16 119 39.5 c 128,-1,2
 55 95 55 95 50 183 c 1,3,-1
 139 189 l 1,4,5
 145 124 145 124 189.5 96 c 128,-1,6
 234 68 234 68 301 68 c 0,7,8
 347 68 347 68 386 80.5 c 128,-1,9
 425 93 425 93 449 121.5 c 128,-1,10
 473 150 473 150 473 198 c 0,11,12
 473 269 473 269 426 302 c 128,-1,13
 379 335 379 335 302 335 c 2,14,-1
 246 335 l 1,15,-1
 246 419 l 1,16,-1
 302 419 l 2,17,18
 365 419 365 419 406.5 444 c 128,-1,19
 448 469 448 469 448 530 c 0,20,21
 448 642 448 642 306 642 c 0,22,23
 236 642 236 642 200.5 615 c 128,-1,24
 165 588 165 588 158 541 c 1,25,-1
 68 547 l 1,26,27
 78 627 78 627 139 676.5 c 128,-1,28
 200 726 200 726 306 726 c 0,29,30
 414 726 414 726 476 674.5 c 128,-1,31
 538 623 538 623 538 534 c 0,32,33
 538 420 538 420 415 382 c 1,34,35
 484 363 484 363 523.5 314.5 c 128,-1,36
 563 266 563 266 563 198 c 256,37,38
 563 130 563 130 529.5 82 c 128,-1,39
 496 34 496 34 437 9 c 128,-1,40
 378 -16 378 -16 301 -16 c 0,0,1
EndSplineSet
Substitution2: "'tnum' Tabular Numbers in Latin lookup 30 subtable" three.tf
Substitution2: "'frac' Diagonal Fractions in Latin lookup 23 subtable" three.numr
Substitution2: "'dnom' Denominators in Latin lookup 21 subtable" three.dnom
Substitution2: "'numr' Numerators in Latin lookup 20 subtable" three.numr
Substitution2: "'sups' Superscript in Latin lookup 19 subtable" uni00B3
Substitution2: "'sinf' Scientific Inferiors in Latin lookup 18 subtable" uni2083
Substitution2: "'subs' Subscript in Latin lookup 17 subtable" uni2083
AlternateSubs2: "'aalt' Access All Alternates in Latin lookup 1 subtable" uni2083 uni00B3 three.numr three.dnom three.tf
EndChar

StartChar: four
Encoding: 52 52 106
Width: 615
GlyphClass: 1
Flags: W
LayerCount: 2
Fore
SplineSet
391 0 m 1,0,-1
 391 154 l 1,1,-1
 30 154 l 1,2,-1
 30 232 l 1,3,-1
 385 710 l 1,4,-1
 477 710 l 1,5,-1
 477 238 l 1,6,-1
 565 238 l 1,7,-1
 565 154 l 1,8,-1
 477 154 l 1,9,-1
 477 0 l 1,10,-1
 391 0 l 1,0,-1
134 238 m 1,11,-1
 391 238 l 1,12,-1
 391 578 l 1,13,-1
 134 238 l 1,11,-1
EndSplineSet
Substitution2: "'tnum' Tabular Numbers in Latin lookup 30 subtable" four.tf
Substitution2: "'frac' Diagonal Fractions in Latin lookup 23 subtable" four.numr
Substitution2: "'dnom' Denominators in Latin lookup 21 subtable" four.dnom
Substitution2: "'numr' Numerators in Latin lookup 20 subtable" four.numr
Substitution2: "'sups' Superscript in Latin lookup 19 subtable" uni2074
Substitution2: "'sinf' Scientific Inferiors in Latin lookup 18 subtable" uni2084
Substitution2: "'subs' Subscript in Latin lookup 17 subtable" uni2084
AlternateSubs2: "'aalt' Access All Alternates in Latin lookup 1 subtable" uni2084 uni2074 four.numr four.dnom four.tf
EndChar

StartChar: five
Encoding: 53 53 107
Width: 626
GlyphClass: 1
Flags: W
LayerCount: 2
Fore
SplineSet
312 -16 m 0,0,1
 200 -16 200 -16 134 39.5 c 128,-1,2
 68 95 68 95 60 183 c 1,3,-1
 150 189 l 1,4,5
 158 129 158 129 201.5 98.5 c 128,-1,6
 245 68 245 68 312 68 c 0,7,8
 387 68 387 68 431 110.5 c 128,-1,9
 475 153 475 153 475 228 c 256,10,11
 475 303 475 303 431.5 347 c 128,-1,12
 388 391 388 391 310 391 c 0,13,14
 261 391 261 391 221 370 c 128,-1,15
 181 349 181 349 164 311 c 1,16,-1
 72 311 l 1,17,-1
 119 710 l 1,18,-1
 517 710 l 1,19,-1
 517 626 l 1,20,-1
 198 626 l 1,21,-1
 172 412 l 1,22,23
 199 442 199 442 239.5 457.5 c 128,-1,24
 280 473 280 473 326 473 c 0,25,26
 397 473 397 473 451 441.5 c 128,-1,27
 505 410 505 410 535 354.5 c 128,-1,28
 565 299 565 299 565 228 c 256,29,30
 565 157 565 157 533 101.5 c 128,-1,31
 501 46 501 46 444 15 c 128,-1,32
 387 -16 387 -16 312 -16 c 0,0,1
EndSplineSet
Substitution2: "'tnum' Tabular Numbers in Latin lookup 30 subtable" five.tf
Substitution2: "'frac' Diagonal Fractions in Latin lookup 23 subtable" five.numr
Substitution2: "'dnom' Denominators in Latin lookup 21 subtable" five.dnom
Substitution2: "'numr' Numerators in Latin lookup 20 subtable" five.numr
Substitution2: "'sups' Superscript in Latin lookup 19 subtable" uni2075
Substitution2: "'sinf' Scientific Inferiors in Latin lookup 18 subtable" uni2085
Substitution2: "'subs' Subscript in Latin lookup 17 subtable" uni2085
AlternateSubs2: "'aalt' Access All Alternates in Latin lookup 1 subtable" uni2085 uni2075 five.numr five.dnom five.tf
EndChar

StartChar: six
Encoding: 54 54 108
Width: 624
GlyphClass: 1
Flags: W
LayerCount: 2
Fore
SplineSet
312 -16 m 0,0,1
 192 -16 192 -16 126 66 c 128,-1,2
 60 148 60 148 60 300 c 0,3,4
 60 388 60 388 74.5 465 c 128,-1,5
 89 542 89 542 121.5 600.5 c 128,-1,6
 154 659 154 659 207.5 692.5 c 128,-1,7
 261 726 261 726 340 726 c 0,8,9
 435 726 435 726 487 679.5 c 128,-1,10
 539 633 539 633 560 558 c 1,11,-1
 470 550 l 1,12,13
 458 592 458 592 428.5 617 c 128,-1,14
 399 642 399 642 340 642 c 0,15,16
 259 642 259 642 209.5 578.5 c 128,-1,17
 160 515 160 515 150 387 c 1,18,19
 176 426 176 426 221.5 452 c 128,-1,20
 267 478 267 478 328 478 c 0,21,22
 398 478 398 478 451 448 c 128,-1,23
 504 418 504 418 533.5 363.5 c 128,-1,24
 563 309 563 309 563 236 c 0,25,26
 563 158 563 158 531 101.5 c 128,-1,27
 499 45 499 45 442.5 14.5 c 128,-1,28
 386 -16 386 -16 312 -16 c 0,0,1
314 68 m 0,29,30
 384 68 384 68 428.5 112.5 c 128,-1,31
 473 157 473 157 473 236 c 0,32,33
 473 310 473 310 431 353 c 128,-1,34
 389 396 389 396 322 396 c 0,35,36
 274 396 274 396 236 376.5 c 128,-1,37
 198 357 198 357 176 321 c 128,-1,38
 154 285 154 285 154 236 c 0,39,40
 154 163 154 163 197.5 115.5 c 128,-1,41
 241 68 241 68 314 68 c 0,29,30
EndSplineSet
Substitution2: "'tnum' Tabular Numbers in Latin lookup 30 subtable" six.tf
Substitution2: "'frac' Diagonal Fractions in Latin lookup 23 subtable" six.numr
Substitution2: "'dnom' Denominators in Latin lookup 21 subtable" six.dnom
Substitution2: "'numr' Numerators in Latin lookup 20 subtable" six.numr
Substitution2: "'sups' Superscript in Latin lookup 19 subtable" uni2076
Substitution2: "'sinf' Scientific Inferiors in Latin lookup 18 subtable" uni2086
Substitution2: "'subs' Subscript in Latin lookup 17 subtable" uni2086
AlternateSubs2: "'aalt' Access All Alternates in Latin lookup 1 subtable" uni2086 uni2076 six.numr six.dnom six.tf
EndChar

StartChar: seven
Encoding: 55 55 109
Width: 524
GlyphClass: 1
Flags: W
LayerCount: 2
Fore
SplineSet
178 0 m 1,0,1
 178 110 178 110 208 219.5 c 128,-1,2
 238 329 238 329 294.5 432 c 128,-1,3
 351 535 351 535 430 626 c 1,4,-1
 20 626 l 1,5,-1
 20 710 l 1,6,-1
 524 710 l 1,7,-1
 524 632 l 1,8,9
 435 530 435 530 377.5 430.5 c 128,-1,10
 320 331 320 331 293 225.5 c 128,-1,11
 266 120 266 120 266 0 c 1,12,-1
 178 0 l 1,0,1
EndSplineSet
Substitution2: "'tnum' Tabular Numbers in Latin lookup 30 subtable" seven.tf
Substitution2: "'frac' Diagonal Fractions in Latin lookup 23 subtable" seven.numr
Substitution2: "'dnom' Denominators in Latin lookup 21 subtable" seven.dnom
Substitution2: "'numr' Numerators in Latin lookup 20 subtable" seven.numr
Substitution2: "'sups' Superscript in Latin lookup 19 subtable" uni2077
Substitution2: "'sinf' Scientific Inferiors in Latin lookup 18 subtable" uni2087
Substitution2: "'subs' Subscript in Latin lookup 17 subtable" uni2087
AlternateSubs2: "'aalt' Access All Alternates in Latin lookup 1 subtable" uni2087 uni2077 seven.numr seven.dnom seven.tf
EndChar

StartChar: eight
Encoding: 56 56 110
Width: 604
GlyphClass: 1
Flags: W
LayerCount: 2
Fore
SplineSet
302 -16 m 0,0,1
 226 -16 226 -16 166.5 8 c 128,-1,2
 107 32 107 32 73.5 79 c 128,-1,3
 40 126 40 126 40 195 c 256,4,5
 40 264 40 264 77 312 c 128,-1,6
 114 360 114 360 177 382 c 1,7,8
 130 401 130 401 102 437.5 c 128,-1,9
 74 474 74 474 74 531 c 0,10,11
 74 587 74 587 102.5 631 c 128,-1,12
 131 675 131 675 182 700.5 c 128,-1,13
 233 726 233 726 302 726 c 256,14,15
 371 726 371 726 422.5 700.5 c 128,-1,16
 474 675 474 675 502 631 c 128,-1,17
 530 587 530 587 530 531 c 0,18,19
 530 474 530 474 502 437.5 c 128,-1,20
 474 401 474 401 427 382 c 1,21,22
 490 360 490 360 527 312 c 128,-1,23
 564 264 564 264 564 195 c 256,24,25
 564 126 564 126 530.5 79 c 128,-1,26
 497 32 497 32 438 8 c 128,-1,27
 379 -16 379 -16 302 -16 c 0,0,1
302 417 m 256,28,29
 368 417 368 417 404 445.5 c 128,-1,30
 440 474 440 474 440 531 c 0,31,32
 440 582 440 582 405 612 c 128,-1,33
 370 642 370 642 302 642 c 0,34,35
 235 642 235 642 199.5 612 c 128,-1,36
 164 582 164 582 164 531 c 0,37,38
 164 474 164 474 200 445.5 c 128,-1,39
 236 417 236 417 302 417 c 256,28,29
302 68 m 256,40,41
 381 68 381 68 427.5 100.5 c 128,-1,42
 474 133 474 133 474 200 c 0,43,44
 474 262 474 262 432.5 299.5 c 128,-1,45
 391 337 391 337 302 337 c 0,46,47
 214 337 214 337 172 299.5 c 128,-1,48
 130 262 130 262 130 200 c 0,49,50
 130 133 130 133 176.5 100.5 c 128,-1,51
 223 68 223 68 302 68 c 256,40,41
EndSplineSet
Substitution2: "'tnum' Tabular Numbers in Latin lookup 30 subtable" eight.tf
Substitution2: "'frac' Diagonal Fractions in Latin lookup 23 subtable" eight.numr
Substitution2: "'dnom' Denominators in Latin lookup 21 subtable" eight.dnom
Substitution2: "'numr' Numerators in Latin lookup 20 subtable" eight.numr
Substitution2: "'sups' Superscript in Latin lookup 19 subtable" uni2078
Substitution2: "'sinf' Scientific Inferiors in Latin lookup 18 subtable" uni2088
Substitution2: "'subs' Subscript in Latin lookup 17 subtable" uni2088
AlternateSubs2: "'aalt' Access All Alternates in Latin lookup 1 subtable" uni2088 uni2078 eight.numr eight.dnom eight.tf
EndChar

StartChar: nine
Encoding: 57 57 111
Width: 624
GlyphClass: 1
Flags: W
LayerCount: 2
Fore
SplineSet
288 -16 m 0,0,1
 200 -16 200 -16 144.5 27.5 c 128,-1,2
 89 71 89 71 69 137 c 1,3,-1
 160 144 l 1,4,5
 172 108 172 108 204 88 c 128,-1,6
 236 68 236 68 288 68 c 0,7,8
 369 68 369 68 416 128 c 128,-1,9
 463 188 463 188 471 320 c 1,10,11
 442 275 442 275 397 250.5 c 128,-1,12
 352 226 352 226 296 226 c 0,13,14
 227 226 227 226 174 257 c 128,-1,15
 121 288 121 288 90.5 344 c 128,-1,16
 60 400 60 400 60 474 c 0,17,18
 60 552 60 552 92 608.5 c 128,-1,19
 124 665 124 665 179.5 695.5 c 128,-1,20
 235 726 235 726 307 726 c 0,21,22
 396 726 396 726 452.5 685 c 128,-1,23
 509 644 509 644 536 570.5 c 128,-1,24
 563 497 563 497 563 397 c 0,25,26
 563 308 563 308 549 232.5 c 128,-1,27
 535 157 535 157 503 101.5 c 128,-1,28
 471 46 471 46 418.5 15 c 128,-1,29
 366 -16 366 -16 288 -16 c 0,0,1
302 311 m 0,30,31
 375 311 375 311 421.5 353.5 c 128,-1,32
 468 396 468 396 468 472 c 0,33,34
 468 546 468 546 425 594 c 128,-1,35
 382 642 382 642 307 642 c 0,36,37
 234 642 234 642 192 595 c 128,-1,38
 150 548 150 548 150 474 c 0,39,40
 150 399 150 399 192.5 355 c 128,-1,41
 235 311 235 311 302 311 c 0,30,31
EndSplineSet
Substitution2: "'tnum' Tabular Numbers in Latin lookup 30 subtable" nine.tf
Substitution2: "'frac' Diagonal Fractions in Latin lookup 23 subtable" nine.numr
Substitution2: "'dnom' Denominators in Latin lookup 21 subtable" nine.dnom
Substitution2: "'numr' Numerators in Latin lookup 20 subtable" nine.numr
Substitution2: "'sups' Superscript in Latin lookup 19 subtable" uni2079
Substitution2: "'sinf' Scientific Inferiors in Latin lookup 18 subtable" uni2089
Substitution2: "'subs' Subscript in Latin lookup 17 subtable" uni2089
AlternateSubs2: "'aalt' Access All Alternates in Latin lookup 1 subtable" uni2089 uni2079 nine.numr nine.dnom nine.tf
EndChar

StartChar: uni24FF
Encoding: 9471 9471 112
Width: 826
GlyphClass: 1
Flags: W
LayerCount: 2
Fore
SplineSet
413 -12 m 0,0,1
 337 -12 337 -12 270 16.5 c 128,-1,2
 203 45 203 45 152 96 c 128,-1,3
 101 147 101 147 72.5 214 c 128,-1,4
 44 281 44 281 44 358 c 0,5,6
 44 434 44 434 72.5 500.5 c 128,-1,7
 101 567 101 567 152 618 c 128,-1,8
 203 669 203 669 270 697.5 c 128,-1,9
 337 726 337 726 413 726 c 0,10,11
 490 726 490 726 556.5 697.5 c 128,-1,12
 623 669 623 669 674 618 c 128,-1,13
 725 567 725 567 753.5 500.5 c 128,-1,14
 782 434 782 434 782 358 c 0,15,16
 782 281 782 281 753.5 214 c 128,-1,17
 725 147 725 147 674 96 c 128,-1,18
 623 45 623 45 556.5 16.5 c 128,-1,19
 490 -12 490 -12 413 -12 c 0,0,1
416 152 m 0,20,21
 487 152 487 152 529.5 206 c 128,-1,22
 572 260 572 260 572 354 c 256,23,24
 572 448 572 448 529.5 501.5 c 128,-1,25
 487 555 487 555 416 555 c 256,26,27
 345 555 345 555 302.5 501.5 c 128,-1,28
 260 448 260 448 260 354 c 256,29,30
 260 260 260 260 303 206 c 128,-1,31
 346 152 346 152 416 152 c 0,20,21
338 278 m 1,32,33
 326 310 326 310 326 354 c 0,34,35
 326 495 326 495 416 495 c 0,36,37
 442 495 442 495 462 481 c 1,38,-1
 338 278 l 1,32,33
416 212 m 0,39,40
 390 212 390 212 370 229 c 1,41,-1
 495 433 l 1,42,43
 506 400 506 400 506 354 c 0,44,45
 506 212 506 212 416 212 c 0,39,40
EndSplineSet
EndChar

StartChar: uni2776
Encoding: 10102 10102 113
Width: 826
GlyphClass: 1
Flags: W
LayerCount: 2
Fore
SplineSet
413 -12 m 0,0,1
 337 -12 337 -12 270 16.5 c 128,-1,2
 203 45 203 45 152 96 c 128,-1,3
 101 147 101 147 72.5 214 c 128,-1,4
 44 281 44 281 44 358 c 0,5,6
 44 434 44 434 72.5 500.5 c 128,-1,7
 101 567 101 567 152 618 c 128,-1,8
 203 669 203 669 270 697.5 c 128,-1,9
 337 726 337 726 413 726 c 0,10,11
 490 726 490 726 556.5 697.5 c 128,-1,12
 623 669 623 669 674 618 c 128,-1,13
 725 567 725 567 753.5 500.5 c 128,-1,14
 782 434 782 434 782 358 c 0,15,16
 782 281 782 281 753.5 214 c 128,-1,17
 725 147 725 147 674 96 c 128,-1,18
 623 45 623 45 556.5 16.5 c 128,-1,19
 490 -12 490 -12 413 -12 c 0,0,1
401 160 m 1,20,-1
 467 160 l 1,21,-1
 467 548 l 1,22,-1
 418 548 l 1,23,24
 418 508 418 508 395.5 485.5 c 128,-1,25
 373 463 373 463 329 463 c 2,26,-1
 305 463 l 1,27,-1
 305 413 l 1,28,-1
 401 414 l 1,29,-1
 401 160 l 1,20,-1
EndSplineSet
EndChar

StartChar: uni2777
Encoding: 10103 10103 114
Width: 826
GlyphClass: 1
Flags: W
LayerCount: 2
Fore
SplineSet
413 -12 m 0,0,1
 337 -12 337 -12 270 16.5 c 128,-1,2
 203 45 203 45 152 96 c 128,-1,3
 101 147 101 147 72.5 214 c 128,-1,4
 44 281 44 281 44 358 c 0,5,6
 44 434 44 434 72.5 500.5 c 128,-1,7
 101 567 101 567 152 618 c 128,-1,8
 203 669 203 669 270 697.5 c 128,-1,9
 337 726 337 726 413 726 c 0,10,11
 490 726 490 726 556.5 697.5 c 128,-1,12
 623 669 623 669 674 618 c 128,-1,13
 725 567 725 567 753.5 500.5 c 128,-1,14
 782 434 782 434 782 358 c 0,15,16
 782 281 782 281 753.5 214 c 128,-1,17
 725 147 725 147 674 96 c 128,-1,18
 623 45 623 45 556.5 16.5 c 128,-1,19
 490 -12 490 -12 413 -12 c 0,0,1
283 160 m 1,20,-1
 549 160 l 1,21,-1
 549 218 l 1,22,-1
 357 218 l 1,23,24
 357 238 357 238 370.5 258.5 c 128,-1,25
 384 279 384 279 414 295 c 2,26,-1
 455 317 l 2,27,28
 499 340 499 340 525 367.5 c 128,-1,29
 551 395 551 395 551 443 c 0,30,31
 551 493 551 493 517 524 c 128,-1,32
 483 555 483 555 425 555 c 0,33,34
 361 555 361 555 325.5 520.5 c 128,-1,35
 290 486 290 486 284 429 c 1,36,-1
 348 426 l 1,37,38
 353 462 353 462 371 479.5 c 128,-1,39
 389 497 389 497 425 497 c 0,40,41
 449 497 449 497 467 483 c 128,-1,42
 485 469 485 469 485 443 c 0,43,44
 485 415 485 415 474 400 c 128,-1,45
 463 385 463 385 434 369 c 2,46,-1
 382 340 l 2,47,48
 338 316 338 316 317 290 c 128,-1,49
 296 264 296 264 289.5 233 c 128,-1,50
 283 202 283 202 283 160 c 1,20,-1
EndSplineSet
EndChar

StartChar: uni2778
Encoding: 10104 10104 115
Width: 826
GlyphClass: 1
Flags: W
LayerCount: 2
Fore
SplineSet
413 -12 m 0,0,1
 337 -12 337 -12 270 16.5 c 128,-1,2
 203 45 203 45 152 96 c 128,-1,3
 101 147 101 147 72.5 214 c 128,-1,4
 44 281 44 281 44 358 c 0,5,6
 44 434 44 434 72.5 500.5 c 128,-1,7
 101 567 101 567 152 618 c 128,-1,8
 203 669 203 669 270 697.5 c 128,-1,9
 337 726 337 726 413 726 c 0,10,11
 490 726 490 726 556.5 697.5 c 128,-1,12
 623 669 623 669 674 618 c 128,-1,13
 725 567 725 567 753.5 500.5 c 128,-1,14
 782 434 782 434 782 358 c 0,15,16
 782 281 782 281 753.5 214 c 128,-1,17
 725 147 725 147 674 96 c 128,-1,18
 623 45 623 45 556.5 16.5 c 128,-1,19
 490 -12 490 -12 413 -12 c 0,0,1
418 152 m 0,20,21
 478 152 478 152 518.5 183.5 c 128,-1,22
 559 215 559 215 559 270 c 0,23,24
 559 303 559 303 541 329 c 128,-1,25
 523 355 523 355 473 367 c 1,26,27
 505 377 505 377 522.5 396 c 128,-1,28
 540 415 540 415 540 449 c 0,29,30
 540 496 540 496 508 525.5 c 128,-1,31
 476 555 476 555 413 555 c 0,32,33
 355 555 355 555 322 525 c 128,-1,34
 289 495 289 495 283 451 c 1,35,-1
 347 447 l 1,36,37
 349 467 349 467 365.5 481.5 c 128,-1,38
 382 496 382 496 413 496 c 0,39,40
 445 496 445 496 460 481 c 128,-1,41
 475 466 475 466 475 443 c 0,42,43
 475 418 475 418 458 405 c 128,-1,44
 441 392 441 392 413 392 c 2,45,-1
 388 392 l 1,46,-1
 388 335 l 1,47,-1
 413 335 l 2,48,49
 456 335 456 335 475 317.5 c 128,-1,50
 494 300 494 300 494 271 c 0,51,52
 494 243 494 243 474.5 226.5 c 128,-1,53
 455 210 455 210 418 210 c 0,54,55
 378 210 378 210 360.5 225 c 128,-1,56
 343 240 343 240 341 264 c 1,57,-1
 277 261 l 1,58,59
 280 214 280 214 310 183 c 128,-1,60
 340 152 340 152 418 152 c 0,20,21
EndSplineSet
EndChar

StartChar: uni2779
Encoding: 10105 10105 116
Width: 826
GlyphClass: 1
Flags: W
LayerCount: 2
Fore
SplineSet
413 -12 m 0,0,1
 337 -12 337 -12 270 16.5 c 128,-1,2
 203 45 203 45 152 96 c 128,-1,3
 101 147 101 147 72.5 214 c 128,-1,4
 44 281 44 281 44 358 c 0,5,6
 44 434 44 434 72.5 500.5 c 128,-1,7
 101 567 101 567 152 618 c 128,-1,8
 203 669 203 669 270 697.5 c 128,-1,9
 337 726 337 726 413 726 c 0,10,11
 490 726 490 726 556.5 697.5 c 128,-1,12
 623 669 623 669 674 618 c 128,-1,13
 725 567 725 567 753.5 500.5 c 128,-1,14
 782 434 782 434 782 358 c 0,15,16
 782 281 782 281 753.5 214 c 128,-1,17
 725 147 725 147 674 96 c 128,-1,18
 623 45 623 45 556.5 16.5 c 128,-1,19
 490 -12 490 -12 413 -12 c 0,0,1
429 160 m 1,20,-1
 495 160 l 1,21,-1
 495 250 l 1,22,-1
 549 250 l 1,23,-1
 549 308 l 1,24,-1
 495 308 l 1,25,-1
 495 547 l 1,26,-1
 433 547 l 1,27,-1
 249 301 l 1,28,-1
 249 250 l 1,29,-1
 429 250 l 1,30,-1
 429 160 l 1,20,-1
319 308 m 1,31,-1
 429 451 l 1,32,-1
 429 308 l 1,33,-1
 319 308 l 1,31,-1
EndSplineSet
EndChar

StartChar: uni277A
Encoding: 10106 10106 117
Width: 826
GlyphClass: 1
Flags: W
LayerCount: 2
Fore
SplineSet
413 -12 m 0,0,1
 337 -12 337 -12 270 16.5 c 128,-1,2
 203 45 203 45 152 96 c 128,-1,3
 101 147 101 147 72.5 214 c 128,-1,4
 44 281 44 281 44 358 c 0,5,6
 44 434 44 434 72.5 500.5 c 128,-1,7
 101 567 101 567 152 618 c 128,-1,8
 203 669 203 669 270 697.5 c 128,-1,9
 337 726 337 726 413 726 c 0,10,11
 490 726 490 726 556.5 697.5 c 128,-1,12
 623 669 623 669 674 618 c 128,-1,13
 725 567 725 567 753.5 500.5 c 128,-1,14
 782 434 782 434 782 358 c 0,15,16
 782 281 782 281 753.5 214 c 128,-1,17
 725 147 725 147 674 96 c 128,-1,18
 623 45 623 45 556.5 16.5 c 128,-1,19
 490 -12 490 -12 413 -12 c 0,0,1
411 152 m 0,20,21
 476 152 476 152 514.5 187 c 128,-1,22
 553 222 553 222 553 285 c 0,23,24
 553 341 553 341 523 379 c 128,-1,25
 493 417 493 417 431 417 c 0,26,27
 381 417 381 417 356 389 c 1,28,-1
 367 489 l 1,29,-1
 527 489 l 1,30,-1
 527 547 l 1,31,-1
 313 547 l 1,32,-1
 285 322 l 1,33,-1
 346 322 l 1,34,35
 358 340 358 340 375.5 350.5 c 128,-1,36
 393 361 393 361 421 361 c 0,37,38
 456 361 456 361 472.5 339 c 128,-1,39
 489 317 489 317 489 285 c 0,40,41
 489 248 489 248 468.5 229 c 128,-1,42
 448 210 448 210 413 210 c 0,43,44
 354 210 354 210 342 257 c 1,45,-1
 278 254 l 1,46,47
 283 205 283 205 318.5 178.5 c 128,-1,48
 354 152 354 152 411 152 c 0,20,21
EndSplineSet
EndChar

StartChar: uni277B
Encoding: 10107 10107 118
Width: 826
GlyphClass: 1
Flags: W
LayerCount: 2
Fore
SplineSet
413 -12 m 0,0,1
 337 -12 337 -12 270 16.5 c 128,-1,2
 203 45 203 45 152 96 c 128,-1,3
 101 147 101 147 72.5 214 c 128,-1,4
 44 281 44 281 44 358 c 0,5,6
 44 434 44 434 72.5 500.5 c 128,-1,7
 101 567 101 567 152 618 c 128,-1,8
 203 669 203 669 270 697.5 c 128,-1,9
 337 726 337 726 413 726 c 0,10,11
 490 726 490 726 556.5 697.5 c 128,-1,12
 623 669 623 669 674 618 c 128,-1,13
 725 567 725 567 753.5 500.5 c 128,-1,14
 782 434 782 434 782 358 c 0,15,16
 782 281 782 281 753.5 214 c 128,-1,17
 725 147 725 147 674 96 c 128,-1,18
 623 45 623 45 556.5 16.5 c 128,-1,19
 490 -12 490 -12 413 -12 c 0,0,1
422 152 m 0,20,21
 485 152 485 152 526.5 188 c 128,-1,22
 568 224 568 224 568 289 c 0,23,24
 568 358 568 358 529 391.5 c 128,-1,25
 490 425 490 425 432 425 c 0,26,27
 401 425 401 425 378 413 c 128,-1,28
 355 401 355 401 344 383 c 1,29,30
 347 437 347 437 371 467 c 128,-1,31
 395 497 395 497 434 497 c 0,32,33
 464 497 464 497 479.5 486.5 c 128,-1,34
 495 476 495 476 501 453 c 1,35,-1
 563 459 l 1,36,37
 552 507 552 507 523 531 c 128,-1,38
 494 555 494 555 434 555 c 0,39,40
 378 555 378 555 343.5 524.5 c 128,-1,41
 309 494 309 494 293.5 443.5 c 128,-1,42
 278 393 278 393 278 332 c 0,43,44
 278 244 278 244 318 198 c 128,-1,45
 358 152 358 152 422 152 c 0,20,21
423 210 m 0,46,47
 386 210 386 210 364.5 232 c 128,-1,48
 343 254 343 254 344 291 c 0,49,50
 345 327 345 327 367 347 c 128,-1,51
 389 367 389 367 424 367 c 0,52,53
 464 367 464 367 484 347 c 128,-1,54
 504 327 504 327 504 291 c 0,55,56
 504 254 504 254 483 232 c 128,-1,57
 462 210 462 210 423 210 c 0,46,47
EndSplineSet
EndChar

StartChar: uni277C
Encoding: 10108 10108 119
Width: 826
GlyphClass: 1
Flags: W
LayerCount: 2
Fore
SplineSet
413 -12 m 0,0,1
 337 -12 337 -12 270 16.5 c 128,-1,2
 203 45 203 45 152 96 c 128,-1,3
 101 147 101 147 72.5 214 c 128,-1,4
 44 281 44 281 44 358 c 0,5,6
 44 434 44 434 72.5 500.5 c 128,-1,7
 101 567 101 567 152 618 c 128,-1,8
 203 669 203 669 270 697.5 c 128,-1,9
 337 726 337 726 413 726 c 0,10,11
 490 726 490 726 556.5 697.5 c 128,-1,12
 623 669 623 669 674 618 c 128,-1,13
 725 567 725 567 753.5 500.5 c 128,-1,14
 782 434 782 434 782 358 c 0,15,16
 782 281 782 281 753.5 214 c 128,-1,17
 725 147 725 147 674 96 c 128,-1,18
 623 45 623 45 556.5 16.5 c 128,-1,19
 490 -12 490 -12 413 -12 c 0,0,1
362 160 m 1,20,-1
 426 160 l 1,21,22
 426 264 426 264 460 346.5 c 128,-1,23
 494 429 494 429 552 504 c 1,24,-1
 552 548 l 1,25,-1
 292 548 l 1,26,-1
 292 490 l 1,27,-1
 477 490 l 1,28,29
 422 418 422 418 392 334.5 c 128,-1,30
 362 251 362 251 362 160 c 1,20,-1
EndSplineSet
EndChar

StartChar: uni277D
Encoding: 10109 10109 120
Width: 826
GlyphClass: 1
Flags: W
LayerCount: 2
Fore
SplineSet
413 -12 m 0,0,1
 337 -12 337 -12 270 16.5 c 128,-1,2
 203 45 203 45 152 96 c 128,-1,3
 101 147 101 147 72.5 214 c 128,-1,4
 44 281 44 281 44 358 c 0,5,6
 44 434 44 434 72.5 500.5 c 128,-1,7
 101 567 101 567 152 618 c 128,-1,8
 203 669 203 669 270 697.5 c 128,-1,9
 337 726 337 726 413 726 c 0,10,11
 490 726 490 726 556.5 697.5 c 128,-1,12
 623 669 623 669 674 618 c 128,-1,13
 725 567 725 567 753.5 500.5 c 128,-1,14
 782 434 782 434 782 358 c 0,15,16
 782 281 782 281 753.5 214 c 128,-1,17
 725 147 725 147 674 96 c 128,-1,18
 623 45 623 45 556.5 16.5 c 128,-1,19
 490 -12 490 -12 413 -12 c 0,0,1
417 152 m 0,20,21
 488 152 488 152 525 181.5 c 128,-1,22
 562 211 562 211 562 264 c 0,23,24
 562 299 562 299 540.5 326.5 c 128,-1,25
 519 354 519 354 484 369 c 1,26,27
 511 379 511 379 527 398.5 c 128,-1,28
 543 418 543 418 543 454 c 0,29,30
 543 501 543 501 511 528 c 128,-1,31
 479 555 479 555 417 555 c 0,32,33
 356 555 356 555 323.5 528 c 128,-1,34
 291 501 291 501 291 454 c 0,35,36
 291 418 291 418 307 398.5 c 128,-1,37
 323 379 323 379 350 369 c 1,38,39
 314 355 314 355 293 327 c 128,-1,40
 272 299 272 299 272 264 c 0,41,42
 272 211 272 211 309.5 181.5 c 128,-1,43
 347 152 347 152 417 152 c 0,20,21
417 396 m 256,44,45
 357 396 357 396 357 450 c 0,46,47
 357 472 357 472 372.5 484.5 c 128,-1,48
 388 497 388 497 417 497 c 256,49,50
 446 497 446 497 461.5 484.5 c 128,-1,51
 477 472 477 472 477 450 c 0,52,53
 477 396 477 396 417 396 c 256,44,45
417 210 m 0,54,55
 380 210 380 210 359 224.5 c 128,-1,56
 338 239 338 239 338 268 c 256,57,58
 338 297 338 297 359 316.5 c 128,-1,59
 380 336 380 336 417 336 c 0,60,61
 455 336 455 336 475.5 316.5 c 128,-1,62
 496 297 496 297 496 268 c 256,63,64
 496 239 496 239 475.5 224.5 c 128,-1,65
 455 210 455 210 417 210 c 0,54,55
EndSplineSet
EndChar

StartChar: uni277E
Encoding: 10110 10110 121
Width: 826
GlyphClass: 1
Flags: W
LayerCount: 2
Fore
SplineSet
413 -12 m 0,0,1
 337 -12 337 -12 270 16.5 c 128,-1,2
 203 45 203 45 152 96 c 128,-1,3
 101 147 101 147 72.5 214 c 128,-1,4
 44 281 44 281 44 358 c 0,5,6
 44 434 44 434 72.5 500.5 c 128,-1,7
 101 567 101 567 152 618 c 128,-1,8
 203 669 203 669 270 697.5 c 128,-1,9
 337 726 337 726 413 726 c 0,10,11
 490 726 490 726 556.5 697.5 c 128,-1,12
 623 669 623 669 674 618 c 128,-1,13
 725 567 725 567 753.5 500.5 c 128,-1,14
 782 434 782 434 782 358 c 0,15,16
 782 281 782 281 753.5 214 c 128,-1,17
 725 147 725 147 674 96 c 128,-1,18
 623 45 623 45 556.5 16.5 c 128,-1,19
 490 -12 490 -12 413 -12 c 0,0,1
418 555 m 0,20,21
 355 555 355 555 313.5 519 c 128,-1,22
 272 483 272 483 272 418 c 0,23,24
 272 349 272 349 311 315.5 c 128,-1,25
 350 282 350 282 408 282 c 0,26,27
 440 282 440 282 463 294 c 128,-1,28
 486 306 486 306 496 324 c 1,29,30
 493 270 493 270 469 240 c 128,-1,31
 445 210 445 210 406 210 c 0,32,33
 376 210 376 210 360.5 221 c 128,-1,34
 345 232 345 232 339 254 c 1,35,-1
 277 248 l 1,36,37
 288 200 288 200 317 176 c 128,-1,38
 346 152 346 152 406 152 c 0,39,40
 462 152 462 152 496.5 182.5 c 128,-1,41
 531 213 531 213 546.5 263.5 c 128,-1,42
 562 314 562 314 562 375 c 0,43,44
 562 463 562 463 522.5 509 c 128,-1,45
 483 555 483 555 418 555 c 0,20,21
417 497 m 0,46,47
 455 497 455 497 476 475 c 128,-1,48
 497 453 497 453 496 416 c 0,49,50
 495 380 495 380 473 360 c 128,-1,51
 451 340 451 340 416 340 c 0,52,53
 376 340 376 340 356 360 c 128,-1,54
 336 380 336 380 336 416 c 0,55,56
 336 453 336 453 357 475 c 128,-1,57
 378 497 378 497 417 497 c 0,46,47
EndSplineSet
EndChar

StartChar: uni24EA
Encoding: 9450 9450 122
Width: 828
GlyphClass: 1
Flags: W
LayerCount: 2
Fore
SplineSet
416 152 m 0
 346 152 346 152 303 206 c 0
 260 260 260 260 260 354 c 256
 260 448 260 448 302.5 501.5 c 0
 345 555 345 555 416 555 c 256
 487 555 487 555 529.5 501.5 c 0
 572 448 572 448 572 354 c 256
 572 260 572 260 529.5 206 c 0
 487 152 487 152 416 152 c 0
326 354 m 0
 326 311 326 311 338 278 c 1
 462 481 l 1
 442 495 442 495 416 495 c 0
 326 495 326 495 326 354 c 0
416 212 m 0
 506 212 506 212 506 354 c 0
 506 401 506 401 494 433 c 1
 370 229 l 1
 390 212 390 212 416 212 c 0
EndSplineSet
Refer: 234 -1 N 1 0 0 1 0 0 3
EndChar

StartChar: uni2460
Encoding: 9312 9312 123
Width: 828
GlyphClass: 1
Flags: W
LayerCount: 2
Fore
SplineSet
398 160 m 1
 398 414 l 1
 302 413 l 1
 302 463 l 1
 326 463 l 2
 370 463 370 463 392.5 485.5 c 0
 415 508 415 508 415 548 c 1
 464 548 l 1
 464 160 l 1
 398 160 l 1
EndSplineSet
Refer: 234 -1 N 1 0 0 1 0 0 3
EndChar

StartChar: uni2461
Encoding: 9313 9313 124
Width: 828
GlyphClass: 1
Flags: W
LayerCount: 2
Fore
SplineSet
282 160 m 1
 282 202 282 202 288.5 233 c 0
 295 264 295 264 316 290 c 0
 337 316 337 316 381 340 c 2
 433 369 l 2
 462 385 462 385 473 400 c 0
 484 415 484 415 484 443 c 0
 484 469 484 469 466 483 c 0
 448 497 448 497 424 497 c 0
 388 497 388 497 370 479.5 c 0
 352 462 352 462 347 426 c 1
 283 429 l 1
 289 486 289 486 324.5 520.5 c 0
 360 555 360 555 424 555 c 0
 482 555 482 555 516 524 c 0
 550 493 550 493 550 443 c 0
 550 395 550 395 524 367.5 c 0
 498 340 498 340 454 317 c 2
 413 295 l 2
 383 279 383 279 369.5 258.5 c 0
 356 238 356 238 356 218 c 1
 548 218 l 1
 548 160 l 1
 282 160 l 1
EndSplineSet
Refer: 234 -1 N 1 0 0 1 0 0 3
EndChar

StartChar: uni2462
Encoding: 9314 9314 125
Width: 828
GlyphClass: 1
Flags: W
LayerCount: 2
Fore
SplineSet
416 152 m 0
 338 152 338 152 308 183 c 0
 278 214 278 214 275 261 c 1
 339 264 l 1
 341 240 341 240 358.5 225 c 0
 376 210 376 210 416 210 c 0
 453 210 453 210 472.5 226.5 c 0
 492 243 492 243 492 271 c 0
 492 300 492 300 473 317.5 c 0
 454 335 454 335 411 335 c 2
 386 335 l 1
 386 392 l 1
 411 392 l 2
 439 392 439 392 456 405 c 0
 473 418 473 418 473 443 c 0
 473 466 473 466 458 481 c 0
 443 496 443 496 411 496 c 0
 380 496 380 496 363.5 481.5 c 0
 347 467 347 467 345 447 c 1
 281 451 l 1
 287 495 287 495 320 525 c 0
 353 555 353 555 411 555 c 0
 474 555 474 555 506 525.5 c 0
 538 496 538 496 538 449 c 0
 538 415 538 415 520.5 396 c 0
 503 377 503 377 471 367 c 1
 521 355 521 355 539 329 c 0
 557 303 557 303 557 270 c 0
 557 215 557 215 516.5 183.5 c 0
 476 152 476 152 416 152 c 0
EndSplineSet
Refer: 234 -1 N 1 0 0 1 0 0 3
EndChar

StartChar: uni2463
Encoding: 9315 9315 126
Width: 828
GlyphClass: 1
Flags: W
LayerCount: 2
Fore
SplineSet
428 160 m 1
 428 250 l 1
 248 250 l 1
 248 301 l 1
 432 547 l 1
 494 547 l 1
 494 308 l 1
 548 308 l 1
 548 250 l 1
 494 250 l 1
 494 160 l 1
 428 160 l 1
318 308 m 1
 428 308 l 1
 428 451 l 1
 318 308 l 1
EndSplineSet
Refer: 234 -1 N 1 0 0 1 0 0 3
EndChar

StartChar: uni2464
Encoding: 9316 9316 127
Width: 828
GlyphClass: 1
Flags: W
LayerCount: 2
Fore
SplineSet
412 152 m 0
 355 152 355 152 319.5 178.5 c 0
 284 205 284 205 279 254 c 1
 343 257 l 1
 355 210 355 210 414 210 c 0
 449 210 449 210 469.5 229 c 0
 490 248 490 248 490 285 c 0
 490 317 490 317 473.5 339 c 0
 457 361 457 361 422 361 c 0
 394 361 394 361 376.5 350.5 c 0
 359 340 359 340 347 322 c 1
 286 322 l 1
 314 547 l 1
 528 547 l 1
 528 489 l 1
 368 489 l 1
 357 389 l 1
 382 417 382 417 432 417 c 0
 494 417 494 417 524 379 c 0
 554 341 554 341 554 285 c 0
 554 222 554 222 515.5 187 c 0
 477 152 477 152 412 152 c 0
EndSplineSet
Refer: 234 -1 N 1 0 0 1 0 0 3
EndChar

StartChar: uni2465
Encoding: 9317 9317 128
Width: 828
GlyphClass: 1
Flags: W
LayerCount: 2
Fore
SplineSet
415 152 m 0
 351 152 351 152 311 198 c 0
 271 244 271 244 271 332 c 0
 271 393 271 393 286.5 443.5 c 0
 302 494 302 494 336.5 524.5 c 0
 371 555 371 555 427 555 c 0
 487 555 487 555 516 531 c 0
 545 507 545 507 556 459 c 1
 494 453 l 1
 488 476 488 476 472.5 486.5 c 0
 457 497 457 497 427 497 c 0
 388 497 388 497 364 467 c 0
 340 437 340 437 337 383 c 1
 348 401 348 401 371 413 c 0
 394 425 394 425 425 425 c 0
 483 425 483 425 522 391.5 c 0
 561 358 561 358 561 289 c 0
 561 224 561 224 519.5 188 c 0
 478 152 478 152 415 152 c 0
416 210 m 0
 455 210 455 210 476 232 c 0
 497 254 497 254 497 291 c 0
 497 327 497 327 477 347 c 0
 457 367 457 367 417 367 c 0
 382 367 382 367 360 347 c 0
 338 327 338 327 337 291 c 0
 336 254 336 254 357.5 232 c 0
 379 210 379 210 416 210 c 0
EndSplineSet
Refer: 234 -1 N 1 0 0 1 0 0 3
EndChar

StartChar: uni2466
Encoding: 9318 9318 129
Width: 828
GlyphClass: 1
Flags: W
LayerCount: 2
Fore
SplineSet
356 160 m 1
 356 251 356 251 386 334.5 c 0
 416 418 416 418 471 490 c 1
 286 490 l 1
 286 548 l 1
 546 548 l 1
 546 504 l 1
 488 429 488 429 454 346.5 c 0
 420 264 420 264 420 160 c 1
 356 160 l 1
EndSplineSet
Refer: 234 -1 N 1 0 0 1 0 0 3
EndChar

StartChar: uni2467
Encoding: 9319 9319 130
Width: 828
GlyphClass: 1
Flags: W
LayerCount: 2
Fore
SplineSet
416 152 m 0
 346 152 346 152 308.5 181.5 c 0
 271 211 271 211 271 264 c 0
 271 299 271 299 292 327 c 0
 313 355 313 355 349 369 c 1
 322 379 322 379 306 398.5 c 0
 290 418 290 418 290 454 c 0
 290 501 290 501 322.5 528 c 0
 355 555 355 555 416 555 c 0
 478 555 478 555 510 528 c 0
 542 501 542 501 542 454 c 0
 542 418 542 418 526 398.5 c 0
 510 379 510 379 483 369 c 1
 518 354 518 354 539.5 326.5 c 0
 561 299 561 299 561 264 c 0
 561 211 561 211 524 181.5 c 0
 487 152 487 152 416 152 c 0
416 396 m 256
 476 396 476 396 476 450 c 0
 476 472 476 472 460.5 484.5 c 0
 445 497 445 497 416 497 c 256
 387 497 387 497 371.5 484.5 c 0
 356 472 356 472 356 450 c 0
 356 396 356 396 416 396 c 256
416 210 m 0
 454 210 454 210 474.5 224.5 c 0
 495 239 495 239 495 268 c 256
 495 297 495 297 474.5 316.5 c 0
 454 336 454 336 416 336 c 0
 379 336 379 336 358 316.5 c 0
 337 297 337 297 337 268 c 256
 337 239 337 239 358 224.5 c 0
 379 210 379 210 416 210 c 0
EndSplineSet
Refer: 234 -1 N 1 0 0 1 0 0 3
EndChar

StartChar: uni2468
Encoding: 9320 9320 131
Width: 828
GlyphClass: 1
Flags: W
LayerCount: 2
Fore
SplineSet
413 -12 m 0,0,1
 337 -12 337 -12 270 16.5 c 128,-1,2
 203 45 203 45 152 96 c 128,-1,3
 101 147 101 147 72.5 214 c 128,-1,4
 44 281 44 281 44 358 c 0,5,6
 44 434 44 434 72.5 500.5 c 128,-1,7
 101 567 101 567 152 618 c 128,-1,8
 203 669 203 669 270 697.5 c 128,-1,9
 337 726 337 726 413 726 c 0,10,11
 490 726 490 726 557 697.5 c 128,-1,12
 624 669 624 669 675 618 c 128,-1,13
 726 567 726 567 755 500.5 c 128,-1,14
 784 434 784 434 784 358 c 0,15,16
 784 281 784 281 755 214 c 128,-1,17
 726 147 726 147 675 96 c 128,-1,18
 624 45 624 45 557 16.5 c 128,-1,19
 490 -12 490 -12 413 -12 c 0,0,1
413 62 m 256,20,21
 475 62 475 62 529 84.5 c 128,-1,22
 583 107 583 107 623.5 147.5 c 128,-1,23
 664 188 664 188 686.5 242 c 128,-1,24
 709 296 709 296 709 358 c 256,25,26
 709 420 709 420 686.5 473.5 c 128,-1,27
 664 527 664 527 623.5 567 c 128,-1,28
 583 607 583 607 529 629.5 c 128,-1,29
 475 652 475 652 413 652 c 256,30,31
 351 652 351 652 297 629.5 c 128,-1,32
 243 607 243 607 203 567 c 128,-1,33
 163 527 163 527 140.5 473.5 c 128,-1,34
 118 420 118 420 118 358 c 256,35,36
 118 296 118 296 140.5 242 c 128,-1,37
 163 188 163 188 203 147.5 c 128,-1,38
 243 107 243 107 297 84.5 c 128,-1,39
 351 62 351 62 413 62 c 256,20,21
425 555 m 0,40,41
 490 555 490 555 529.5 509 c 128,-1,42
 569 463 569 463 569 375 c 0,43,44
 569 314 569 314 553.5 263.5 c 128,-1,45
 538 213 538 213 503.5 182.5 c 128,-1,46
 469 152 469 152 413 152 c 0,47,48
 353 152 353 152 324 176 c 128,-1,49
 295 200 295 200 284 248 c 1,50,-1
 346 254 l 1,51,52
 352 232 352 232 367.5 221 c 128,-1,53
 383 210 383 210 413 210 c 0,54,55
 452 210 452 210 476 240 c 128,-1,56
 500 270 500 270 503 324 c 1,57,58
 493 306 493 306 470 294 c 128,-1,59
 447 282 447 282 415 282 c 0,60,61
 357 282 357 282 318 315.5 c 128,-1,62
 279 349 279 349 279 418 c 0,63,64
 279 483 279 483 320.5 519 c 128,-1,65
 362 555 362 555 425 555 c 0,40,41
424 497 m 0,66,67
 385 497 385 497 364 475 c 128,-1,68
 343 453 343 453 343 416 c 0,69,70
 343 380 343 380 363 360 c 128,-1,71
 383 340 383 340 423 340 c 0,72,73
 458 340 458 340 480 360 c 128,-1,74
 502 380 502 380 503 416 c 0,75,76
 504 453 504 453 483 475 c 128,-1,77
 462 497 462 497 424 497 c 0,66,67
EndSplineSet
EndChar

StartChar: zero.ss09
Encoding: 65638 -1 132
Width: 663
GlyphClass: 1
Flags: W
LayerCount: 2
Fore
SplineSet
331 -16 m 0,0,1
 245 -16 245 -16 182 29 c 128,-1,2
 119 74 119 74 84.5 157 c 128,-1,3
 50 240 50 240 50 354 c 256,4,5
 50 468 50 468 84.5 551.5 c 128,-1,6
 119 635 119 635 182 680.5 c 128,-1,7
 245 726 245 726 331 726 c 0,8,9
 418 726 418 726 481 680.5 c 128,-1,10
 544 635 544 635 578.5 552 c 128,-1,11
 613 469 613 469 613 354 c 0,12,13
 613 240 613 240 578.5 157 c 128,-1,14
 544 74 544 74 481 29 c 128,-1,15
 418 -16 418 -16 331 -16 c 0,0,1
140 354 m 0,16,17
 140 227 140 227 183 153 c 1,18,-1
 434 609 l 1,19,20
 391 642 391 642 331 642 c 0,21,22
 240 642 240 642 190 567 c 128,-1,23
 140 492 140 492 140 354 c 0,16,17
331 68 m 0,24,25
 423 68 423 68 473 142.5 c 128,-1,26
 523 217 523 217 523 354 c 0,27,28
 523 475 523 475 484 548 c 1,29,-1
 235 96 l 1,30,31
 276 68 276 68 331 68 c 0,24,25
EndSplineSet
EndChar

StartChar: one.ss09
Encoding: 65639 -1 133
Width: 394
GlyphClass: 1
Flags: W
LayerCount: 2
Fore
SplineSet
12 0 m 1,0,-1
 12 84 l 1,1,-1
 160 84 l 1,2,-1
 160 526 l 1,3,-1
 12 526 l 1,4,-1
 12 600 l 1,5,-1
 72 600 l 2,6,7
 131 600 131 600 154.5 623.5 c 128,-1,8
 178 647 178 647 178 710 c 1,9,-1
 246 710 l 1,10,-1
 246 84 l 1,11,-1
 382 84 l 1,12,-1
 382 0 l 1,13,-1
 12 0 l 1,0,-1
EndSplineSet
EndChar

StartChar: zero.tf
Encoding: 65640 -1 134
Width: 600
GlyphClass: 1
Flags: W
LayerCount: 2
Fore
SplineSet
300 -16 m 0,0,1
 219 -16 219 -16 161 29 c 128,-1,2
 103 74 103 74 71.5 157 c 128,-1,3
 40 240 40 240 40 354 c 256,4,5
 40 468 40 468 71.5 551.5 c 128,-1,6
 103 635 103 635 161 680.5 c 128,-1,7
 219 726 219 726 300 726 c 0,8,9
 382 726 382 726 440 680.5 c 128,-1,10
 498 635 498 635 529 552 c 128,-1,11
 560 469 560 469 560 354 c 0,12,13
 560 240 560 240 529 157 c 128,-1,14
 498 74 498 74 440 29 c 128,-1,15
 382 -16 382 -16 300 -16 c 0,0,1
300 68 m 0,16,17
 385 68 385 68 427.5 142.5 c 128,-1,18
 470 217 470 217 470 354 c 0,19,20
 470 492 470 492 427.5 567 c 128,-1,21
 385 642 385 642 300 642 c 0,22,23
 216 642 216 642 173 567 c 128,-1,24
 130 492 130 492 130 354 c 0,25,26
 130 217 130 217 173 142.5 c 128,-1,27
 216 68 216 68 300 68 c 0,16,17
EndSplineSet
Substitution2: "'pnum' Proportional Numbers in Latin lookup 29 subtable" zero
Substitution2: "'aalt' Access All Alternates in Latin lookup 0 subtable" zero
EndChar

StartChar: one.tf
Encoding: 65641 -1 135
Width: 600
GlyphClass: 1
Flags: W
LayerCount: 2
Fore
SplineSet
117 0 m 1,0,-1
 117 84 l 1,1,-1
 275 84 l 1,2,-1
 275 526 l 1,3,-1
 117 526 l 1,4,-1
 117 600 l 1,5,-1
 187 600 l 2,6,7
 246 600 246 600 269.5 623.5 c 128,-1,8
 293 647 293 647 293 710 c 1,9,-1
 361 710 l 1,10,-1
 361 84 l 1,11,-1
 507 84 l 1,12,-1
 507 0 l 1,13,-1
 117 0 l 1,0,-1
EndSplineSet
Substitution2: "'pnum' Proportional Numbers in Latin lookup 29 subtable" one
Substitution2: "'aalt' Access All Alternates in Latin lookup 0 subtable" one
EndChar

StartChar: period
Encoding: 46 46 146
Width: 201
GlyphClass: 1
Flags: W
LayerCount: 2
Fore
SplineSet
44 0 m 1,0,-1
 44 113 l 1,1,-1
 157 113 l 1,2,-1
 157 0 l 1,3,-1
 44 0 l 1,0,-1
EndSplineSet
Substitution2: "'ss08' Style Set 8 in Latin lookup 41 subtable" period.ss08
Substitution2: "'aalt' Access All Alternates in Latin lookup 0 subtable" period.ss08
EndChar

StartChar: comma
Encoding: 44 44 147
Width: 201
GlyphClass: 1
Flags: W
LayerCount: 2
Fore
SplineSet
47 -156 m 1,0,-1
 95 0 l 1,1,-1
 44 0 l 1,2,-1
 44 113 l 1,3,-1
 157 113 l 1,4,-1
 157 14 l 1,5,-1
 97 -156 l 1,6,-1
 47 -156 l 1,0,-1
EndSplineSet
EndChar

StartChar: exclam
Encoding: 33 33 150
Width: 213
GlyphClass: 1
Flags: W
LayerCount: 2
Fore
SplineSet
83 205 m 1,0,1
 80 240 80 240 76.5 289 c 128,-1,2
 73 338 73 338 70 389 c 128,-1,3
 67 440 67 440 67 480 c 2,4,-1
 67 710 l 1,5,-1
 153 710 l 1,6,-1
 153 480 l 2,7,8
 153 440 153 440 150.5 389 c 128,-1,9
 148 338 148 338 144.5 289 c 128,-1,10
 141 240 141 240 138 205 c 1,11,-1
 83 205 l 1,0,1
50 0 m 1,12,-1
 50 113 l 1,13,-1
 163 113 l 1,14,-1
 163 0 l 1,15,-1
 50 0 l 1,12,-1
EndSplineSet
Substitution2: "'ss08' Style Set 8 in Latin lookup 41 subtable" exclam.ss08
Substitution2: "'aalt' Access All Alternates in Latin lookup 0 subtable" exclam.ss08
EndChar

StartChar: question
Encoding: 63 63 151
Width: 559
GlyphClass: 1
Flags: W
LayerCount: 2
Fore
SplineSet
234 201 m 1,0,1
 234 273 234 273 256.5 315.5 c 128,-1,2
 279 358 279 358 331 390 c 0,3,4
 370 414 370 414 390.5 432.5 c 128,-1,5
 411 451 411 451 418 471.5 c 128,-1,6
 425 492 425 492 425 522 c 0,7,8
 425 574 425 574 390.5 608 c 128,-1,9
 356 642 356 642 295 642 c 0,10,11
 221 642 221 642 181.5 604 c 128,-1,12
 142 566 142 566 134 494 c 1,13,-1
 44 500 l 1,14,15
 50 566 50 566 82 617 c 128,-1,16
 114 668 114 668 168 697 c 128,-1,17
 222 726 222 726 295 726 c 0,18,19
 360 726 360 726 409.5 700 c 128,-1,20
 459 674 459 674 487 628 c 128,-1,21
 515 582 515 582 515 522 c 0,22,23
 515 459 515 459 484.5 419.5 c 128,-1,24
 454 380 454 380 389 338 c 0,25,26
 349 312 349 312 334.5 283 c 128,-1,27
 320 254 320 254 320 201 c 1,28,-1
 234 201 l 1,0,1
218 0 m 1,29,-1
 218 113 l 1,30,-1
 331 113 l 1,31,-1
 331 0 l 1,32,-1
 218 0 l 1,29,-1
EndSplineSet
Substitution2: "'ss08' Style Set 8 in Latin lookup 41 subtable" question.ss08
Substitution2: "'aalt' Access All Alternates in Latin lookup 0 subtable" question.ss08
EndChar

StartChar: asterisk
Encoding: 42 42 152
Width: 430
GlyphClass: 1
Flags: W
LayerCount: 2
Fore
SplineSet
149 382 m 1,0,-1
 97 416 l 1,1,-1
 164 518 l 1,2,-1
 44 518 l 1,3,-1
 44 582 l 1,4,-1
 164 582 l 1,5,-1
 97 684 l 1,6,-1
 149 718 l 1,7,-1
 215 611 l 1,8,-1
 282 718 l 1,9,-1
 334 684 l 1,10,-1
 266 582 l 1,11,-1
 386 582 l 1,12,-1
 386 518 l 1,13,-1
 266 518 l 1,14,-1
 334 416 l 1,15,-1
 282 382 l 1,16,-1
 215 488 l 1,17,-1
 149 382 l 1,0,-1
EndSplineSet
EndChar

StartChar: uni3003
Encoding: 12291 12291 153
Width: 366
GlyphClass: 1
Flags: W
LayerCount: 2
Fore
SplineSet
44 281 m 1,0,-1
 107 481 l 1,1,-1
 200 481 l 1,2,-1
 109 281 l 1,3,-1
 44 281 l 1,0,-1
167 281 m 1,4,-1
 230 481 l 1,5,-1
 322 481 l 1,6,-1
 232 281 l 1,7,-1
 167 281 l 1,4,-1
EndSplineSet
EndChar

StartChar: numbersign
Encoding: 35 35 154
Width: 478
GlyphClass: 1
Flags: W
LayerCount: 2
Fore
SplineSet
36 0 m 1,0,-1
 73 197 l 1,1,-1
 -10 197 l 1,2,-1
 2 267 l 1,3,-1
 86 267 l 1,4,-1
 118 440 l 1,5,-1
 30 440 l 1,6,-1
 42 510 l 1,7,-1
 131 510 l 1,8,-1
 168 710 l 1,9,-1
 240 710 l 1,10,-1
 203 510 l 1,11,-1
 329 510 l 1,12,-1
 366 710 l 1,13,-1
 438 710 l 1,14,-1
 401 510 l 1,15,-1
 483 510 l 1,16,-1
 471 440 l 1,17,-1
 388 440 l 1,18,-1
 356 267 l 1,19,-1
 443 267 l 1,20,-1
 431 197 l 1,21,-1
 343 197 l 1,22,-1
 306 0 l 1,23,-1
 234 0 l 1,24,-1
 271 197 l 1,25,-1
 145 197 l 1,26,-1
 108 0 l 1,27,-1
 36 0 l 1,0,-1
158 267 m 1,28,-1
 284 267 l 1,29,-1
 316 440 l 1,30,-1
 190 440 l 1,31,-1
 158 267 l 1,28,-1
EndSplineSet
EndChar

StartChar: slash
Encoding: 47 47 155
Width: 480
GlyphClass: 1
Flags: W
LayerCount: 2
Fore
SplineSet
40 -110 m 1,0,-1
 335 750 l 1,1,-1
 415 750 l 1,2,-1
 120 -110 l 1,3,-1
 40 -110 l 1,0,-1
EndSplineSet
Substitution2: "'frac' Diagonal Fractions in Latin lookup 22 subtable" fraction
Substitution2: "'aalt' Access All Alternates in Latin lookup 0 subtable" fraction
EndChar

StartChar: backslash
Encoding: 92 92 156
Width: 455
GlyphClass: 1
Flags: W
LayerCount: 2
Fore
SplineSet
415 -110 m 1,0,-1
 335 -110 l 1,1,-1
 40 750 l 1,2,-1
 120 750 l 1,3,-1
 415 -110 l 1,0,-1
EndSplineSet
EndChar

StartChar: hyphen
Encoding: 45 45 157
Width: 419
GlyphClass: 1
Flags: W
LayerCount: 2
Fore
SplineSet
44 252 m 1,0,-1
 44 331 l 1,1,-1
 375 331 l 1,2,-1
 375 252 l 1,3,-1
 44 252 l 1,0,-1
EndSplineSet
EndChar

StartChar: underscore
Encoding: 95 95 158
Width: 557
GlyphClass: 1
Flags: W
LayerCount: 2
Fore
SplineSet
44 -78 m 1,0,-1
 44 0 l 1,1,-1
 513 0 l 1,2,-1
 513 -78 l 1,3,-1
 44 -78 l 1,0,-1
EndSplineSet
EndChar

StartChar: uni301C
Encoding: 12316 12316 159
Width: 849
GlyphClass: 1
Flags: W
LayerCount: 2
Fore
SplineSet
594 205 m 0,0,1
 559 205 559 205 530.5 212.5 c 128,-1,2
 502 220 502 220 474 234 c 128,-1,3
 446 248 446 248 411 267 c 0,4,5
 375 287 375 287 335 298.5 c 128,-1,6
 295 310 295 310 263 310 c 0,7,8
 216 310 216 310 175 287.5 c 128,-1,9
 134 265 134 265 86 220 c 1,10,-1
 44 282 l 1,11,12
 89 323 89 323 125 346 c 128,-1,13
 161 369 161 369 195.5 378.5 c 128,-1,14
 230 388 230 388 267 388 c 0,15,16
 302 388 302 388 344.5 375.5 c 128,-1,17
 387 363 387 363 442 334 c 0,18,19
 482 314 482 314 505.5 302.5 c 128,-1,20
 529 291 529 291 547.5 287 c 128,-1,21
 566 283 566 283 591 283 c 0,22,23
 634 283 634 283 672.5 303 c 128,-1,24
 711 323 711 323 763 371 c 1,25,-1
 805 309 l 1,26,27
 696 205 696 205 594 205 c 0,0,1
EndSplineSet
EndChar

StartChar: parenleft
Encoding: 40 40 160
Width: 274
GlyphClass: 1
Flags: W
LayerCount: 2
Fore
SplineSet
184 -110 m 1,0,1
 45 99 45 99 45 320 c 0,2,3
 45 542 45 542 184 750 c 1,4,-1
 259 750 l 1,5,6
 132 534 132 534 132 320 c 0,7,8
 132 213 132 213 164 105.5 c 128,-1,9
 196 -2 196 -2 259 -110 c 1,10,-1
 184 -110 l 1,0,1
EndSplineSet
EndChar

StartChar: parenright
Encoding: 41 41 161
Width: 274
GlyphClass: 1
Flags: W
LayerCount: 2
Fore
SplineSet
90 -110 m 1,0,-1
 15 -110 l 1,1,2
 78 -2 78 -2 110 105.5 c 128,-1,3
 142 213 142 213 142 320 c 0,4,5
 142 534 142 534 15 750 c 1,6,-1
 90 750 l 1,7,8
 229 542 229 542 229 320 c 0,9,10
 229 99 229 99 90 -110 c 1,0,-1
EndSplineSet
EndChar

StartChar: braceleft
Encoding: 123 123 162
Width: 389
GlyphClass: 1
Flags: W
LayerCount: 2
Fore
SplineSet
318 -115 m 2,0,1
 239 -115 239 -115 193.5 -67 c 128,-1,2
 148 -19 148 -19 148 57 c 2,3,-1
 148 140 l 2,4,5
 148 205 148 205 121.5 240.5 c 128,-1,6
 95 276 95 276 45 276 c 1,7,-1
 45 359 l 1,8,9
 95 359 95 359 121.5 395 c 128,-1,10
 148 431 148 431 148 495 c 2,11,-1
 148 578 l 2,12,13
 148 654 148 654 193.5 702 c 128,-1,14
 239 750 239 750 318 750 c 2,15,-1
 374 750 l 1,16,-1
 374 672 l 1,17,18
 295 675 295 675 261.5 654 c 128,-1,19
 228 633 228 633 228 580 c 2,20,-1
 228 488 l 2,21,22
 228 413 228 413 195 371.5 c 128,-1,23
 162 330 162 330 116 319 c 1,24,-1
 116 318 l 1,25,26
 163 308 163 308 195.5 265 c 128,-1,27
 228 222 228 222 228 147 c 2,28,-1
 228 55 l 2,29,30
 228 3 228 3 261.5 -18 c 128,-1,31
 295 -39 295 -39 374 -37 c 1,32,-1
 374 -115 l 1,33,-1
 318 -115 l 2,0,1
EndSplineSet
EndChar

StartChar: braceright
Encoding: 125 125 163
Width: 389
GlyphClass: 1
Flags: W
LayerCount: 2
Fore
SplineSet
71 -115 m 2,0,-1
 15 -115 l 1,1,-1
 15 -37 l 1,2,3
 95 -39 95 -39 128 -18 c 128,-1,4
 161 3 161 3 161 55 c 2,5,-1
 161 147 l 2,6,7
 161 222 161 222 193.5 265 c 128,-1,8
 226 308 226 308 273 318 c 1,9,-1
 273 319 l 1,10,11
 227 330 227 330 194 371.5 c 128,-1,12
 161 413 161 413 161 488 c 2,13,-1
 161 580 l 2,14,15
 161 633 161 633 128 654 c 128,-1,16
 95 675 95 675 15 672 c 1,17,-1
 15 750 l 1,18,-1
 71 750 l 2,19,20
 151 750 151 750 196 702 c 128,-1,21
 241 654 241 654 241 578 c 2,22,-1
 241 495 l 2,23,24
 241 431 241 431 268 395 c 128,-1,25
 295 359 295 359 344 359 c 1,26,-1
 344 276 l 1,27,28
 295 276 295 276 268 240.5 c 128,-1,29
 241 205 241 205 241 140 c 2,30,-1
 241 57 l 2,31,32
 241 -19 241 -19 196 -67 c 128,-1,33
 151 -115 151 -115 71 -115 c 2,0,-1
EndSplineSet
EndChar

StartChar: bracketleft
Encoding: 91 91 164
Width: 347
GlyphClass: 1
Flags: W
LayerCount: 2
Fore
SplineSet
332 -110 m 1,0,-1
 92 -110 l 1,1,-1
 92 750 l 1,2,-1
 332 750 l 1,3,-1
 332 680 l 1,4,-1
 172 680 l 1,5,-1
 172 -40 l 1,6,-1
 332 -40 l 1,7,-1
 332 -110 l 1,0,-1
EndSplineSet
EndChar

StartChar: bracketright
Encoding: 93 93 165
Width: 347
GlyphClass: 1
Flags: W
LayerCount: 2
Fore
SplineSet
15 -110 m 1,0,-1
 15 -40 l 1,1,-1
 175 -40 l 1,2,-1
 175 680 l 1,3,-1
 15 680 l 1,4,-1
 15 750 l 1,5,-1
 255 750 l 1,6,-1
 255 -110 l 1,7,-1
 15 -110 l 1,0,-1
EndSplineSet
EndChar

StartChar: uni3008
Encoding: 12296 12296 166
Width: 352
GlyphClass: 1
Flags: W
LayerCount: 2
Fore
SplineSet
227 -114 m 1,0,-1
 44 354 l 1,1,-1
 227 821 l 1,2,-1
 308 821 l 1,3,-1
 125 354 l 1,4,-1
 308 -114 l 1,5,-1
 227 -114 l 1,0,-1
EndSplineSet
EndChar

StartChar: uni3009
Encoding: 12297 12297 167
Width: 352
GlyphClass: 1
Flags: W
LayerCount: 2
Fore
SplineSet
125 -114 m 1,0,-1
 44 -114 l 1,1,-1
 227 354 l 1,2,-1
 44 821 l 1,3,-1
 125 821 l 1,4,-1
 308 354 l 1,5,-1
 125 -114 l 1,0,-1
EndSplineSet
EndChar

StartChar: uni3010
Encoding: 12304 12304 168
Width: 362
GlyphClass: 1
Flags: W
LayerCount: 2
Fore
SplineSet
318 -63 m 1,0,-1
 44 -63 l 1,1,-1
 44 825 l 1,2,-1
 318 825 l 1,3,4
 183 611 183 611 183 381 c 0,5,6
 183 153 183 153 318 -63 c 1,0,-1
EndSplineSet
EndChar

StartChar: uni3011
Encoding: 12305 12305 169
Width: 362
GlyphClass: 1
Flags: W
LayerCount: 2
Fore
SplineSet
44 -63 m 1,0,1
 179 153 179 153 179 381 c 0,2,3
 179 611 179 611 44 825 c 1,4,-1
 318 825 l 1,5,-1
 318 -63 l 1,6,-1
 44 -63 l 1,0,1
EndSplineSet
EndChar

StartChar: uni300C
Encoding: 12300 12300 170
Width: 390
GlyphClass: 1
Flags: W
LayerCount: 2
Fore
SplineSet
44 235 m 1,0,-1
 44 826 l 1,1,-1
 346 826 l 1,2,-1
 346 748 l 1,3,-1
 124 748 l 1,4,-1
 124 235 l 1,5,-1
 44 235 l 1,0,-1
EndSplineSet
EndChar

StartChar: uni300D
Encoding: 12301 12301 171
Width: 390
GlyphClass: 1
Flags: W
LayerCount: 2
Fore
SplineSet
346 488 m 1,0,-1
 346 -103 l 1,1,-1
 44 -103 l 1,2,-1
 44 -25 l 1,3,-1
 266 -25 l 1,4,-1
 266 488 l 1,5,-1
 346 488 l 1,0,-1
EndSplineSet
EndChar

StartChar: uni300B
Encoding: 12299 12299 173
Width: 519
GlyphClass: 1
Flags: W
LayerCount: 2
Fore
SplineSet
292 -114 m 1,0,-1
 211 -114 l 1,1,-1
 394 354 l 1,2,-1
 211 821 l 1,3,-1
 292 821 l 1,4,-1
 475 354 l 1,5,-1
 292 -114 l 1,0,-1
125 -114 m 1,6,-1
 44 -114 l 1,7,-1
 227 354 l 1,8,-1
 44 821 l 1,9,-1
 125 821 l 1,10,-1
 308 354 l 1,11,-1
 125 -114 l 1,6,-1
EndSplineSet
EndChar

StartChar: uni3014
Encoding: 12308 12308 174
Width: 391
GlyphClass: 1
Flags: W
LayerCount: 2
Fore
SplineSet
295 -146 m 1,0,-1
 44 80 l 1,1,-1
 44 627 l 1,2,-1
 293 850 l 1,3,-1
 345 793 l 1,4,-1
 124 595 l 1,5,-1
 124 112 l 1,6,-1
 347 -89 l 1,7,-1
 295 -146 l 1,0,-1
EndSplineSet
EndChar

StartChar: uni3015
Encoding: 12309 12309 175
Width: 391
GlyphClass: 1
Flags: W
LayerCount: 2
Fore
SplineSet
96 -146 m 1,0,-1
 44 -89 l 1,1,-1
 267 112 l 1,2,-1
 267 595 l 1,3,-1
 46 793 l 1,4,-1
 98 850 l 1,5,-1
 347 627 l 1,6,-1
 347 80 l 1,7,-1
 96 -146 l 1,0,-1
EndSplineSet
EndChar

StartChar: uni300E
Encoding: 12302 12302 176
Width: 391
GlyphClass: 1
Flags: W
LayerCount: 2
Fore
SplineSet
44 233 m 1,0,-1
 44 826 l 1,1,-1
 347 826 l 1,2,-1
 347 666 l 1,3,-1
 204 666 l 1,4,-1
 204 233 l 1,5,-1
 44 233 l 1,0,-1
84 273 m 1,6,-1
 164 273 l 1,7,-1
 164 706 l 1,8,-1
 307 706 l 1,9,-1
 307 786 l 1,10,-1
 84 786 l 1,11,-1
 84 273 l 1,6,-1
EndSplineSet
EndChar

StartChar: uni300F
Encoding: 12303 12303 177
Width: 391
GlyphClass: 1
Flags: W
LayerCount: 2
Fore
SplineSet
347 490 m 1,0,-1
 347 -103 l 1,1,-1
 44 -103 l 1,2,-1
 44 57 l 1,3,-1
 187 57 l 1,4,-1
 187 490 l 1,5,-1
 347 490 l 1,0,-1
307 450 m 1,6,-1
 227 450 l 1,7,-1
 227 17 l 1,8,-1
 84 17 l 1,9,-1
 84 -63 l 1,10,-1
 307 -63 l 1,11,-1
 307 450 l 1,6,-1
EndSplineSet
EndChar

StartChar: uni3016
Encoding: 12310 12310 178
Width: 353
GlyphClass: 1
Flags: W
LayerCount: 2
Fore
SplineSet
309 -63 m 1,0,-1
 44 -63 l 1,1,-1
 44 825 l 1,2,-1
 309 825 l 1,3,4
 174 611 174 611 174 381 c 0,5,6
 174 153 174 153 309 -63 c 1,0,-1
238 -23 m 1,7,8
 186 78 186 78 160 179.5 c 128,-1,9
 134 281 134 281 134 381 c 0,10,11
 134 482 134 482 160 583.5 c 128,-1,12
 186 685 186 685 238 785 c 1,13,-1
 84 785 l 1,14,-1
 84 -23 l 1,15,-1
 238 -23 l 1,7,8
EndSplineSet
EndChar

StartChar: uni3017
Encoding: 12311 12311 179
Width: 353
GlyphClass: 1
Flags: W
LayerCount: 2
Fore
SplineSet
44 -63 m 1,0,1
 179 153 179 153 179 381 c 0,2,3
 179 611 179 611 44 825 c 1,4,-1
 309 825 l 1,5,-1
 309 -63 l 1,6,-1
 44 -63 l 1,0,1
115 -23 m 1,7,-1
 269 -23 l 1,8,-1
 269 785 l 1,9,-1
 115 785 l 1,10,11
 168 685 168 685 193.5 583.5 c 128,-1,12
 219 482 219 482 219 381 c 0,13,14
 219 281 219 281 193.5 179.5 c 128,-1,15
 168 78 168 78 115 -23 c 1,7,-1
EndSplineSet
EndChar

StartChar: quotedbl
Encoding: 34 34 180
Width: 346
GlyphClass: 1
Flags: W
LayerCount: 2
Fore
SplineSet
65 444 m 1,0,-1
 45 630 l 1,1,-1
 45 710 l 1,2,-1
 133 710 l 1,3,-1
 127 444 l 1,4,-1
 65 444 l 1,0,-1
219 444 m 1,5,-1
 213 710 l 1,6,-1
 301 710 l 1,7,-1
 301 630 l 1,8,-1
 281 444 l 1,9,-1
 219 444 l 1,5,-1
EndSplineSet
EndChar

StartChar: quotesingle
Encoding: 39 39 181
Width: 178
GlyphClass: 1
Flags: W
LayerCount: 2
Fore
SplineSet
61 444 m 1,0,-1
 45 630 l 1,1,-1
 45 710 l 1,2,-1
 133 710 l 1,3,-1
 133 630 l 1,4,-1
 117 444 l 1,5,-1
 61 444 l 1,0,-1
EndSplineSet
EndChar

StartChar: uni2639
Encoding: 9785 9785 182
Width: 828
GlyphClass: 1
Flags: W
LayerCount: 2
Fore
SplineSet
413 -12 m 0,0,1
 337 -12 337 -12 270 16.5 c 128,-1,2
 203 45 203 45 152 96 c 128,-1,3
 101 147 101 147 72.5 214 c 128,-1,4
 44 281 44 281 44 358 c 0,5,6
 44 434 44 434 72.5 500.5 c 128,-1,7
 101 567 101 567 152 618 c 128,-1,8
 203 669 203 669 270 697.5 c 128,-1,9
 337 726 337 726 413 726 c 0,10,11
 490 726 490 726 557 697.5 c 128,-1,12
 624 669 624 669 675 618 c 128,-1,13
 726 567 726 567 755 500.5 c 128,-1,14
 784 434 784 434 784 358 c 0,15,16
 784 281 784 281 755 214 c 128,-1,17
 726 147 726 147 675 96 c 128,-1,18
 624 45 624 45 557 16.5 c 128,-1,19
 490 -12 490 -12 413 -12 c 0,0,1
413 62 m 256,20,21
 475 62 475 62 529 84.5 c 128,-1,22
 583 107 583 107 623.5 147.5 c 128,-1,23
 664 188 664 188 686.5 242 c 128,-1,24
 709 296 709 296 709 358 c 256,25,26
 709 420 709 420 686.5 473.5 c 128,-1,27
 664 527 664 527 623.5 567 c 128,-1,28
 583 607 583 607 529 629.5 c 128,-1,29
 475 652 475 652 413 652 c 256,30,31
 351 652 351 652 297 629.5 c 128,-1,32
 243 607 243 607 203 567 c 128,-1,33
 163 527 163 527 140.5 473.5 c 128,-1,34
 118 420 118 420 118 358 c 256,35,36
 118 296 118 296 140.5 242 c 128,-1,37
 163 188 163 188 203 147.5 c 128,-1,38
 243 107 243 107 297 84.5 c 128,-1,39
 351 62 351 62 413 62 c 256,20,21
318 415 m 0,40,41
 297 415 297 415 282.5 429.5 c 128,-1,42
 268 444 268 444 268 465 c 0,43,44
 268 485 268 485 282.5 499 c 128,-1,45
 297 513 297 513 318 513 c 0,46,47
 338 513 338 513 352.5 499 c 128,-1,48
 367 485 367 485 367 465 c 0,49,50
 367 444 367 444 352.5 429.5 c 128,-1,51
 338 415 338 415 318 415 c 0,40,41
522 415 m 0,52,53
 501 415 501 415 486.5 429.5 c 128,-1,54
 472 444 472 444 472 465 c 0,55,56
 472 485 472 485 486.5 499 c 128,-1,57
 501 513 501 513 522 513 c 0,58,59
 542 513 542 513 556.5 499 c 128,-1,60
 571 485 571 485 571 465 c 0,61,62
 571 444 571 444 556.5 429.5 c 128,-1,63
 542 415 542 415 522 415 c 0,52,53
217 203 m 1,64,65
 235 280 235 280 289.5 325.5 c 128,-1,66
 344 371 344 371 419 371 c 256,67,68
 494 371 494 371 548.5 325.5 c 128,-1,69
 603 280 603 280 621 203 c 1,70,-1
 549 203 l 1,71,72
 532 252 532 252 498 277.5 c 128,-1,73
 464 303 464 303 419 303 c 256,74,75
 374 303 374 303 340 277.5 c 128,-1,76
 306 252 306 252 289 203 c 1,77,-1
 217 203 l 1,64,65
EndSplineSet
EndChar

StartChar: smileface
Encoding: 9786 9786 183
Width: 828
GlyphClass: 1
Flags: W
LayerCount: 2
Fore
SplineSet
413 -12 m 0,0,1
 337 -12 337 -12 270 16.5 c 128,-1,2
 203 45 203 45 152 96 c 128,-1,3
 101 147 101 147 72.5 214 c 128,-1,4
 44 281 44 281 44 358 c 0,5,6
 44 434 44 434 72.5 500.5 c 128,-1,7
 101 567 101 567 152 618 c 128,-1,8
 203 669 203 669 270 697.5 c 128,-1,9
 337 726 337 726 413 726 c 0,10,11
 490 726 490 726 557 697.5 c 128,-1,12
 624 669 624 669 675 618 c 128,-1,13
 726 567 726 567 755 500.5 c 128,-1,14
 784 434 784 434 784 358 c 0,15,16
 784 281 784 281 755 214 c 128,-1,17
 726 147 726 147 675 96 c 128,-1,18
 624 45 624 45 557 16.5 c 128,-1,19
 490 -12 490 -12 413 -12 c 0,0,1
413 62 m 256,20,21
 475 62 475 62 529 84.5 c 128,-1,22
 583 107 583 107 623.5 147.5 c 128,-1,23
 664 188 664 188 686.5 242 c 128,-1,24
 709 296 709 296 709 358 c 256,25,26
 709 420 709 420 686.5 473.5 c 128,-1,27
 664 527 664 527 623.5 567 c 128,-1,28
 583 607 583 607 529 629.5 c 128,-1,29
 475 652 475 652 413 652 c 256,30,31
 351 652 351 652 297 629.5 c 128,-1,32
 243 607 243 607 203 567 c 128,-1,33
 163 527 163 527 140.5 473.5 c 128,-1,34
 118 420 118 420 118 358 c 256,35,36
 118 296 118 296 140.5 242 c 128,-1,37
 163 188 163 188 203 147.5 c 128,-1,38
 243 107 243 107 297 84.5 c 128,-1,39
 351 62 351 62 413 62 c 256,20,21
318 415 m 0,40,41
 297 415 297 415 282.5 429.5 c 128,-1,42
 268 444 268 444 268 465 c 0,43,44
 268 485 268 485 282.5 499 c 128,-1,45
 297 513 297 513 318 513 c 0,46,47
 338 513 338 513 352.5 499 c 128,-1,48
 367 485 367 485 367 465 c 0,49,50
 367 444 367 444 352.5 429.5 c 128,-1,51
 338 415 338 415 318 415 c 0,40,41
522 415 m 0,52,53
 501 415 501 415 486.5 429.5 c 128,-1,54
 472 444 472 444 472 465 c 0,55,56
 472 485 472 485 486.5 499 c 128,-1,57
 501 513 501 513 522 513 c 0,58,59
 542 513 542 513 556.5 499 c 128,-1,60
 571 485 571 485 571 465 c 0,61,62
 571 444 571 444 556.5 429.5 c 128,-1,63
 542 415 542 415 522 415 c 0,52,53
419 163 m 256,64,65
 364 163 364 163 318 187.5 c 128,-1,66
 272 212 272 212 242 254 c 128,-1,67
 212 296 212 296 204 350 c 1,68,-1
 273 350 l 1,69,70
 285 298 285 298 325.5 264 c 128,-1,71
 366 230 366 230 419 230 c 256,72,73
 472 230 472 230 512.5 264 c 128,-1,74
 553 298 553 298 565 350 c 1,75,-1
 635 350 l 1,76,77
 627 296 627 296 596.5 254 c 128,-1,78
 566 212 566 212 520 187.5 c 128,-1,79
 474 163 474 163 419 163 c 256,64,65
EndSplineSet
EndChar

StartChar: uniF8FF
Encoding: 63743 63743 184
Width: 600
GlyphClass: 1
Flags: W
LayerCount: 2
Fore
SplineSet
105 0 m 2,0,1
 63 0 63 0 35.5 27.5 c 128,-1,2
 8 55 8 55 8 97 c 2,3,-1
 8 487 l 2,4,5
 8 529 8 529 35.5 556.5 c 128,-1,6
 63 584 63 584 105 584 c 2,7,-1
 495 584 l 2,8,9
 537 584 537 584 564.5 556.5 c 128,-1,10
 592 529 592 529 592 487 c 2,11,-1
 592 97 l 2,12,13
 592 55 592 55 564.5 27.5 c 128,-1,14
 537 0 537 0 495 0 c 2,15,-1
 105 0 l 2,0,1
86 124 m 1,16,-1
 513 124 l 1,17,-1
 299 495 l 1,18,-1
 86 124 l 1,16,-1
EndSplineSet
EndChar

StartChar: at
Encoding: 64 64 185
Width: 906
GlyphClass: 1
Flags: W
LayerCount: 2
Fore
SplineSet
632 -68 m 1,0,1
 532 -110 532 -110 410 -110 c 0,2,3
 295 -110 295 -110 213.5 -67.5 c 128,-1,4
 132 -25 132 -25 88.5 56 c 128,-1,5
 45 137 45 137 45 250 c 0,6,7
 45 352 45 352 77 436 c 128,-1,8
 109 520 109 520 168.5 581.5 c 128,-1,9
 228 643 228 643 309 676.5 c 128,-1,10
 390 710 390 710 488 710 c 0,11,12
 601 710 601 710 685 666 c 128,-1,13
 769 622 769 622 815 542 c 128,-1,14
 861 462 861 462 861 353 c 0,15,16
 861 273 861 273 837 212 c 128,-1,17
 813 151 813 151 771 116.5 c 128,-1,18
 729 82 729 82 674 82 c 0,19,20
 633 82 633 82 605 103.5 c 128,-1,21
 577 125 577 125 569 163 c 1,22,23
 545 127 545 127 503 102.5 c 128,-1,24
 461 78 461 78 416 78 c 0,25,26
 328 78 328 78 281 128.5 c 128,-1,27
 234 179 234 179 234 260 c 0,28,29
 234 327 234 327 260.5 382 c 128,-1,30
 287 437 287 437 334.5 469.5 c 128,-1,31
 382 502 382 502 446 502 c 0,32,33
 491 502 491 502 525.5 484 c 128,-1,34
 560 466 560 466 576 436 c 1,35,-1
 581 500 l 1,36,-1
 654 500 l 1,37,-1
 638 290 l 2,38,39
 637 268 637 268 634.5 240 c 128,-1,40
 632 212 632 212 632 194 c 0,41,42
 632 148 632 148 680 148 c 0,43,44
 731 148 731 148 760 202 c 128,-1,45
 789 256 789 256 789 350 c 0,46,47
 789 490 789 490 710.5 565 c 128,-1,48
 632 640 632 640 486 640 c 0,49,50
 376 640 376 640 293 591 c 128,-1,51
 210 542 210 542 163.5 455 c 128,-1,52
 117 368 117 368 117 252 c 0,53,54
 117 112 117 112 193.5 36 c 128,-1,55
 270 -40 270 -40 412 -40 c 0,56,57
 524 -40 524 -40 615 0 c 1,58,-1
 632 -68 l 1,0,1
426 144 m 0,59,60
 476 144 476 144 507.5 168.5 c 128,-1,61
 539 193 539 193 554.5 231.5 c 128,-1,62
 570 270 570 270 570 311 c 0,63,64
 570 364 570 364 543 400 c 128,-1,65
 516 436 516 436 454 436 c 0,66,67
 409 436 409 436 378.5 412.5 c 128,-1,68
 348 389 348 389 332 350.5 c 128,-1,69
 316 312 316 312 316 266 c 0,70,71
 316 214 316 214 340.5 179 c 128,-1,72
 365 144 365 144 426 144 c 0,59,60
EndSplineSet
EndChar

StartChar: ampersand
Encoding: 38 38 186
Width: 620
GlyphClass: 1
Flags: W
LayerCount: 2
Fore
SplineSet
260 -16 m 0,0,1
 158 -16 158 -16 99 33.5 c 128,-1,2
 40 83 40 83 40 174 c 0,3,4
 40 220 40 220 53 255.5 c 128,-1,5
 66 291 66 291 96.5 324 c 128,-1,6
 127 357 127 357 180 394 c 1,7,8
 146 439 146 439 127 477 c 128,-1,9
 108 515 108 515 108 562 c 0,10,11
 108 639 108 639 154.5 682.5 c 128,-1,12
 201 726 201 726 282 726 c 0,13,14
 362 726 362 726 405 685.5 c 128,-1,15
 448 645 448 645 448 574 c 0,16,17
 448 517 448 517 414 471.5 c 128,-1,18
 380 426 380 426 300 373 c 1,19,-1
 462 166 l 1,20,21
 498 216 498 216 498 318 c 1,22,-1
 582 310 l 1,23,24
 581 250 581 250 562.5 194 c 128,-1,25
 544 138 544 138 515 103 c 1,26,-1
 600 0 l 1,27,-1
 499 0 l 1,28,-1
 462 45 l 1,29,30
 433 17 433 17 382.5 0.5 c 128,-1,31
 332 -16 332 -16 260 -16 c 0,0,1
254 434 m 1,32,33
 311 469 311 469 334.5 499.5 c 128,-1,34
 358 530 358 530 358 568 c 0,35,36
 358 604 358 604 338 623 c 128,-1,37
 318 642 318 642 282 642 c 0,38,39
 242 642 242 642 220 621 c 128,-1,40
 198 600 198 600 198 562 c 0,41,42
 198 531 198 531 210.5 503 c 128,-1,43
 223 475 223 475 254 434 c 1,32,33
270 64 m 0,44,45
 321 64 321 64 355 76 c 128,-1,46
 389 88 389 88 406 106 c 1,47,-1
 230 328 l 1,48,49
 176 291 176 291 153 256 c 128,-1,50
 130 221 130 221 130 174 c 0,51,52
 130 124 130 124 163.5 94 c 128,-1,53
 197 64 197 64 270 64 c 0,44,45
EndSplineSet
EndChar

StartChar: bar
Encoding: 124 124 187
Width: 264
GlyphClass: 1
Flags: W
LayerCount: 2
Fore
SplineSet
92 -110 m 1,0,-1
 92 750 l 1,1,-1
 172 750 l 1,2,-1
 172 -110 l 1,3,-1
 92 -110 l 1,0,-1
EndSplineSet
EndChar

StartChar: cent
Encoding: 162 162 188
Width: 546
GlyphClass: 2
Flags: W
AnchorPoint: "Anchor-3" 287 622 basechar 0
AnchorPoint: "Anchor-0" 287 92 basechar 0
LayerCount: 2
Fore
SplineSet
212 -12 m 1,0,-1
 221 88 l 1,1,2
 139 109 139 109 91.5 180 c 128,-1,3
 44 251 44 251 44 357 c 0,4,5
 44 437 44 437 71.5 497.5 c 128,-1,6
 99 558 99 558 149 593.5 c 128,-1,7
 199 629 199 629 267 633 c 1,8,-1
 275 726 l 1,9,-1
 345 726 l 1,10,-1
 337 630 l 1,11,12
 408 618 408 618 454 572 c 128,-1,13
 500 526 500 526 512 450 c 1,14,-1
 424 444 l 1,15,16
 417 485 417 485 392 512 c 128,-1,17
 367 539 367 539 330 549 c 1,18,-1
 297 160 l 1,19,20
 347 163 347 163 381 193 c 128,-1,21
 415 223 415 223 424 280 c 1,22,-1
 512 274 l 1,23,24
 499 186 499 186 439 133 c 128,-1,25
 379 80 379 80 290 80 c 1,26,-1
 282 -12 l 1,27,-1
 212 -12 l 1,0,-1
132 357 m 0,28,29
 132 285 132 285 157 237 c 128,-1,30
 182 189 182 189 228 171 c 1,31,-1
 260 552 l 1,32,33
 199 543 199 543 165.5 491.5 c 128,-1,34
 132 440 132 440 132 357 c 0,28,29
EndSplineSet
EndChar

StartChar: dollar
Encoding: 36 36 189
Width: 629
GlyphClass: 2
Flags: W
AnchorPoint: "Anchor-3" 301 696 basechar 0
AnchorPoint: "Anchor-0" 321 0 basechar 0
LayerCount: 2
Fore
SplineSet
285 -90 m 1,0,-1
 285 -13 l 1,1,2
 184 -1 184 -1 123.5 63 c 128,-1,3
 63 127 63 127 55 222 c 1,4,-1
 143 228 l 1,5,6
 152 162 152 162 187.5 121.5 c 128,-1,7
 223 81 223 81 285 71 c 1,8,-1
 285 322 l 1,9,10
 205 342 205 342 158 366.5 c 128,-1,11
 111 391 111 391 90.5 426.5 c 128,-1,12
 70 462 70 462 70 514 c 0,13,14
 70 598 70 598 127.5 652.5 c 128,-1,15
 185 707 185 707 285 711 c 1,16,-1
 285 800 l 1,17,-1
 359 800 l 1,18,-1
 359 707 l 1,19,20
 447 691 447 691 498 632 c 128,-1,21
 549 573 549 573 560 490 c 1,22,-1
 471 484 l 1,23,24
 464 534 464 534 436.5 570.5 c 128,-1,25
 409 607 409 607 359 621 c 1,26,-1
 359 387 l 1,27,28
 479 355 479 355 526.5 304.5 c 128,-1,29
 574 254 574 254 574 182 c 0,30,31
 574 126 574 126 547 83.5 c 128,-1,32
 520 41 520 41 471 15.5 c 128,-1,33
 422 -10 422 -10 359 -15 c 1,34,-1
 359 -90 l 1,35,-1
 285 -90 l 1,0,-1
158 517 m 0,36,37
 158 489 158 489 168.5 470 c 128,-1,38
 179 451 179 451 206.5 436 c 128,-1,39
 234 421 234 421 285 407 c 1,40,-1
 285 629 l 1,41,42
 226 625 226 625 192 595 c 128,-1,43
 158 565 158 565 158 517 c 0,36,37
486 176 m 0,44,45
 486 203 486 203 476 225 c 128,-1,46
 466 247 466 247 438.5 265.5 c 128,-1,47
 411 284 411 284 359 301 c 1,48,-1
 359 68 l 1,49,50
 419 73 419 73 452.5 100.5 c 128,-1,51
 486 128 486 128 486 176 c 0,44,45
EndSplineSet
EndChar

StartChar: sterling
Encoding: 163 163 190
Width: 611
GlyphClass: 1
Flags: W
LayerCount: 2
Fore
SplineSet
56 0 m 1,0,-1
 56 82 l 1,1,2
 112 116 112 116 142.5 165.5 c 128,-1,3
 173 215 173 215 173 278 c 0,4,5
 173 287 173 287 172 297 c 128,-1,6
 171 307 171 307 169 317 c 1,7,-1
 55 317 l 1,8,-1
 55 391 l 1,9,-1
 152 391 l 1,10,11
 139 430 139 430 131 464 c 128,-1,12
 123 498 123 498 123 529 c 0,13,14
 123 585 123 585 150.5 629.5 c 128,-1,15
 178 674 178 674 226 700 c 128,-1,16
 274 726 274 726 334 726 c 0,17,18
 409 726 409 726 457 701.5 c 128,-1,19
 505 677 505 677 531 637 c 128,-1,20
 557 597 557 597 564 550 c 1,21,-1
 464 543 l 1,22,23
 451 593 451 593 416.5 617.5 c 128,-1,24
 382 642 382 642 338 642 c 0,25,26
 281 642 281 642 246.5 606.5 c 128,-1,27
 212 571 212 571 212 515 c 0,28,29
 212 492 212 492 219 461.5 c 128,-1,30
 226 431 226 431 238 391 c 1,31,-1
 416 391 l 1,32,-1
 416 317 l 1,33,-1
 250 317 l 1,34,35
 250 228 250 228 227.5 173.5 c 128,-1,36
 205 119 205 119 142 87 c 1,37,-1
 552 87 l 1,38,-1
 552 0 l 1,39,-1
 56 0 l 1,0,-1
EndSplineSet
EndChar

StartChar: plus
Encoding: 43 43 191
Width: 558
GlyphClass: 1
Flags: W
LayerCount: 2
Fore
SplineSet
240 56 m 1,0,-1
 240 256 l 1,1,-1
 40 256 l 1,2,-1
 40 334 l 1,3,-1
 240 334 l 1,4,-1
 240 534 l 1,5,-1
 318 534 l 1,6,-1
 318 334 l 1,7,-1
 518 334 l 1,8,-1
 518 256 l 1,9,-1
 318 256 l 1,10,-1
 318 56 l 1,11,-1
 240 56 l 1,0,-1
EndSplineSet
EndChar

StartChar: multiply
Encoding: 215 215 192
Width: 502
GlyphClass: 1
Flags: W
LayerCount: 2
Fore
SplineSet
40 139 m 1,0,-1
 196 295 l 1,1,-1
 40 451 l 1,2,-1
 95 506 l 1,3,-1
 251 350 l 1,4,-1
 407 506 l 1,5,-1
 462 451 l 1,6,-1
 306 295 l 1,7,-1
 462 139 l 1,8,-1
 407 84 l 1,9,-1
 251 240 l 1,10,-1
 95 84 l 1,11,-1
 40 139 l 1,0,-1
EndSplineSet
EndChar

StartChar: divide
Encoding: 247 247 193
Width: 540
GlyphClass: 1
Flags: W
LayerCount: 2
Fore
SplineSet
270 414 m 256,0,1
 240 414 240 414 223 431.5 c 128,-1,2
 206 449 206 449 206 476 c 256,3,4
 206 503 206 503 223 520.5 c 128,-1,5
 240 538 240 538 270 538 c 256,6,7
 300 538 300 538 317 520.5 c 128,-1,8
 334 503 334 503 334 476 c 256,9,10
 334 449 334 449 317 431.5 c 128,-1,11
 300 414 300 414 270 414 c 256,0,1
40 256 m 1,12,-1
 40 334 l 1,13,-1
 500 334 l 1,14,-1
 500 256 l 1,15,-1
 40 256 l 1,12,-1
270 52 m 256,16,17
 240 52 240 52 223 69.5 c 128,-1,18
 206 87 206 87 206 114 c 256,19,20
 206 141 206 141 223 158.5 c 128,-1,21
 240 176 240 176 270 176 c 256,22,23
 300 176 300 176 317 158.5 c 128,-1,24
 334 141 334 141 334 114 c 256,25,26
 334 87 334 87 317 69.5 c 128,-1,27
 300 52 300 52 270 52 c 256,16,17
EndSplineSet
EndChar

StartChar: equal
Encoding: 61 61 194
Width: 540
GlyphClass: 1
Flags: W
LayerCount: 2
Fore
SplineSet
40 363 m 1,0,-1
 40 441 l 1,1,-1
 500 441 l 1,2,-1
 500 363 l 1,3,-1
 40 363 l 1,0,-1
40 157 m 1,4,-1
 40 235 l 1,5,-1
 500 235 l 1,6,-1
 500 157 l 1,7,-1
 40 157 l 1,4,-1
EndSplineSet
EndChar

StartChar: notequal
Encoding: 8800 8800 195
Width: 540
GlyphClass: 1
Flags: W
LayerCount: 2
Fore
SplineSet
157 37 m 1,0,-1
 193 157 l 1,1,-1
 40 157 l 1,2,-1
 40 235 l 1,3,-1
 216 235 l 1,4,-1
 254 363 l 1,5,-1
 40 363 l 1,6,-1
 40 441 l 1,7,-1
 277 441 l 1,8,-1
 313 561 l 1,9,-1
 383 561 l 1,10,-1
 347 441 l 1,11,-1
 500 441 l 1,12,-1
 500 363 l 1,13,-1
 324 363 l 1,14,-1
 286 235 l 1,15,-1
 500 235 l 1,16,-1
 500 157 l 1,17,-1
 263 157 l 1,18,-1
 227 37 l 1,19,-1
 157 37 l 1,0,-1
EndSplineSet
EndChar

StartChar: greater
Encoding: 62 62 196
Width: 544
GlyphClass: 1
Flags: W
LayerCount: 2
Fore
SplineSet
50 32 m 1,0,-1
 50 116 l 1,1,-1
 437 289 l 1,2,-1
 50 462 l 1,3,-1
 50 546 l 1,4,-1
 504 342 l 1,5,-1
 504 236 l 1,6,-1
 50 32 l 1,0,-1
EndSplineSet
EndChar

StartChar: less
Encoding: 60 60 197
Width: 544
GlyphClass: 1
Flags: W
LayerCount: 2
Fore
SplineSet
494 32 m 1,0,-1
 40 236 l 1,1,-1
 40 342 l 1,2,-1
 494 546 l 1,3,-1
 494 462 l 1,4,-1
 107 289 l 1,5,-1
 494 116 l 1,6,-1
 494 32 l 1,0,-1
EndSplineSet
EndChar

StartChar: greaterequal
Encoding: 8805 8805 198
Width: 544
GlyphClass: 1
Flags: W
LayerCount: 2
Fore
SplineSet
50 112 m 1,0,-1
 50 196 l 1,1,-1
 434 329 l 1,2,-1
 50 462 l 1,3,-1
 50 546 l 1,4,-1
 504 382 l 1,5,-1
 504 276 l 1,6,-1
 50 112 l 1,0,-1
50 0 m 1,7,-1
 50 74 l 1,8,-1
 504 74 l 1,9,-1
 504 0 l 1,10,-1
 50 0 l 1,7,-1
EndSplineSet
EndChar

StartChar: lessequal
Encoding: 8804 8804 199
Width: 544
GlyphClass: 1
Flags: W
LayerCount: 2
Fore
SplineSet
494 112 m 1,0,-1
 40 276 l 1,1,-1
 40 382 l 1,2,-1
 494 546 l 1,3,-1
 494 462 l 1,4,-1
 110 329 l 1,5,-1
 494 196 l 1,6,-1
 494 112 l 1,0,-1
494 0 m 1,7,-1
 40 0 l 1,8,-1
 40 74 l 1,9,-1
 494 74 l 1,10,-1
 494 0 l 1,7,-1
EndSplineSet
EndChar

StartChar: asciitilde
Encoding: 126 126 201
Width: 523
GlyphClass: 1
Flags: W
LayerCount: 2
Fore
SplineSet
352 236 m 0,0,1
 317 236 317 236 295.5 249.5 c 128,-1,2
 274 263 274 263 244 299 c 0,3,4
 224 324 224 324 212.5 335.5 c 128,-1,5
 201 347 201 347 192.5 350 c 128,-1,6
 184 353 184 353 173 353 c 0,7,8
 119 353 119 353 119 246 c 1,9,-1
 40 246 l 1,10,11
 40 328 40 328 76 379 c 128,-1,12
 112 430 112 430 170 430 c 0,13,14
 208 430 208 430 230.5 415 c 128,-1,15
 253 400 253 400 279 366 c 256,16,17
 305 332 305 332 318.5 322.5 c 128,-1,18
 332 313 332 313 351 313 c 0,19,20
 404 313 404 313 404 420 c 1,21,-1
 483 420 l 1,22,23
 483 338 483 338 447 287 c 128,-1,24
 411 236 411 236 352 236 c 0,0,1
EndSplineSet
EndChar

StartChar: asciicircum
Encoding: 94 94 202
Width: 426
GlyphClass: 1
Flags: W
LayerCount: 2
Fore
SplineSet
40 383 m 1,0,-1
 160 673 l 1,1,-1
 266 673 l 1,2,-1
 386 383 l 1,3,-1
 304 383 l 1,4,-1
 213 598 l 1,5,-1
 122 383 l 1,6,-1
 40 383 l 1,0,-1
EndSplineSet
EndChar

StartChar: infinity
Encoding: 8734 8734 203
Width: 827
GlyphClass: 1
Flags: W
LayerCount: 2
Fore
SplineSet
213 95 m 0,0,1
 166 95 166 95 126.5 116 c 128,-1,2
 87 137 87 137 63.5 176.5 c 128,-1,3
 40 216 40 216 40 271 c 0,4,5
 40 324 40 324 63.5 363.5 c 128,-1,6
 87 403 87 403 126.5 425 c 128,-1,7
 166 447 166 447 213 447 c 0,8,9
 337 447 337 447 414 324 c 1,10,11
 456 387 456 387 501 417 c 128,-1,12
 546 447 546 447 613 447 c 0,13,14
 662 447 662 447 701.5 423 c 128,-1,15
 741 399 741 399 764 359.5 c 128,-1,16
 787 320 787 320 787 271 c 0,17,18
 787 223 787 223 766 183 c 128,-1,19
 745 143 745 143 706.5 119 c 128,-1,20
 668 95 668 95 614 95 c 0,21,22
 556 95 556 95 507.5 121 c 128,-1,23
 459 147 459 147 414 219 c 1,24,25
 378 158 378 158 325.5 126.5 c 128,-1,26
 273 95 273 95 213 95 c 0,0,1
223 171 m 0,27,28
 265 171 265 171 304 196.5 c 128,-1,29
 343 222 343 222 374 271 c 1,30,31
 343 319 343 319 304.5 345 c 128,-1,32
 266 371 266 371 223 371 c 256,33,34
 180 371 180 371 154 341.5 c 128,-1,35
 128 312 128 312 128 271 c 0,36,37
 128 223 128 223 154 197 c 128,-1,38
 180 171 180 171 223 171 c 0,27,28
607 171 m 256,39,40
 650 172 650 172 674.5 201.5 c 128,-1,41
 699 231 699 231 699 271 c 0,42,43
 699 312 699 312 674.5 340.5 c 128,-1,44
 650 369 650 369 607 370 c 0,45,46
 522 371 522 371 453 269 c 1,47,48
 486 222 486 222 525 196 c 128,-1,49
 564 170 564 170 607 171 c 256,39,40
EndSplineSet
EndChar

StartChar: integral
Encoding: 8747 8747 204
Width: 378
GlyphClass: 1
Flags: W
LayerCount: 2
Fore
SplineSet
46 -150 m 2,0,-1
 0 -150 l 1,1,-1
 7 -76 l 1,2,-1
 55 -76 l 2,3,4
 82 -76 82 -76 97 -64.5 c 128,-1,5
 112 -53 112 -53 116 -20 c 2,6,-1
 181 576 l 2,7,8
 196 710 196 710 332 710 c 2,9,-1
 378 710 l 1,10,-1
 371 636 l 1,11,-1
 325 636 l 2,12,13
 269 636 269 636 263 580 c 2,14,-1
 197 -16 l 2,15,16
 190 -83 190 -83 153.5 -116.5 c 128,-1,17
 117 -150 117 -150 46 -150 c 2,0,-1
EndSplineSet
EndChar

StartChar: summation
Encoding: 8721 8721 205
Width: 532
GlyphClass: 1
Flags: W
LayerCount: 2
Fore
SplineSet
28 0 m 1,0,-1
 28 84 l 1,1,-1
 210 355 l 1,2,-1
 28 626 l 1,3,-1
 28 710 l 1,4,-1
 504 710 l 1,5,-1
 504 626 l 1,6,-1
 123 626 l 1,7,-1
 308 355 l 1,8,-1
 123 84 l 1,9,-1
 504 84 l 1,10,-1
 504 0 l 1,11,-1
 28 0 l 1,0,-1
EndSplineSet
EndChar

StartChar: radical
Encoding: 8730 8730 206
Width: 660
GlyphClass: 1
Flags: W
LayerCount: 2
Fore
SplineSet
153 -150 m 1,0,-1
 22 336 l 1,1,-1
 102 336 l 1,2,-1
 199 -28 l 1,3,-1
 358 710 l 1,4,-1
 638 710 l 1,5,-1
 638 636 l 1,6,-1
 422 636 l 1,7,-1
 252 -150 l 1,8,-1
 153 -150 l 1,0,-1
EndSplineSet
EndChar

StartChar: percent
Encoding: 37 37 207
Width: 802
GlyphClass: 1
Flags: W
LayerCount: 2
Fore
SplineSet
198 366 m 0,0,1
 131 366 131 366 87.5 411.5 c 128,-1,2
 44 457 44 457 44 542 c 0,3,4
 44 628 44 628 87.5 673 c 128,-1,5
 131 718 131 718 198 718 c 0,6,7
 266 718 266 718 309 673 c 128,-1,8
 352 628 352 628 352 542 c 0,9,10
 352 457 352 457 309 411.5 c 128,-1,11
 266 366 266 366 198 366 c 0,0,1
116 0 m 1,12,-1
 606 710 l 1,13,-1
 686 710 l 1,14,-1
 196 0 l 1,15,-1
 116 0 l 1,12,-1
198 428 m 0,16,17
 239 428 239 428 259.5 458 c 128,-1,18
 280 488 280 488 280 542 c 256,19,20
 280 596 280 596 259.5 626 c 128,-1,21
 239 656 239 656 198 656 c 0,22,23
 158 656 158 656 137 626 c 128,-1,24
 116 596 116 596 116 542 c 256,25,26
 116 488 116 488 137 458 c 128,-1,27
 158 428 158 428 198 428 c 0,16,17
604 -8 m 0,28,29
 537 -8 537 -8 493.5 37.5 c 128,-1,30
 450 83 450 83 450 168 c 0,31,32
 450 254 450 254 493.5 299 c 128,-1,33
 537 344 537 344 604 344 c 0,34,35
 672 344 672 344 715 299 c 128,-1,36
 758 254 758 254 758 168 c 0,37,38
 758 83 758 83 715 37.5 c 128,-1,39
 672 -8 672 -8 604 -8 c 0,28,29
604 54 m 0,40,41
 645 54 645 54 665.5 84 c 128,-1,42
 686 114 686 114 686 168 c 256,43,44
 686 222 686 222 665.5 252 c 128,-1,45
 645 282 645 282 604 282 c 0,46,47
 564 282 564 282 543 252 c 128,-1,48
 522 222 522 222 522 168 c 256,49,50
 522 114 522 114 543 84 c 128,-1,51
 564 54 564 54 604 54 c 0,40,41
EndSplineSet
EndChar

StartChar: arrowup
Encoding: 8593 8593 208
Width: 712
GlyphClass: 1
Flags: W
LayerCount: 2
Fore
SplineSet
315 0 m 1,0,-1
 315 559 l 1,1,-1
 45 289 l 1,2,-1
 45 400 l 1,3,-1
 356 710 l 1,4,-1
 667 399 l 1,5,-1
 667 288 l 1,6,-1
 397 557 l 1,7,-1
 397 0 l 1,8,-1
 315 0 l 1,0,-1
EndSplineSet
Substitution2: "'ss07' Style Set 7 in Latin lookup 40 subtable" arrowup.ss07
Substitution2: "'aalt' Access All Alternates in Latin lookup 0 subtable" arrowup.ss07
EndChar

StartChar: arrowright
Encoding: 8594 8594 209
Width: 800
GlyphClass: 1
Flags: W
LayerCount: 2
Fore
SplineSet
333 47 m 1,0,-1
 602 317 l 1,1,-1
 45 317 l 1,2,-1
 45 399 l 1,3,-1
 604 399 l 1,4,-1
 334 669 l 1,5,-1
 445 669 l 1,6,-1
 755 358 l 1,7,-1
 444 47 l 1,8,-1
 333 47 l 1,0,-1
EndSplineSet
Substitution2: "'ss07' Style Set 7 in Latin lookup 40 subtable" arrowright.ss07
Substitution2: "'aalt' Access All Alternates in Latin lookup 0 subtable" arrowright.ss07
EndChar

StartChar: arrowdown
Encoding: 8595 8595 210
Width: 712
GlyphClass: 1
Flags: W
LayerCount: 2
Fore
SplineSet
315 710 m 1,0,-1
 397 710 l 1,1,-1
 397 153 l 1,2,-1
 667 422 l 1,3,-1
 667 311 l 1,4,-1
 356 0 l 1,5,-1
 45 310 l 1,6,-1
 45 421 l 1,7,-1
 315 151 l 1,8,-1
 315 710 l 1,0,-1
EndSplineSet
Substitution2: "'ss07' Style Set 7 in Latin lookup 40 subtable" arrowdown.ss07
Substitution2: "'aalt' Access All Alternates in Latin lookup 0 subtable" arrowdown.ss07
EndChar

StartChar: arrowleft
Encoding: 8592 8592 211
Width: 800
GlyphClass: 1
Flags: W
LayerCount: 2
Fore
SplineSet
467 47 m 1,0,-1
 356 47 l 1,1,-1
 45 358 l 1,2,-1
 355 669 l 1,3,-1
 466 669 l 1,4,-1
 196 399 l 1,5,-1
 755 399 l 1,6,-1
 755 317 l 1,7,-1
 198 317 l 1,8,-1
 467 47 l 1,0,-1
EndSplineSet
Substitution2: "'ss07' Style Set 7 in Latin lookup 40 subtable" arrowleft.ss07
Substitution2: "'aalt' Access All Alternates in Latin lookup 0 subtable" arrowleft.ss07
EndChar

StartChar: arrowboth
Encoding: 8596 8596 212
Width: 1036
GlyphClass: 1
Flags: W
LayerCount: 2
Fore
SplineSet
467 47 m 1,0,-1
 356 47 l 1,1,-1
 45 358 l 1,2,-1
 355 669 l 1,3,-1
 466 669 l 1,4,-1
 196 399 l 1,5,-1
 840 399 l 1,6,-1
 570 669 l 1,7,-1
 681 669 l 1,8,-1
 991 358 l 1,9,-1
 680 47 l 1,10,-1
 569 47 l 1,11,-1
 838 317 l 1,12,-1
 198 317 l 1,13,-1
 467 47 l 1,0,-1
EndSplineSet
Substitution2: "'ss07' Style Set 7 in Latin lookup 40 subtable" arrowboth.ss07
Substitution2: "'aalt' Access All Alternates in Latin lookup 0 subtable" arrowboth.ss07
EndChar

StartChar: arrowupdn
Encoding: 8597 8597 213
Width: 712
GlyphClass: 1
Flags: W
LayerCount: 2
Fore
SplineSet
45 261 m 1,0,-1
 315 -8 l 1,1,-1
 315 632 l 1,2,-1
 45 363 l 1,3,-1
 45 474 l 1,4,-1
 356 785 l 1,5,-1
 667 475 l 1,6,-1
 667 364 l 1,7,-1
 397 634 l 1,8,-1
 397 -10 l 1,9,-1
 667 260 l 1,10,-1
 667 149 l 1,11,-1
 356 -161 l 1,12,-1
 45 150 l 1,13,-1
 45 261 l 1,0,-1
EndSplineSet
Substitution2: "'ss07' Style Set 7 in Latin lookup 40 subtable" arrowupdn.ss07
Substitution2: "'aalt' Access All Alternates in Latin lookup 0 subtable" arrowupdn.ss07
EndChar

StartChar: arrowup.ss07
Encoding: 65690 -1 214
Width: 411
GlyphClass: 1
Flags: W
LayerCount: 2
Fore
SplineSet
165 18 m 1,0,-1
 165 501 l 1,1,-1
 45 501 l 1,2,-1
 206 694 l 1,3,-1
 366 500 l 1,4,-1
 247 500 l 1,5,-1
 247 18 l 1,6,-1
 165 18 l 1,0,-1
EndSplineSet
EndChar

StartChar: arrowright.ss07
Encoding: 65692 -1 215
Width: 766
GlyphClass: 1
Flags: W
LayerCount: 2
Fore
SplineSet
45 408 m 1,0,-1
 528 408 l 1,1,-1
 528 528 l 1,2,-1
 721 367 l 1,3,-1
 527 207 l 1,4,-1
 527 326 l 1,5,-1
 45 326 l 1,6,-1
 45 408 l 1,0,-1
EndSplineSet
EndChar

StartChar: arrowdown.ss07
Encoding: 65694 -1 216
Width: 411
GlyphClass: 1
Flags: W
LayerCount: 2
Fore
SplineSet
366 212 m 1,0,-1
 206 18 l 1,1,-1
 45 211 l 1,2,-1
 165 211 l 1,3,-1
 165 694 l 1,4,-1
 247 694 l 1,5,-1
 247 212 l 1,6,-1
 366 212 l 1,0,-1
EndSplineSet
EndChar

StartChar: arrowleft.ss07
Encoding: 65696 -1 217
Width: 766
GlyphClass: 1
Flags: W
LayerCount: 2
Fore
SplineSet
239 210 m 1,0,-1
 45 370 l 1,1,-1
 238 531 l 1,2,-1
 238 411 l 1,3,-1
 721 411 l 1,4,-1
 721 329 l 1,5,-1
 239 329 l 1,6,-1
 239 210 l 1,0,-1
EndSplineSet
EndChar

StartChar: arrowboth.ss07
Encoding: 65698 -1 218
Width: 834
GlyphClass: 1
Flags: W
LayerCount: 2
Fore
SplineSet
238 181 m 1,0,-1
 45 342 l 1,1,-1
 239 503 l 1,2,-1
 239 383 l 1,3,-1
 595 383 l 1,4,-1
 595 503 l 1,5,-1
 789 342 l 1,6,-1
 596 181 l 1,7,-1
 596 301 l 1,8,-1
 238 301 l 1,9,-1
 238 181 l 1,0,-1
EndSplineSet
EndChar

StartChar: arrowupdn.ss07
Encoding: 65699 -1 219
Width: 412
GlyphClass: 1
Flags: W
LayerCount: 2
Fore
SplineSet
367 172 m 1,0,-1
 206 -21 l 1,1,-1
 45 173 l 1,2,-1
 165 173 l 1,3,-1
 165 529 l 1,4,-1
 45 529 l 1,5,-1
 206 723 l 1,6,-1
 367 530 l 1,7,-1
 247 530 l 1,8,-1
 247 172 l 1,9,-1
 367 172 l 1,0,-1
EndSplineSet
EndChar

StartChar: uni25CF
Encoding: 9679 9679 220
Width: 844
GlyphClass: 1
Flags: W
LayerCount: 2
Fore
SplineSet
422 -12 m 256,0,1
 342 -12 342 -12 273.5 15.5 c 128,-1,2
 205 43 205 43 153.5 92.5 c 128,-1,3
 102 142 102 142 73.5 209 c 128,-1,4
 45 276 45 276 45 356 c 0,5,6
 45 437 45 437 73.5 504.5 c 128,-1,7
 102 572 102 572 153.5 621.5 c 128,-1,8
 205 671 205 671 273.5 698.5 c 128,-1,9
 342 726 342 726 422 726 c 256,10,11
 502 726 502 726 570.5 698.5 c 128,-1,12
 639 671 639 671 690.5 621.5 c 128,-1,13
 742 572 742 572 770.5 504.5 c 128,-1,14
 799 437 799 437 799 356 c 0,15,16
 799 276 799 276 770.5 209 c 128,-1,17
 742 142 742 142 690.5 92.5 c 128,-1,18
 639 43 639 43 570.5 15.5 c 128,-1,19
 502 -12 502 -12 422 -12 c 256,0,1
EndSplineSet
EndChar

StartChar: circle
Encoding: 9675 9675 221
Width: 844
GlyphClass: 1
Flags: W
LayerCount: 2
Fore
SplineSet
422 -12 m 256,0,1
 342 -12 342 -12 273.5 15.5 c 128,-1,2
 205 43 205 43 153.5 92.5 c 128,-1,3
 102 142 102 142 73.5 209 c 128,-1,4
 45 276 45 276 45 356 c 0,5,6
 45 437 45 437 73.5 504.5 c 128,-1,7
 102 572 102 572 153.5 621.5 c 128,-1,8
 205 671 205 671 273.5 698.5 c 128,-1,9
 342 726 342 726 422 726 c 256,10,11
 502 726 502 726 570.5 698.5 c 128,-1,12
 639 671 639 671 690.5 621.5 c 128,-1,13
 742 572 742 572 770.5 504.5 c 128,-1,14
 799 437 799 437 799 356 c 0,15,16
 799 276 799 276 770.5 209 c 128,-1,17
 742 142 742 142 690.5 92.5 c 128,-1,18
 639 43 639 43 570.5 15.5 c 128,-1,19
 502 -12 502 -12 422 -12 c 256,0,1
422 59 m 256,20,21
 508 59 508 59 577 97.5 c 128,-1,22
 646 136 646 136 686 203 c 128,-1,23
 726 270 726 270 726 356 c 0,24,25
 726 443 726 443 686 510.5 c 128,-1,26
 646 578 646 578 577 616.5 c 128,-1,27
 508 655 508 655 422 655 c 256,28,29
 336 655 336 655 267 616.5 c 128,-1,30
 198 578 198 578 158 510.5 c 128,-1,31
 118 443 118 443 118 356 c 0,32,33
 118 270 118 270 158 203 c 128,-1,34
 198 136 198 136 267 97.5 c 128,-1,35
 336 59 336 59 422 59 c 256,20,21
EndSplineSet
EndChar

StartChar: uni25CC
Encoding: 9676 9676 222
Width: 844
GlyphClass: 2
Flags: W
AnchorPoint: "Anchor-3" 422 710 basechar 0
AnchorPoint: "Anchor-1" 422 373 basechar 0
AnchorPoint: "Anchor-0" 422 0 basechar 0
LayerCount: 2
Fore
SplineSet
363 664 m 1,0,-1
 349 734 l 1,1,2
 367 737 367 737 385 739 c 128,-1,3
 403 741 403 741 422 741 c 1,4,-1
 422 669 l 1,5,6
 407 669 407 669 392.5 667.5 c 128,-1,7
 378 666 378 666 363 664 c 1,0,-1
532 654 m 1,8,9
 519 659 519 659 504 663 c 128,-1,10
 489 667 489 667 474 670 c 1,11,-1
 486 741 l 1,12,13
 505 737 505 737 523 732.5 c 128,-1,14
 541 728 541 728 558 721 c 1,15,-1
 532 654 l 1,8,9
253 618 m 1,16,-1
 213 678 l 1,17,18
 228 689 228 689 244.5 697.5 c 128,-1,19
 261 706 261 706 278 713 c 1,20,-1
 305 647 l 1,21,22
 291 640 291 640 277.5 633 c 128,-1,23
 264 626 264 626 253 618 c 1,16,-1
633 590 m 1,24,25
 610 611 610 611 586 627 c 1,26,-1
 624 688 l 1,27,28
 654 669 654 669 682 643 c 1,29,-1
 633 590 l 1,24,25
169 535 m 1,30,-1
 108 575 l 1,31,32
 128 605 128 605 155 632 c 1,33,-1
 206 581 l 1,34,35
 196 570 196 570 186.5 559 c 128,-1,36
 177 548 177 548 169 535 c 1,30,-1
702 495 m 1,37,38
 696 509 696 509 688 521.5 c 128,-1,39
 680 534 680 534 672 545 c 1,40,-1
 731 588 l 1,41,42
 742 573 742 573 751.5 557 c 128,-1,43
 761 541 761 541 768 524 c 1,44,-1
 702 495 l 1,37,38
123 426 m 1,45,-1
 52 439 l 1,46,47
 58 477 58 477 73 510 c 1,48,-1
 140 483 l 1,49,50
 128 455 128 455 123 426 c 1,45,-1
727 379 m 1,51,52
 727 411 727 411 720 438 c 1,53,-1
 791 453 l 1,54,55
 799 416 799 416 799 380 c 1,56,-1
 727 379 l 1,51,52
53 293 m 1,57,58
 45 330 45 330 45 366 c 1,59,-1
 117 367 l 1,60,61
 117 335 117 335 124 308 c 1,62,-1
 53 293 l 1,57,58
771 236 m 1,63,-1
 705 263 l 1,64,65
 710 277 710 277 714.5 291.5 c 128,-1,66
 719 306 719 306 721 320 c 1,67,-1
 792 307 l 1,68,69
 786 269 786 269 771 236 c 1,63,-1
113 158 m 1,70,71
 103 173 103 173 93.5 189.5 c 128,-1,72
 84 206 84 206 76 222 c 1,73,-1
 143 251 l 1,74,75
 155 224 155 224 172 201 c 1,76,-1
 113 158 l 1,70,71
689 114 m 1,77,-1
 638 165 l 1,78,79
 649 176 649 176 658 187 c 128,-1,80
 667 198 667 198 675 211 c 1,81,-1
 736 171 l 1,82,83
 716 141 716 141 689 114 c 1,77,-1
220 58 m 1,84,85
 190 77 190 77 162 103 c 1,86,-1
 211 156 l 1,87,88
 234 135 234 135 258 119 c 1,89,-1
 220 58 l 1,84,85
566 33 m 1,90,-1
 539 100 l 1,91,92
 553 106 553 106 566.5 113 c 128,-1,93
 580 120 580 120 591 128 c 1,94,-1
 631 68 l 1,95,96
 616 58 616 58 599.5 49.5 c 128,-1,97
 583 41 583 41 566 33 c 1,90,-1
358 5 m 1,98,99
 339 9 339 9 321 13.5 c 128,-1,100
 303 18 303 18 286 25 c 1,101,-1
 312 92 l 1,102,103
 326 87 326 87 340.5 83 c 128,-1,104
 355 79 355 79 370 76 c 1,105,-1
 358 5 l 1,98,99
422 5 m 1,106,-1
 422 77 l 1,107,108
 437 77 437 77 451.5 78.5 c 128,-1,109
 466 80 466 80 481 82 c 1,110,-1
 495 12 l 1,111,112
 477 9 477 9 459 7 c 128,-1,113
 441 5 441 5 422 5 c 1,106,-1
EndSplineSet
EndChar

StartChar: lozenge
Encoding: 9674 9674 223
Width: 531
GlyphClass: 1
Flags: W
LayerCount: 2
Fore
SplineSet
214 0 m 1,0,-1
 45 322 l 1,1,-1
 214 644 l 1,2,-1
 317 644 l 1,3,-1
 486 322 l 1,4,-1
 317 0 l 1,5,-1
 214 0 l 1,0,-1
131 322 m 1,6,-1
 266 67 l 1,7,-1
 400 322 l 1,8,-1
 266 577 l 1,9,-1
 131 322 l 1,6,-1
EndSplineSet
EndChar

StartChar: triagup
Encoding: 9650 9650 224
Width: 859
GlyphClass: 1
Flags: W
LayerCount: 2
Fore
SplineSet
20 0 m 1,0,-1
 429 710 l 1,1,-1
 839 0 l 1,2,-1
 20 0 l 1,0,-1
EndSplineSet
EndChar

StartChar: uni25B6
Encoding: 9654 9654 225
Width: 822
GlyphClass: 1
Flags: W
LayerCount: 2
Fore
SplineSet
92 -1 m 1,0,-1
 92 712 l 1,1,-1
 802 356 l 1,2,-1
 92 -1 l 1,0,-1
EndSplineSet
EndChar

StartChar: triagdn
Encoding: 9660 9660 226
Width: 807
GlyphClass: 1
Flags: W
LayerCount: 2
Fore
SplineSet
-6 710 m 1,0,-1
 813 710 l 1,1,-1
 403 0 l 1,2,-1
 -6 710 l 1,0,-1
EndSplineSet
EndChar

StartChar: uni25C0
Encoding: 9664 9664 227
Width: 823
GlyphClass: 1
Flags: W
LayerCount: 2
Fore
SplineSet
731 -1 m 1,0,-1
 21 356 l 1,1,-1
 731 712 l 1,2,-1
 731 -1 l 1,0,-1
EndSplineSet
EndChar

StartChar: uni25B3
Encoding: 9651 9651 228
Width: 859
GlyphClass: 1
Flags: W
LayerCount: 2
Fore
SplineSet
20 0 m 1,0,-1
 429 710 l 1,1,-1
 839 0 l 1,2,-1
 20 0 l 1,0,-1
157 78 m 1,3,-1
 703 78 l 1,4,-1
 429 554 l 1,5,-1
 157 78 l 1,3,-1
EndSplineSet
EndChar

StartChar: uni25B7
Encoding: 9655 9655 229
Width: 822
GlyphClass: 1
Flags: W
LayerCount: 2
Fore
SplineSet
92 -1 m 1,0,-1
 92 712 l 1,1,-1
 802 356 l 1,2,-1
 92 -1 l 1,0,-1
170 125 m 1,3,-1
 627 356 l 1,4,-1
 170 586 l 1,5,-1
 170 125 l 1,3,-1
EndSplineSet
EndChar

StartChar: uni25BD
Encoding: 9661 9661 230
Width: 807
GlyphClass: 1
Flags: W
LayerCount: 2
Fore
SplineSet
-6 710 m 1,0,-1
 813 710 l 1,1,-1
 403 0 l 1,2,-1
 -6 710 l 1,0,-1
131 632 m 1,3,-1
 403 156 l 1,4,-1
 677 632 l 1,5,-1
 131 632 l 1,3,-1
EndSplineSet
EndChar

StartChar: uni25C1
Encoding: 9665 9665 231
Width: 823
GlyphClass: 1
Flags: W
LayerCount: 2
Fore
SplineSet
731 -1 m 1,0,-1
 21 356 l 1,1,-1
 731 712 l 1,2,-1
 731 -1 l 1,0,-1
653 125 m 1,3,-1
 653 586 l 1,4,-1
 196 356 l 1,5,-1
 653 125 l 1,3,-1
EndSplineSet
EndChar

StartChar: grave
Encoding: 96 96 232
Width: 248
GlyphClass: 1
Flags: W
LayerCount: 2
Fore
SplineSet
134 603 m 1
 44 731 l 1
 138 731 l 1
 204 603 l 1
 134 603 l 1
EndSplineSet
EndChar

StartChar: blackCircled
Encoding: 65710 -1 233
Width: 826
GlyphClass: 1
Flags: W
LayerCount: 2
Fore
SplineSet
413 -12 m 0,0,1
 337 -12 337 -12 270 16.5 c 128,-1,2
 203 45 203 45 152 96 c 128,-1,3
 101 147 101 147 72.5 214 c 128,-1,4
 44 281 44 281 44 358 c 0,5,6
 44 434 44 434 72.5 500.5 c 128,-1,7
 101 567 101 567 152 618 c 128,-1,8
 203 669 203 669 270 697.5 c 128,-1,9
 337 726 337 726 413 726 c 0,10,11
 490 726 490 726 556.5 697.5 c 128,-1,12
 623 669 623 669 674 618 c 128,-1,13
 725 567 725 567 753.5 500.5 c 128,-1,14
 782 434 782 434 782 358 c 0,15,16
 782 281 782 281 753.5 214 c 128,-1,17
 725 147 725 147 674 96 c 128,-1,18
 623 45 623 45 556.5 16.5 c 128,-1,19
 490 -12 490 -12 413 -12 c 0,0,1
EndSplineSet
EndChar

StartChar: blackCircledStroke
Encoding: 65711 -1 234
Width: 828
GlyphClass: 1
Flags: W
LayerCount: 2
Fore
SplineSet
413 -12 m 0,0,1
 337 -12 337 -12 270 16.5 c 128,-1,2
 203 45 203 45 152 96 c 128,-1,3
 101 147 101 147 72.5 214 c 128,-1,4
 44 281 44 281 44 358 c 0,5,6
 44 434 44 434 72.5 500.5 c 128,-1,7
 101 567 101 567 152 618 c 128,-1,8
 203 669 203 669 270 697.5 c 128,-1,9
 337 726 337 726 413 726 c 0,10,11
 490 726 490 726 557 697.5 c 128,-1,12
 624 669 624 669 675 618 c 128,-1,13
 726 567 726 567 755 500.5 c 128,-1,14
 784 434 784 434 784 358 c 0,15,16
 784 281 784 281 755 214 c 128,-1,17
 726 147 726 147 675 96 c 128,-1,18
 624 45 624 45 557 16.5 c 128,-1,19
 490 -12 490 -12 413 -12 c 0,0,1
413 62 m 256,20,21
 475 62 475 62 529 84.5 c 128,-1,22
 583 107 583 107 623.5 147.5 c 128,-1,23
 664 188 664 188 686.5 242 c 128,-1,24
 709 296 709 296 709 358 c 256,25,26
 709 420 709 420 686.5 473.5 c 128,-1,27
 664 527 664 527 623.5 567 c 128,-1,28
 583 607 583 607 529 629.5 c 128,-1,29
 475 652 475 652 413 652 c 256,30,31
 351 652 351 652 297 629.5 c 128,-1,32
 243 607 243 607 203 567 c 128,-1,33
 163 527 163 527 140.5 473.5 c 128,-1,34
 118 420 118 420 118 358 c 256,35,36
 118 296 118 296 140.5 242 c 128,-1,37
 163 188 163 188 203 147.5 c 128,-1,38
 243 107 243 107 297 84.5 c 128,-1,39
 351 62 351 62 413 62 c 256,20,21
EndSplineSet
EndChar
